<svg id="Capa_1" enable-background="new 0 0 510 510" height="512" viewBox="0 0 510 510" width="512" xmlns="http://www.w3.org/2000/svg" xmlns:xlink="http://www.w3.org/1999/xlink"><linearGradient id="lg1"><stop offset="0" stop-color="#eaf6ff"/><stop offset=".5213" stop-color="#d8ecfe"/><stop offset="1" stop-color="#b3dafe"/></linearGradient><linearGradient id="SVGID_1_" gradientUnits="userSpaceOnUse" x1="3.333" x2="112.131" xlink:href="#lg1" y1="68.882" y2="68.882"/><linearGradient id="SVGID_2_" gradientUnits="userSpaceOnUse" x1="-18.667" x2="88.019" xlink:href="#lg1" y1="72.419" y2="72.419"/><linearGradient id="lg2"><stop offset="0" stop-color="#fef056"/><stop offset=".5213" stop-color="#f4d902"/><stop offset="1" stop-color="#fe9738"/></linearGradient><linearGradient id="SVGID_3_" gradientUnits="userSpaceOnUse" x1="-8.26" x2="508.137" xlink:href="#lg2" y1="255" y2="255"/><linearGradient id="lg3"><stop offset="0" stop-color="#fbc56d"/><stop offset=".5841" stop-color="#fe9738"/><stop offset=".9984" stop-color="#fb2b3a"/></linearGradient><linearGradient id="SVGID_4_" gradientUnits="userSpaceOnUse" x1="-109" x2="597.375" xlink:href="#lg3" y1="457.007" y2="457.007"/><linearGradient id="SVGID_5_" gradientUnits="userSpaceOnUse" x1="-109" x2="597.375" xlink:href="#lg3" y1="52.418" y2="52.418"/><linearGradient id="SVGID_6_" gradientUnits="userSpaceOnUse" x1="-109" x2="597.375" xlink:href="#lg3" y1="168.034" y2="168.034"/><linearGradient id="SVGID_7_" gradientUnits="userSpaceOnUse" x1="-111.838" x2="468.681" xlink:href="#lg2" y1="255" y2="255"/><linearGradient id="SVGID_8_" gradientUnits="userSpaceOnUse" x1="-109" x2="597.375" xlink:href="#lg3" y1="384.44" y2="384.44"/><linearGradient id="SVGID_9_" gradientUnits="userSpaceOnUse" x1="-19.5" x2="220.857" y1="401.426" y2="401.426"><stop offset="0" stop-color="#fd8087"/><stop offset=".5213" stop-color="#fb2b3a"/><stop offset="1" stop-color="#d90d80"/></linearGradient><linearGradient id="SVGID_10_" gradientUnits="userSpaceOnUse" x1="-42.682" x2="428.405" xlink:href="#lg3" y1="457.007" y2="457.007"/><linearGradient id="SVGID_11_" gradientUnits="userSpaceOnUse" x1="-109" x2="597.375" xlink:href="#lg3" y1="261.827" y2="261.827"/><linearGradient id="SVGID_12_" gradientUnits="userSpaceOnUse" x1="-127" x2="487.359" xlink:href="#lg3" y1="168.034" y2="168.034"/><linearGradient id="SVGID_13_" gradientUnits="userSpaceOnUse" x1="-6" x2="428.005" xlink:href="#lg3" y1="48.776" y2="48.776"/><linearGradient id="SVGID_14_" gradientUnits="userSpaceOnUse" x1="370.554" x2="510" xlink:href="#lg1" y1="440.277" y2="440.277"/><linearGradient id="SVGID_15_" gradientUnits="userSpaceOnUse" x1="322" x2="466.087" xlink:href="#lg1" y1="440.277" y2="440.277"/><linearGradient id="SVGID_16_" gradientUnits="userSpaceOnUse" x1="322" x2="466.087" xlink:href="#lg1" y1="438.75" y2="438.75"/><linearGradient id="SVGID_17_" gradientUnits="userSpaceOnUse" x1="322" x2="466.087" xlink:href="#lg1" y1="409.25" y2="409.25"/><g><g><circle cx="64.5" cy="68.882" fill="url(#SVGID_1_)" r="50.067"/><path d="m21.58 94.669c18.691-26.714 41.92-50.015 68.577-68.781 14.618 8.743 24.41 24.722 24.41 42.994 0 27.651-22.416 50.067-50.067 50.067-18.219 0-34.161-9.733-42.92-24.28z" fill="url(#SVGID_2_)"/></g><g><g><circle cx="255" cy="255" fill="url(#SVGID_3_)" r="255"/></g><g><path d="m48.066 404.014c46.307 64.193 121.735 105.986 206.934 105.986s160.627-41.793 206.934-105.986c-51.352 17.564-125.047 28.576-206.934 28.576s-155.582-11.012-206.934-28.576z" fill="url(#SVGID_4_)"/><path d="m442.572 82.273c-46.598-50.578-113.379-82.273-187.572-82.273s-140.974 31.695-187.572 82.273c49.739 14.027 115.48 22.563 187.572 22.563s137.833-8.537 187.572-22.563z" fill="url(#SVGID_5_)"/><path d="m255 185.742c0 12.665 10.451 22.81 23.112 22.495 68.617-1.708 132.645-11.004 182.296-26.606 11.306-3.553 23.161-7.868 34.565-13.04-5.12-14.217-11.458-27.851-18.905-40.768-8.011 3.588-17.627 7.256-29.15 10.877-45.798 14.391-105.511 22.97-170.016 24.555-12.188.301-21.902 10.295-21.902 22.487z" fill="url(#SVGID_6_)"/></g><path d="m255 0c-6.735 0-13.407.266-20.01.778 27.945 2.169 54.626 8.843 79.319 19.297 85.056 36.008 61.26 162.61-31.058 165.508-9.291.292-18.715.441-28.251.441-96.009 0-180.749-15.137-231.419-38.227-15.124 32.593-23.581 68.908-23.581 107.203 0 15.272 1.347 30.229 3.92 44.763 46.221 28.847 141.288 48.639 251.08 48.639 57.214 0 110.421-5.377 154.804-14.609 23.269-4.84 41.732 19.504 30.599 40.502-.143.27-.287.54-.431.809-3.759 7.029-10.271 12.195-18.012 14.094-47.287 11.6-105.457 17.892-166.96 17.892-72.819 0-140.978-8.816-191.919-24.823-15.484-4.866-27.534-9.818-36.857-14.544 11.564 23.425 26.607 44.823 44.475 63.504 52.061 13.512 116.516 20.863 184.301 20.863.471 0 .942 0 1.413-.001 32.883-.05 37.54 47.673 5.205 53.651-8.728 1.614-17.612 2.783-26.628 3.482 6.603.512 13.275.778 20.01.778 140.833 0 255-114.167 255-255s-114.167-255-255-255z" fill="url(#SVGID_7_)"/><path d="m183.333 404.313c0-11.464-8.629-21.081-20.023-22.35-37.376-4.162-71.535-10.894-100.229-19.911-22.689-7.13-38.007-14.445-48.167-20.962 8.204 22.876 19.585 44.235 33.611 63.554.001.001.003.002.004.003 31.544 10.011 68.97 18.457 109.733 23.009 13.361 1.492 25.071-9.899 25.071-23.343z" fill="url(#SVGID_8_)"/><path d="m162.204 391.902c-15.962-1.777-31.208-3.992-45.67-6.629-7.833-1.428-15.034 4.619-15.034 12.581 0 6.098 4.302 11.369 10.286 12.542 15.711 3.079 31.678 5.545 47.586 7.322.416.047.837.07 1.252.07h.001c3.219 0 6.339-1.398 8.786-3.936 2.493-2.586 3.923-6.063 3.923-9.54-.001-6.368-4.785-11.704-11.13-12.41z" fill="url(#SVGID_9_)"/><path d="m461.934 404.014c-51.352 17.564-125.047 28.576-206.934 28.576-81.883 0-155.574-11.01-206.926-28.573 6.915 9.59 14.472 18.686 22.625 27.21 52.061 13.512 116.516 20.863 184.301 20.863.471 0 .942 0 1.413-.001 32.883-.05 37.54 47.673 5.205 53.651-8.728 1.614-17.612 2.782-26.628 3.482 6.603.512 13.275.778 20.01.778 85.199 0 160.627-41.793 206.934-105.986z" fill="url(#SVGID_10_)"/><path d="m509.689 242.44c-.812-16.759-3.254-33.088-7.15-48.844-9.51 7.681-26.495 17.141-55.621 26.293-50.941 16.008-119.099 24.824-191.918 24.824s-140.977-8.816-191.918-24.823c-29.123-9.152-46.107-18.61-55.617-26.291-3.899 15.755-6.328 32.089-7.142 48.847 15.571 8.561 32.988 15.257 49.269 20.373 32.389 10.178 70.898 17.667 112.805 22.121 11.153 1.187 19.603 10.625 19.603 21.842 0 11.671 9.12 21.342 20.776 21.942 17.118.882 34.568 1.334 52.224 1.334 85.861 0 166.919-10.612 228.242-29.882 7.893-2.48 16.023-5.317 24.121-8.492 1.726-11.981 2.637-24.225 2.637-36.684 0-4.212-.106-8.399-.311-12.56z" fill="url(#SVGID_11_)"/><path d="m446.919 138.701c-29.48 9.264-64.732 16.114-103.31 20.246-14.212 15.397-34.618 25.828-60.358 26.637-9.288.292-18.71.441-28.243.441.154 12.533 10.539 22.526 23.105 22.213 68.617-1.708 132.645-11.004 182.296-26.606 11.306-3.553 23.161-7.868 34.565-13.04-5.12-14.217-11.458-27.851-18.905-40.768-8.012 3.587-17.628 7.256-29.15 10.877z" fill="url(#SVGID_12_)"/><path d="m235.012.78c27.937 2.171 54.611 8.844 79.296 19.295 35.74 15.13 52.254 46.256 52.548 77.478 27.874-3.807 53.408-8.989 75.716-15.28-46.598-50.578-113.379-82.273-187.572-82.273-6.727 0-13.392.269-19.988.78z" fill="url(#SVGID_13_)"/></g><g><circle cx="440.277" cy="440.277" fill="url(#SVGID_14_)" r="69.723"/><g><path d="m440.277 370.553c-4.271 0-8.446.405-12.506 1.14 32.536 5.896 57.218 34.347 57.218 68.583 0 11.15-2.632 21.678-7.286 31.021-2.359-10.621-12.135-18.449-23.616-17.755-11.157.674-20.339 9.637-21.257 20.777-.482 5.852 1.252 11.288 4.455 15.56 5.085 6.783 1.517 16.574-6.756 18.422-.912.204-1.832.39-2.757.558 4.059.736 8.234 1.14 12.506 1.14 38.506.001 69.722-31.215 69.722-69.722s-31.216-69.724-69.723-69.724z" fill="url(#SVGID_15_)"/><circle cx="405.021" cy="438.75" fill="url(#SVGID_16_)" r="14.75"/><circle cx="449.945" cy="409.25" fill="url(#SVGID_17_)" r="14.75"/></g></g></g></svg>