<svg viewBox="-5 0 511 511.48975" xmlns="http://www.w3.org/2000/svg"><path d="m91.085938 140.640625c21.441406-12.5625 41.082031-27.972656 58.382812-45.8125 17.859375-17.296875 33.285156-36.9375 45.867188-58.382813 1.417968-2.589843 2.578124-4.925781 3.59375-7.105468l.050781-.128906c6.289062-13.570313 5.238281-19.382813 4.492187-20.136719-.871094-.679688-1.972656-1-3.070312-.898438-10.484375 0-42.875 15.054688-82.640625 54.847657-17.855469 17.300781-33.28125 36.941406-45.863281 58.386718-10.332032 18.863282-8.984376 26.488282-8.128907 27.367188.851563.882812 8.46875 2.210937 27.316407-8.136719zm0 0"/><path d="m150.351562 466.882812c2.472657 2.003907 5.105469 3.808594 7.867188 5.390626 4.265625 2.367187 5.859375 7.710937 3.589844 12.027343-2.269532 4.320313-7.570313 6.039063-11.941406 3.871094-.710938-.367187-70.550782-38.132813-37.898438-132.355469 24.953125-71.996094-16.285156-167.074218-28.242188-192.144531-5.480468 2.179687-11.296874 3.414063-17.191406 3.644531-2.40625-.007812-4.796875-.359375-7.105468-1.039062-5.785157 32.441406-19.257813 125.140625 2.074218 190.8125 16.988282 52.261718 10.25 89.394531 1.617188 111.382812-.246094.5625-.546875 1.097656-.898438 1.597656-.125.191407-.195312.398438-.339844.578126-.632812.824218-1.410156 1.53125-2.289062 2.082031-.21875.132812-.460938.214843-.695312.332031-.726563.390625-1.507813.667969-2.316407.828125-.179687.042969-.324219.160156-.503906.1875-39.25 5.695313-52.023437 12.324219-55.832031 15.097656 10.824218 8.320313 68.886718 22.3125 173.980468 22.3125 105.472657 0 163.597657-14.101562 174.125-22.453125-10.527343-8.355468-68.652343-22.457031-174.125-22.457031-7.714843 0-15.683593.117187-23.875.304687zm-61.457031-117.078124c0 4.960937-4.023437 8.984374-8.984375 8.984374-4.960937 0-8.980468-4.023437-8.980468-8.984374v-53.894532c0-4.960937 4.019531-8.980468 8.980468-8.980468 4.960938 0 8.984375 4.019531 8.984375 8.980468zm0-98.804688c0 4.960938-4.023437 8.980469-8.984375 8.980469-4.960937 0-8.980468-4.019531-8.980468-8.980469v-26.949219c0-4.960937 4.019531-8.980469 8.980468-8.980469 4.960938 0 8.984375 4.019532 8.984375 8.980469zm0 0"/><path d="m500.144531 368.804688c-15.683593-39.183594-51.953125-126.894532-80.160156-174.117188.777344-14.914062 2.9375-29.722656 6.449219-44.238281 3.007812-12.472657 4.972656-25.171875 5.875-37.96875.199218-35.597657-14.839844-69.574219-41.316406-93.363281-17.492188-15.453126-41.097657-22.050782-64.0625-17.902344-23.410157 5.183594-38.574219 24.648437-40.558594 52.035156-.851563 11.15625-4.121094 35.625-6.511719 53.492188l-.628906 4.757812c-4.445313-1.230469-8.980469-2.523438-13.25-3.65625-23.917969-6.285156-55.90625-14.863281-65.039063-46.492188-11.496094 16.535157-24.488281 31.976563-38.804687 46.132813-14.394531 14.566406-30.121094 27.753906-46.96875 39.390625 31.8125 9.105469 40.367187 41.148438 46.707031 65.085938 7.804688 32.152343 18.742188 63.464843 32.660156 93.480468 8.269532 18.878906 20.757813 35.609375 36.503906 48.910156 38.625 28.996094 147.007813 73.835938 191.804688 91.765626 10.011719 4.015624 21.457031 1.671874 29.082031-5.957032l42.21875-42.21875c7.667969-7.628906 10.03125-19.101562 6-29.136718zm-159.921875 13.066406c-2.066406 4.511718-7.394531 6.492187-11.902344 4.429687-19.332031-8.855469-36.128906-17.066406-49.933593-24.304687-12.726563-6.441406-24.960938-13.820313-36.59375-22.070313-3.804688-2.890625-7.304688-6.15625-10.449219-9.757812-3.074219-3.511719-5.917969-7.226563-8.503906-11.117188-2.515625-3.753906-4.796875-7.582031-6.84375-11.28125-2.050782-3.703125-3.785156-7.125-5.335938-10.296875-3.449218-7.015625-6.820312-14.648437-10.027344-22.699218-2.855468-7.183594-5.601562-14.730469-8.386718-23.066407-2.542969-7.660156-4.878906-15.269531-7.035156-22.722656-2.15625-7.457031-4.113282-14.679687-5.953126-21.660156-1.132812-4.742188 1.726563-9.519531 6.441407-10.765625 4.710937-1.246094 9.558593 1.496094 10.921875 6.175781 1.792968 6.855469 3.742187 13.96875 5.847656 21.246094 2.101562 7.273437 4.355469 14.621093 6.824219 22.050781 2.695312 8.003906 5.300781 15.269531 8.03125 22.105469 3.035156 7.609375 6.214843 14.820312 9.46875 21.421875 1.4375 2.949218 3.078125 6.171875 4.921875 9.515625 1.839844 3.339843 3.824218 6.65625 6.042968 9.960937 2.144532 3.226563 4.496094 6.3125 7.042969 9.234375 2.339844 2.675781 4.9375 5.113281 7.761719 7.273438 10.882812 7.675781 22.3125 14.535156 34.203125 20.527343 13.476563 7.121094 30.011719 15.152344 49.035156 23.875 2.171875.992188 3.859375 2.808594 4.6875 5.046876.828125 2.238281.734375 4.714843-.265625 6.878906zm-43.53125-265.277344c.308594-2.351562.640625-4.824219 1-7.472656 2.550782-19.089844 5.71875-42.835938 6.617188-54.53125.820312-11.375 5.390625-31.144532 26.492187-35.824219 17.425781-2.871094 35.222657 2.253906 48.449219 13.960937 22.507812 20.230469 35.28125 49.128907 35.09375 79.394532-.914062 11.6875-2.753906 23.285156-5.503906 34.679687-1.714844 8.363281-3.449219 16.824219-4.753906 24.964844-12.710938-13.195313-27.855469-23.808594-44.597657-31.25-20.253906-9.648437-41.253906-17.648437-62.796875-23.921875zm144.519532 307.863281c-1.363282 3.414063-4.667969 5.652344-8.34375 5.652344-1.140626 0-2.273438-.21875-3.332032-.648437-13.699218-5.46875-30.09375-12.179688-47.519531-19.5625-4.492187-1.980469-6.566406-7.207032-4.644531-11.726563 1.917968-4.523437 7.113281-6.667969 11.660156-4.808594 17.300781 7.328125 33.578125 13.984375 47.167969 19.417969 2.214843.882812 3.984375 2.609375 4.925781 4.800781.941406 2.191407.972656 4.664063.085938 6.875zm0 0"/></svg>