<svg xmlns="http://www.w3.org/2000/svg" viewBox="0 0 101.45 85.6"><defs><style>.cls-1{isolation:isolate;}.cls-2{fill:#58c6d5;opacity:0.51;}.cls-3,.cls-4,.cls-8,.cls-9{fill:#f9f9f9;}.cls-3{opacity:0.43;}.cls-3,.cls-4{mix-blend-mode:overlay;}.cls-4{opacity:0.58;}.cls-5,.cls-6{fill:#507b7a;}.cls-6{opacity:0.59;mix-blend-mode:multiply;}.cls-7{fill:#7dafac;opacity:0.36;mix-blend-mode:screen;}.cls-9{opacity:0.7;}</style></defs><g class="cls-1"><g id="Camada_2" data-name="Camada 2"><g id="icons_planets"><path class="cls-2" d="M14.35,70.58c-1.73,6-7.34,1.33-5.62-4,.31-1,1.56-1.81,1.75-2.77.17-.79-.33-1.27-.24-2,.29-2.27-1-3.28,2.12-5.06.12.28,0,.55.11.83,2.43-1.1,3.41-4.47,4.84-6.56,2.48-3.64,5.35-7.69,9-10.17-.35,3.12-3.7,5.57-4.23,8.73,2.43.58,8-7.21,10.59-8.62-1.3,2.4-3.36,4.73-4.18,7.39,1.72-.2,2.76-1.81,4-3.05,3.84-3.89,7.82-7.43,11.91-11.07,5-4.4,12.66-15,19.57-16.14a91.45,91.45,0,0,1-8.46,10.7c1.92-.41,3.5-1.68,5.15-2.67a11.49,11.49,0,0,0-1.86,2.59C64,28.09,69.63,21.47,73,18.18,79.86,11.56,86.39,5.07,94.5,0A52.47,52.47,0,0,0,81.75,15.89c3.19-1.05,5.72-3.4,8.71-4.85a46.19,46.19,0,0,1-7.58,9.15C90.16,17.31,95.55,11.88,101.45,7,100.3,13.94,91.55,19.49,88,25.46c2.77-.46,5.52-3,7.82-4.59A59.25,59.25,0,0,1,85.74,32.92c-2.84,2.63-7.33,5.21-9.35,8,6.39-1.75,10.93-7.61,16.87-10-4.58,7.78-15,14.39-22.81,18.36-4.89,2.49-10,4.16-15.06,6.19-2.06.82-5.63,1.79-6.74,3.92,3.05.75,6.85-1.89,9.59-3,4.19-1.69,8.41-3.25,12.67-4.79-3.17,3.15-7.66,4.65-11.13,7.42,3.55.18,7.28-1.57,10.35-3.17-11.14,8-23.9,14.22-36.29,20C30,77.71,25.37,80.32,21,79.82,17.26,79.4,15,76.79,14.35,70.58Z"/><path class="cls-3" d="M42.56,50.24c-4.37,2.76-9.69,4-12.51,8.77-2.44,4.15,1.77,4.87,5,3.74,5-1.74,6.38-6.48,10.08-9.31.53,1.92,3,.35,4-.57,1.77,4.27,9.7-4.3,11.36-5.78,1.2,7.33,12.5-4.86,13.55-7.17s2.21-4.83,4.45-6.61c1.93-1.52,4.62-1.59,5-4.59-.79.19-1.83,0-2.61.27,2.32-6.33,11.27-7.73,14.42-13.65-3.35.44-6.31,3.63-9.05,5.38a110.46,110.46,0,0,1-12.69,7.13c1.46-2.21,4.89-4.46,5.64-6.72-4.2-.24-9.32,8-12.29,10.52-2.55,2.17-5.27,4.17-7.8,6.34,1.55.06,3-1.35,4-2.54-3.14-1.13-7,2.86-8.18,5.49a5.32,5.32,0,0,0,1-3.18C51.85,37.75,47.34,47,42.56,50.24Z"/><path class="cls-4" d="M24,50.45c-1.67,2.13-6.13,6-1.61,7.4,4.87,1.48,7.94-6.25,11.26-8.27A10.48,10.48,0,0,0,33.4,51c2.61-.09,4.79-3.7,6.25-5.6a39.37,39.37,0,0,1,9.89-9.72,3.5,3.5,0,0,0-1,2.77c6,.32,15.37-8.27,19.14-12.41-4.86,2.39-9.76,5.63-14.93,7.67.83-1.7,1.89-3.33,2.19-5.21-3.29.33-9.66,6.42-12.18,8.7-4.13,3.73-7.94,8-12.49,11.22.24-.3.51-.59.77-.89-2.39.68-3.53,3.32-5.4,4.77-.24-.72-.94-1.35-1.05-2.22C23.75,50.69,23.14,51.44,24,50.45Z"/><path class="cls-4" d="M23.37,59.14c1.22-5.78,9.77-13.56,15-15.78-.68,1.64-1.74,3.27-2.22,4.89,2.55-.37,3.77-3.25,6.18-3.93a26.34,26.34,0,0,1-.95,3.45.54.54,0,0,0,.66.3A130.67,130.67,0,0,1,57,34.66c-1.88,2.32-4,5.06-4.55,8,3.57-1.37,6.12-5.15,9.57-7-.55,2.19-2.15,4.79-3.15,7,5.11.58,14.43-11.33,17.35-15.09.77,5.14-4.35,7.78-6.2,11.79,3,.29,5.34-3,7.71-4.37.46,2.8-5.27,7.18-7.13,8.91,1.65.31,3.68-.95,5.41-1.59-3.54,3.77-8.7,5.59-13.38,7.53C50.71,54.77,40,61.57,29.17,68.48Z"/><path class="cls-4" d="M29.81,70.09c-1.14,1-2.14,2.39-3.19,3.46,3.58,2,12.08-3.62,14.63-6-2.52,3.71,4.72-.15,5.32-.48,4.4-2.49,8.75-5.06,13.12-7.59-3.94-.38-8.28,3.24-12.25,3.91A28,28,0,0,0,51,60.85C48,60.54,45,63.36,41.71,63c1-2.27,4.94-4.9,7.4-5.81C41.2,58.32,33.77,67.61,29.81,70.09Z"/><path class="cls-4" d="M20.15,56.89a2.13,2.13,0,0,1-.94,0c-.81-2.54-.13-4.3,2.21-5.59,4.48-2.47,2.11.37,3.54,1.67,3.17,2.9,3.74-1.45,7.13-2.8,2-.8,3.31-.65,2.55,2.14,1.72.38,3.65-1.17,5.12-2.07.31,2.6-2.27,4.09-2.56,6.54,2.88.59,6.23-1,9.06-1.73a40,40,0,0,1-3.83,4.23c2.58,1.65,6.65-.81,9.63-.73-2.36,2-5.65,3.15-7.56,5.69,2.24.18,4.87-.9,6.85-.39-6.54,8-16.9,11.15-26.69,12.07Z"/><path class="cls-5" d="M28.41,72c1.86,1.61-.66,5.66-2,6.73a5.16,5.16,0,0,1-7,0c-1.21,1-4,1.41-4.36-.67-3,.41-6.17-.21-8.24-2.63C4.86,73.14,4,67.79,8.13,67.25c-.86-.57-1.48-2.3-.47-3-3.92-4.85,6.36-13,10.59-8,0-.87.54-2.43,1.57-1.78,1.74-5.91,14.4-.94,10.09,5.54,1-.35,1.83.92,1.18,1.19,3.29.27,8.24,3.21,7.33,7.07-.57,2.44-3.22,4.79-5.83,4.66A10.08,10.08,0,0,1,28.41,72Z"/><path class="cls-6" d="M13.3,55.77c-2.43.49-4.61,4.19-2.54,6.29,1,1,6.56,1.69,5.42-.53,2.5,1.12,4.67-2.36,2.21-2.51C21,57.29,14.35,55.24,13.3,55.77Z"/><path class="cls-6" d="M11.71,72.65C13.15,71.84,9.61,68,8.37,71c-.48,1.11.45,2.39,1.27,3.08s2.47,1.23,1.93-.27a1.12,1.12,0,0,0,1.74.34c1-.88-1.17-1.25-1.76-1.63Z"/><path class="cls-6" d="M11.39,75.51c1.17,2.82,3.62.85.48-.15Z"/><path class="cls-6" d="M22.22,69.94a3.26,3.26,0,0,0-2-5.34c-3.6-.4-5.39,5.24-2.65,7.28-.58,1.35-1.39,2.61.41,3.57,1.41.75,3.39-.3,2.29-2,.61.92,1.49.4,1.43-.64C25.32,76.13,25.43,68.6,22.22,69.94Z"/><path class="cls-6" d="M25.24,60.23c-2.54.33.34,4.23.31,1.81,1.17,1.6,2.73-2.21,2.72-3.11-.06-4.18-5.42-1.65-3,1Z"/><path class="cls-6" d="M22.22,58.16c-.22.79-.5,2.75.87,2.56s1.11-2.41-.23-2.4Z"/><path class="cls-6" d="M30,67.24c-1-.2-2-1.83-1.28-2.71,1.11-1.4,3.09.42,2.9,1.74,1.42-2,3.65-.41,3.36,1.63s-3.74,3.83-5.27,2.26c0,.71-1.68.54-2.26.09-2-1.52.16-2.74,1.59-3.17Z"/><path class="cls-6" d="M26.2,66.76c-.66-.79-.19-2.49.92-1.27.82.89,0,2.37-1.08,1.43Z"/><path class="cls-6" d="M25.88,74.56c-.28.5-.6,1.65-1.31,1.88-1,.32-1.55-.86-2.51-.76-2.31.22-.58,3.25,1.24,2.4.55,2.71,3.31-1.35,3.57-2.39,3.15-.3-1.4-6.37-.83-.65Z"/><path class="cls-6" d="M13.94,69.62C15.75,67,10.81,64.23,11.09,67c-.33-.88-2.07-4.53-2.73-2.33-.43,1.44,2.56,4.5,3.64,5.27,0,0,.09-.22.14-.26.3.82.11,2.53,1.16,2.87C15.65,73.29,13.89,70,13.94,69.62Z"/><path class="cls-6" d="M23.17,54.18c-1.36-1.25-2.21.81-1.12,1.56a8,8,0,0,0-1.4-.1c-.24,2.42,3.25-.5,3.64-1.41.25.52,1.54,1,2,.41C27.24,53.49,24,52.27,23,54Z"/><path class="cls-7" d="M10.12,57.05C8.52,57,6.88,60.73,8.51,60.9c-1.29,1.74,1.56,3.87,3,2.23.69,1.95,3.51,3.25,4.19.66a1.41,1.41,0,0,0,2.07-1.31c2.32.84,4.41-3,2.85-3-.4,0-1.26,1.4-1.76,1.57s-1.57-.32-2.08,0-.32,1.26-.78,1.65c-.78.68-1.68.31-2.64,0C10.55,61.71,9,60.46,10.12,57.05Z"/><path class="cls-7" d="M8.53,68.67c-1.36-1.74-3.09.49-1.77,1.87-.58.55-.59,3.43.74,3.06.85-.23.31-2.93.13-3.51A1.76,1.76,0,0,0,9.3,68.54c-.19-.16-.19-.09-.42-.18a.37.37,0,0,0-.19.47Z"/><path class="cls-7" d="M15.85,68.19c.35-.64,1.37-3-.08-2.87-1.71.1-1,3-.29,3.79-.87.69-1,3.58.25,4.14,2.66,1.21.18-3.84,0-4.42Z"/><path class="cls-7" d="M24.92,64.53c1.59-3.9-5.05.79-1.09,1.92q.18,0,0,0A1.49,1.49,0,0,0,24.64,69c2.15,0,.59-3.38.13-4.27Z"/><path class="cls-7" d="M28,55.45a.92.92,0,0,0-1.65.78,4.85,4.85,0,0,0-2-.43c-.09.26-.31.41-.38.72-.68-.88-3.08-1-2.86.56s2.69.43,3.36-.13C25.19,58,29.84,56.81,28,55.45Z"/><path class="cls-7" d="M28.41,61.82a4.18,4.18,0,0,0,.94-1.58c-.28.07-.57,0-.86.1,1-1.4,2.1-4.28-.54-4.55a3.61,3.61,0,0,0,1.12-1.94c-2.81-2.53-8.17-3.08-9.25.61-1-.65-1.57.91-1.57,1.78C14.49,51.85,6,57.78,6.85,62.57a9.38,9.38,0,0,0,3.09,2.15c-.67.54-2.75-.63-2.5,1.09.12.84,3.17,2.13,1.49,2.7-.65.22-1.28-.75-2.25-.09-1.22.83-1,2.54-.38,3.69,1.46,2.92,7.8,4.73,7-.38.21.46.53.57.8.86,1.19-1.88,1.2-3.79,1.3-5.93a1.5,1.5,0,0,0,2.18,0c.6,3,2.6,3.71,5.51,2.54,2.5-1,2.16-2.6,1.52-4.94,2.25,1,4,5.85,7.32,3.11C34.39,65.27,30.88,61.65,28.41,61.82Z"/><path class="cls-6" d="M31.09,61.19c.65-.27-.15-1.54-1.18-1.19,4.31-6.48-8.35-11.45-10.09-5.54-1-.65-1.57.91-1.57,1.78a4.31,4.31,0,0,0-2.85-1.51c-.11.73.34.42,1,1.2a2.68,2.68,0,0,1,.84,2.39c0,1.06-.32,2.9,1.91,2.07,2.08-.78,1.95-4.83,5-4.47,2.76.32,1.35,3.66,0,4.82,3.07-.65,1.09,7.43-3.33,5.1-.31,1.63,1.87,1.92,3.05,1.89a6.27,6.27,0,0,0,1.17-.12c-.82,2.75-3.94,2.88-6.77,2.32-.14,1.25.22,3.37-1.79,3.08.48,2.51-2.56,2.52-3.63.77-.21,1.46-2.16,1.86-3.38,1.88a7.4,7.4,0,0,1-2.93-.57c.08.11.17.21.25.31C8.87,77.82,12,78.44,15,78c.39,2.08,3.15,1.7,4.36.67a5.16,5.16,0,0,0,7,0c1.37-1.07,3.89-5.12,2-6.73a10.08,10.08,0,0,0,4.18.9c2.61.13,5.26-2.22,5.83-4.66C39.33,64.4,34.38,61.46,31.09,61.19Zm.82,3.17c-.55,2.39-2.61,2.5-4.54,2.2a4.12,4.12,0,0,0,1.39-2.34c.25-1.17-.06-2.48.36-3.54C30.6,61.5,32.47,61.89,31.91,64.36Z"/><path class="cls-6" d="M13.9,57.31c-.07,0,0,.16.07.11,1.59-1,2.11,1.89.78,2.31-.56.17-1.21-.13-1.81,0-.07,0-.1.12,0,.14.76.22.48,1,.09,1.44a1.34,1.34,0,0,1-1.25.48,2.28,2.28,0,0,1-1.6-2.47c.08-2.15,2.15-3.27,4.1-3.17h0a3.76,3.76,0,0,0-3.95,2c-.51,1.19-.29,3,1,3.63.9.4,2.43-.39,2.22-1.52a.64.64,0,0,0-.24-.4l-.05-.05.59.06c.51.08,1,.17,1.38-.26C16.15,58.56,15.38,56.28,13.9,57.31Z"/><path class="cls-6" d="M10.06,70a1.4,1.4,0,0,0-1.71.9c-.52,1.36.88,3.68,2.41,3.63.16,0,.15-.22,0-.24A2.88,2.88,0,0,1,8.54,71.1a1.19,1.19,0,0,1,2.1-.47c.45.43.78,1,1.22,1.39,0,0,0,0,0,0C11.34,71.34,10.91,70.32,10.06,70Z"/><path class="cls-6" d="M13.43,71.11c-.95.17-.7-.94-1.09-1.49a13,13,0,0,0-2-1.71,5.47,5.47,0,0,1-1.81-2.42c-.05-.19-.21-.69-.08-.86s.7,0,.94.24a5.16,5.16,0,0,1,1,1.28s.1,0,.08-.05c-.39-.87-1-1.84-2.09-1.82a.13.13,0,0,0-.11.08C8,66.24,9.59,67.73,11,68.78c.48.36,1.11.72,1.31,1.31.1.28.08.6.21.88.21.49.58.57,1,.34C13.63,71.25,13.54,71.09,13.43,71.11Z"/><path class="cls-6" d="M19.58,73.39c-.44.58-1.46,1.77-1.82.43A1.6,1.6,0,0,1,18.42,72a.14.14,0,0,0,0-.23,4.44,4.44,0,0,1-1.91-2.56c-.09-.35-.1-2.07.71-1.44.41.31.34,1,.18,1.39,0,.05.06.08.08,0a1.28,1.28,0,0,0-.12-1.57.54.54,0,0,0-.88.05c-1,1.28.49,3.41,1.62,4.2a2,2,0,0,0-.48,2.39c.63,1.2,1.75,0,2.14-.74C19.83,73.38,19.66,73.29,19.58,73.39Z"/><path class="cls-6" d="M22.57,58.75a.61.61,0,0,0-.8.39c-.31.68.29,1.78,1.1,1.46a.05.05,0,0,0,0-.1c-.59.16-1.06-.61-.95-1.12.07-.33.35-.65.69-.42a1,1,0,0,1,.36.79.08.08,0,1,0,.15,0A1.09,1.09,0,0,0,22.57,58.75Z"/><path class="cls-6" d="M25.38,53.14A2.09,2.09,0,0,0,24,53.3c-.3.12-.84.57-1.18.53s-.17-.18-.49-.12a1,1,0,0,0-.72.51,1.1,1.1,0,0,0,0,1.26c-.85.05-1.16,1.15-.12,1.11,0,0,0,0,0,0-.34,0-.75-.39-.42-.74a.78.78,0,0,1,.84-.09c.11,0,.18-.13.08-.19-.81-.47-.15-1.82.66-1.54.13,0,.12.16.3.16s.7-.43.93-.54a2.72,2.72,0,0,1,.79-.26c.46-.05,1.57.1,1.24,1-.05.12.15.2.21.09C26.47,53.76,26,53.31,25.38,53.14Z"/><path class="cls-6" d="M25.5,57.11A2,2,0,0,0,25.39,60a1.45,1.45,0,0,0-.75,2.21c.38.58.93.69,1.15.2.64.83,1.49-.95,1.55-1.69,0-.13-.17-.13-.21,0C27,61.05,26.3,63,25.88,62a.15.15,0,0,0-.29,0c-.07,1-.86-.18-.9-.48a1.18,1.18,0,0,1,1-1.33.14.14,0,0,0,.06-.23,1.81,1.81,0,0,1-.08-2.67,1.09,1.09,0,0,1,1.8.34s.1,0,.09,0C27.27,56.63,26.22,56.57,25.5,57.11Z"/><path class="cls-6" d="M23.43,76.45c-.36-.44-.88-1-1.53-.91a.94.94,0,0,0-.76,1c.05.8,1.15,1.88,1.86,1,.07-.08,0-.21-.11-.15a.83.83,0,0,1-1,0,1.3,1.3,0,0,1-.55-.84.71.71,0,0,1,.71-.87,2.09,2.09,0,0,1,1.3.75S23.45,76.48,23.43,76.45Z"/><path class="cls-6" d="M12.83,76a2,2,0,0,0-1.23-.61c-.07,0-.12,0-.09.12a2.47,2.47,0,0,0,1,1.1s.09,0,.07-.06a2.32,2.32,0,0,0-.44-.5,2.89,2.89,0,0,1-.38-.47,2.62,2.62,0,0,1,1.09.44S12.84,76,12.83,76Z"/><path class="cls-6" d="M29.42,69.55c-.51.38-1.44,1.07-2,.42-.8-.88.27-2.06,1-2.47,0,0,0,0,0,0A1.84,1.84,0,0,0,27.17,70c.57.83,1.88.31,2.37-.35C29.59,69.6,29.49,69.49,29.42,69.55Z"/><path class="cls-6" d="M29,64.34a1.1,1.1,0,0,0,.28,2s0,0,0,0a1.62,1.62,0,0,1-.67-.81.85.85,0,0,1,.61-1.08,2,2,0,0,1,2,1.36c0,.08.17.08.16,0A1.93,1.93,0,0,0,29,64.34Z"/><path class="cls-6" d="M13,58.12a.91.91,0,0,0-1.16.16c-.28.27-.65.94-.29,1.3s1,0,1.09-.39-.25-.56-.53-.28c-.06.06,0,.14.08.11.38-.17.27.23.07.38s-.43.19-.57,0a.52.52,0,0,1-.06-.44c.1-.45.58-1,1.09-.82s.4.89.11,1.25a1.63,1.63,0,0,1-1.14.63,1.1,1.1,0,0,1-1-1.66c.32-.67,1.2-1.64,1.91-.87,0,0,0,0,0,0-.69-1-1.77.19-2.08.9a1.22,1.22,0,0,0,1.22,1.79C12.52,60.11,13.94,58.84,13,58.12Z"/><path class="cls-6" d="M11.15,72.52a2.67,2.67,0,0,0-.91-1.38c-.24-.21-.72-.51-1-.29-.58.39.25,1.64.49,2s1.28,1.81,1.71.78A1.32,1.32,0,0,0,11.15,72.52Zm-.31,1.31c-.36,0-.7-.57-.87-.84a4.34,4.34,0,0,1-.77-1.57c-.14-.82.8-.36,1.12-.06a3.07,3.07,0,0,1,.78,1.09,2.43,2.43,0,0,0-1-.92.09.09,0,0,0-.12.07c-.13.63.51,1.18.93,1.56a.11.11,0,0,0,.17,0,.61.61,0,0,0,0-.3C11.24,73.2,11.46,73.89,10.84,73.83Zm-.16-1.3a.71.71,0,0,1,.18.34c-.31-.32-.94-1-.75-1.11s.49.4.69.67C10.73,72.38,10.63,72.46,10.68,72.53Z"/><path class="cls-6" d="M20,65.69c-1-.79-1.3.59-.94,1.33.17.35.75.93,1.13.47s-.1-.83-.46-.9c-.09,0-.16.12-.06.17A.69.69,0,0,1,20,67c-.06.58-.29.61-.68.08a1.36,1.36,0,0,1-.23-.71c0-.37.15-.81.6-.64a1,1,0,0,1,.36.29c.57.63.76,2.67-.62,2.21a1.67,1.67,0,0,1-1-1.89,1.7,1.7,0,0,1,1.73-1.47s0,0,0,0a1.75,1.75,0,0,0-1.9,1.85c0,.85.93,2.19,1.94,1.72S20.71,66.22,20,65.69Z"/><path class="cls-6" d="M27.31,57.8a.78.78,0,0,0-1.21-.07,1.74,1.74,0,0,0-.23,1.73v0A2,2,0,0,0,26,60.9a.66.66,0,0,0,1,.07A2.63,2.63,0,0,0,27.31,57.8Zm-1.19,2.8a2.16,2.16,0,0,1,0-1.07c0-.26.23-1.17.62-.78a1.32,1.32,0,0,1,.14.71.83.83,0,0,1,0,.35c-.11.14-.32,0-.17-.26,0-.07-.06-.16-.12-.09s-.39.89.07.92.46-.93.43-1.2-.17-.84-.6-.75-.5.58-.56.92a2.48,2.48,0,0,1,0-1.05c.21-.76,1.05-.91,1.4-.22a2.6,2.6,0,0,1-.06,2.32C27,60.84,26.42,61.32,26.12,60.6Z"/><path class="cls-6" d="M22.48,79.2c-.8.87-1.58-.28-1.6-1a.1.1,0,0,0-.16-.08.73.73,0,0,1-1.19-.42.1.1,0,0,0-.16,0c-.46.47-.75-.22-.89-.45a.1.1,0,0,0-.13,0,2,2,0,0,0-.82.84A.85.85,0,0,1,16,78c-.16-.24-.24-.52-.41-.76a0,0,0,0,0,0,0c.27.69.81,1.86,1.75,1.19a2,2,0,0,0,.43-.52,1.81,1.81,0,0,1,.3-.41c.39-.28.33-.07.5.16A.76.76,0,0,0,19,78c.15,0,.27-.1.37-.08s.39.49.76.54a1.93,1.93,0,0,0,.42,0c.2,0,.16-.12.18-.1s.1.4.14.48c.33.76,1.22,1.36,1.79.48C22.65,79.22,22.54,79.13,22.48,79.2Z"/><path class="cls-6" d="M20.53,75.58a.07.07,0,0,0-.13,0,2.31,2.31,0,0,1-.16.57c-.16.31-.79,1-1.1.15a.11.11,0,0,0-.18,0c-.3.4-.69.41-1.19,0a.12.12,0,0,0-.17,0,1.12,1.12,0,0,1-2.05-.88s0,0,0,0a1.23,1.23,0,0,0,.71,1.7,1.25,1.25,0,0,0,.93,0c.17-.08.26-.24.41-.33a.79.79,0,0,0,.18-.13s0,.08.22.11.24.09.43.07.43-.25.56-.24.29.32.54.34A1.14,1.14,0,0,0,20.53,75.58Z"/><path class="cls-6" d="M37.56,66.43a2.68,2.68,0,0,0-3.08-2.14c.61-.79-.58-1.78-1.48-1.27a.09.09,0,0,0,.09.15c.67-.34,2.06.45,1,1.18-.08.07,0,.21.08.18a2.55,2.55,0,0,1,3,1.3,2.06,2.06,0,0,1-1.28,2.85s-.06.07,0,.11c.22.56.25,1.1-.43,1.3a6.58,6.58,0,0,1-1.08.18c-.06,0-.1,0-.1.1-.09,1.24-.89,1.52-2,1.61a4.74,4.74,0,0,1-3.5-.89s-.11,0-.14,0a1.06,1.06,0,0,1-1.68.06.1.1,0,0,0-.16,0c-.44.45-.89-.15-1.1-.4a.1.1,0,0,0-.18.07,8.19,8.19,0,0,1,.07,3c-.46,1.78-2.61,1.67-3.55.32,0,0,0,0,0,0a2.1,2.1,0,0,0,3.25.71c.9-.93.64-2.48.49-3.68a1.18,1.18,0,0,0,.6.4c.2,0,.39-.14.53-.11s.42.3.72.33a2,2,0,0,0,.94-.26c.17-.08.11-.12.31-.07a7.18,7.18,0,0,1,.75.43,4.86,4.86,0,0,0,1.47.35,5.06,5.06,0,0,0,2.61-.31,1.27,1.27,0,0,0,.54-.51c.24-.41.06-.8.6-1s1.15-.07,1.38-.65c.13-.31-.14-.73,0-1a2.72,2.72,0,0,1,.5-.29,2.09,2.09,0,0,0,.43-.41A2,2,0,0,0,37.56,66.43Z"/><path class="cls-7" d="M13.86,55.06c-1-.06-2.32.94-3.13,1.49a7,7,0,0,0-2.81,3.06,3,3,0,0,0,.6,3.24c1.3,1.31,2.44,1.1,4.05.8-1,2.6,2.07,2.36,3.76,1.67,1.5-.61,3.53-1.79,3.26-3.71-.22-1.56-2.07-1.42-3.27-1.48.21-.92,1.06-1.55,1-2.6C17.15,56,15.71,55.24,13.86,55.06Z"/><path class="cls-7" d="M10.2,69.31a2.37,2.37,0,0,0-4.51.21,4.9,4.9,0,0,0,1.37,4.67,3.47,3.47,0,0,0,3.2.47C13,73.69,11.78,71,10.2,69.31Z"/><path class="cls-7" d="M22.38,52.19c-1.58.49-2.46,3.06-1.08,4.33.71.66,2.38-.2,2.82-.88C24.81,54.55,23.84,52.76,22.38,52.19Z"/><path class="cls-7" d="M18.8,55.06c0,.72,0,3.53,1,3.65C21.53,58.94,19.77,54.61,18.8,55.06Z"/><path class="cls-7" d="M29.86,67c-.87.66-2.39-.21-3-.88-1.43-1.5.23-3.13,1.76-3.71a5.85,5.85,0,0,1,6,1.54C36.9,66.27,33.08,68.07,29.86,67Z"/><path class="cls-7" d="M23.41,72.89c-.84-.66-.81-1.78-2.09-2.12s-1.9.12-2.06,1.41a5.77,5.77,0,0,0,2,4.6c2.16,1.76,3.45-.46,3.29-2.62Z"/><path class="cls-7" d="M16.41,75.2a2.69,2.69,0,0,0-.67,2.57.91.91,0,0,0,1,.38c1-.34.27-2,0-2.56Z"/><path class="cls-7" d="M31,60.31c-.53-.17-2-.05-2.14.68-.19,1.21,2.88.08,1.91-.6Z"/><path class="cls-4" d="M93.9,15.67C83,19.69,75.3,29.61,64.65,34.3c-1.19.52-2,.12-3.22,1.26-.93.89-.75,1.89-1.35,2.65-1.47,1.91-4.18,4.09-6.33,6C48.68,48.86,41.66,51,35.93,54.71c-2.74,1.76-8.77,4-10,7.3,4.3-.1,9.82-4.81,13.36-7.08,4.88-3.14,10.14-6.09,14.73-9.57a15.63,15.63,0,0,0-.78,1.91c4.87,2.44,11.62-9,14.58-10.7C77.23,31.28,85.46,22.72,93.9,15.67Z"/><path class="cls-4" d="M34.54,38.22c-5,1.59-3.15,9.05,2.79,2.78-.75,1.21-.68,2.5.6,3.11,2,1,4.79-2.34,5.86-3.45,6-6.16,9.49-14.44,16.82-19.37a11.11,11.11,0,0,0-1.38,2.55c2.65,1.11,5.61-1.6,7.41-3.24-1.83,3.41-4.57,11,2,7.36,6.3-3.52,12.64-12.85,15.43-19.4-5.19,3.32-8.16,11.27-14.28,13.56-.21-3.42,3.51-6.8,2.21-10.31-4.45-1.33-5.93,4.73-9,6.34.1-.63-.25-1.39-.2-2-5-1-11,8.42-13.78,11.69C46,31.37,40.85,36.92,34.54,38.22Z"/><path class="cls-4" d="M18.79,59.37c1.52-8.37-16.45,1.17-8.31,6.37-7-2.24-10.5,8.45-4.37,8.59-3.76,4.37,6.57,6,9.29,1.88-.06,2.08,1.9,2.52,3.69,2.19,2.79,8,14.39-3,8.59-7.15,2.74,5.31,4.89-1.75,5.58-3.53,1-2.51,2.68-2.73.6-5.79C31.26,58.1,24.58,59.93,18.79,59.37Z"/><path class="cls-4" d="M17.4,53.77c-1-3.67-6.16-4-8.18-.93-4.83,7.36,11.75,12,8.18.28Z"/><path class="cls-4" d="M35.61,74c5.63-2,.49-8.29-1-4.55-5.81-2.63-5.56,9-.9,6.92-1.37.45-2,1.54-1.32,2.81,2,3.58,6.3-2.29,7.1-3.57Z"/><path class="cls-4" d="M3.08,69.13c2,.85,2.53-1.66,2.25-3.38-.41-2.58-3.14-2.61-2.59-.51,0,0,.67-.9.65-.89-4.69-1.53-4.32,8.1-.1,8.7-2.47,3.7,2,9.32,4.16,5.68.28.19-.33.35.51.47,3.09-1.47.25-6.12-2.58-5.86,3.11-1.23.73-4.33-2-3.25Z"/><path class="cls-4" d="M23.05,81.69c1.88-2.82-3-4.43-2.18-.66.71-1.73-2-2.67-3.57-2-1.43-4.66-8,5.1-.73,4.33.06,4.8,5.93.56,7.59,0s3.08,1.48,5.44-.73c1.16-1.09,1.72-2.09,1.14-2.48,2.56-3.36-4.64-1.32-5.76-.71Z"/><path class="cls-8" d="M61.61,35.45c-2.33.28-3.87,2.66-5.33,4.24-.57.62-1.92,2.2-2.89,2.15-1.54-.07-.83-1-.56-1.35a5.23,5.23,0,0,0,.41-.63,1.35,1.35,0,0,0,.12-1,.2.2,0,0,0-.24-.13,15.49,15.49,0,0,0-8.29,6c-.68.88-1.24,1.85-2,2.67a2.66,2.66,0,0,1-.75.67c-.78.3-.89-.58-.79-1.18.14-.76.54-1.44.62-2.22a.14.14,0,0,0-.13-.14A4.45,4.45,0,0,0,39.09,46c-.35.37-2,2.82-2.44,2-.32-.61.82-2.45,1.05-3a3.37,3.37,0,0,0,.48-1.79.12.12,0,0,0-.14-.08C36,43.65,34.41,45.57,32.9,47c-1.77,1.63-3.07,3.92-5.22,5.09h0c2.24-.85,3.64-3.4,5.35-5a35.74,35.74,0,0,1,3.13-2.78c.26-.19,1.32-1,1.67-.89s-.17,1.08-.29,1.36c-.29.68-1.7,2.89-1,3.61s2.19-1.55,2.55-1.95a7.13,7.13,0,0,1,1.29-1.16c.26-.18.92-.73,1.21-.16.07.14-.3.81-.34.95-.23.62-.63,1.74.05,2.26,1,.73,2.19-1.14,2.64-1.75a24.06,24.06,0,0,1,5.24-5.65,12.51,12.51,0,0,1,2-1.15c.35-.17,2-1.15,1.79-.12-.18.72-1.15,1.16-.79,2,.69,1.69,3.27-.54,3.92-1.2,1-1,1.88-2.18,2.93-3.17.46-.43,1.26-1.29,1.94-1.34.52,0,.24.22.1.6s-.34.7-.47,1.07c0,.12.14.18.2.08a8.11,8.11,0,0,0,1-2.05A.2.2,0,0,0,61.61,35.45Z"/><path class="cls-8" d="M44.2,56.79c.8-.76,2.08-1.77,2-3a.19.19,0,0,0-.23-.18,18.43,18.43,0,0,0-4.13,1.67c-1.12.52-2.45,1.57-3.73,1.54s-.47-1-.1-1.68.76-1.19,1.13-1.79a5.77,5.77,0,0,0,1.11-3.07.18.18,0,0,0-.26-.15c-3.47,1.63-7,4.57-8.5,8.19,0,.06.07.1.1,0a17.89,17.89,0,0,1,8.3-7.8c-.17,2.3-2.41,4-3,6.16a.18.18,0,0,0,.09.21,3.36,3.36,0,0,0,2.92-.29c1.38-.63,2.71-1.38,4.09-2,.24-.1,1.32-.73,1.65-.6.17-.13.21-.1.13.09a1.2,1.2,0,0,1-.18.51,6.44,6.44,0,0,1-1.37,1.58,11.15,11.15,0,0,0-2.33,2.52A.19.19,0,0,0,42,59c.67.44,1.44,0,2.15-.32a25.42,25.42,0,0,0-3.16,4,.12.12,0,0,0,.19.14c1.32-1.4,2.44-3,3.75-4.41a.18.18,0,0,0-.17-.3c-.42.09-2.38,1-2.36.61S43.85,57.12,44.2,56.79Z"/><path class="cls-8" d="M76.27,27.27a.19.19,0,0,0-.23-.13c-1.19.25-1.85,1.76-2.31,2.75-.72,1.56-1.11,3.66-2.62,4.67-.85.57-1.9.53-2.83.9A9.11,9.11,0,0,0,65.94,37a44.39,44.39,0,0,0-4.58,4.72,39.88,39.88,0,0,1-4.24,4.38,9.82,9.82,0,0,1-1.94,1.33c-.62.28-.89.39-1.36-.44-.1-.17,0-.3-.16-.47-.66-.81-2.39.24-3,.63-1.66,1-3.13,2.71-5.2,2.82a0,0,0,1,0,0,0,6.65,6.65,0,0,0,3.78-1.56,15.46,15.46,0,0,1,2-1.3,4.08,4.08,0,0,1,1.17-.46c.42-.08.69-.38,1.1.36,0,.07,0,.19,0,.26.39.73.77.88,1.61.55A9.41,9.41,0,0,0,57.79,46c3-2.69,5.3-6.14,8.42-8.75a7.54,7.54,0,0,1,2.94-1.69,6,6,0,0,0,2.28-.81,7,7,0,0,0,2-3.28,19.49,19.49,0,0,1,1-2.23C74.68,28.85,75.81,27,76,28a6.72,6.72,0,0,1-.85,2.86c-.32.73-.69,1.45-1,2.17a.14.14,0,0,0,.24.14C75.32,31.6,76.57,29.2,76.27,27.27Z"/><path class="cls-8" d="M67.68,25.58a.18.18,0,0,0-.21-.12c-4.26.95-7.21,4.73-10.8,6.92-.62.38-1.25.75-1.9,1.07s-2.21,1.2-2.17,0a7.19,7.19,0,0,1,1.3-2.37c.52-.8,1.18-1.47,1.09-2.49a.16.16,0,0,0-.16-.15c-3.08-.32-5.88,2.84-7.77,4.86-1.19,1.27-2.31,2.6-3.59,3.78-1.83,1.7-3.85,3.18-5.65,4.9,0,0,0,0,0,0a62.17,62.17,0,0,0,8.39-7.32c2-2.18,4.43-5.27,7.48-5.88.5-.1,1-.27,1,.4,0,.45-.49,1-.74,1.31a19.84,19.84,0,0,0-1.09,1.76c-.26.45-1,1.54-.44,2s1.43-.07,1.89-.27a21.42,21.42,0,0,0,2.9-1.58,46.88,46.88,0,0,0,4.38-3.3,27.47,27.47,0,0,1,2.79-2,12.78,12.78,0,0,1,1.26-.68c.15-.07,2.42-1.12,1.58,0-.09.11.1.26.18.15A1,1,0,0,0,67.68,25.58Z"/><path class="cls-8" d="M27.63,46.48c-1.89.31-2.77,2.51-4.18,3.58-.36.28-1.33.92-1.74.56s.15-1.87.25-2.26A16.76,16.76,0,0,1,23.87,44a.12.12,0,0,0-.18-.14,30.82,30.82,0,0,0-6.58,9.6c0,.06.08.1.11,0a36.63,36.63,0,0,1,5.92-8.73l0,0L23,45.2c-.28.55-.53,1.11-.76,1.69a10.08,10.08,0,0,0-.79,3.94.12.12,0,0,0,.12.12c2.19.09,3.23-2.09,4.63-3.38.08-.08,1.21-1,1.33-.83s-.77,1.57-.85,1.74c-.27.61-.64,1.39-.13,2,.08.09.25,0,.18-.14-.7-1,.8-2.68,1.1-3.68A.13.13,0,0,0,27.63,46.48Z"/><path class="cls-8" d="M69.72,41A5.36,5.36,0,0,0,67,43.39c-.57,1-.09,2,1.13,1.09.71-.53.77-2.13-.11-1.07a.1.1,0,0,0,.15.14l.3,0a1,1,0,0,1-.68.73c-.39.17-.72.27-.79-.18s.39-.91.62-1.2a6.16,6.16,0,0,1,1.63-1.42c.46-.28,1-.54,1.28.17.18.49-.21,1.27-.43,1.67A9.07,9.07,0,0,1,68,45.76a11.43,11.43,0,0,1-2.24,1.54,3.62,3.62,0,0,1-1.47.43c-.83,0-1.06-.81-.75-1.48.79-1.73,2.88-2.63,3.38-4.53a.12.12,0,0,0-.09-.15C65.18,41,63,43.45,62,44.43a32.48,32.48,0,0,0-2.41,2.7A12.86,12.86,0,0,1,58,48.72c-.36.3-1.49,1.3-1.38.24a.14.14,0,0,0-.2-.12c-1,.72-1.64,1.82-2.61,2.58a2.71,2.71,0,0,1-2.09.63c-.74-.08-2.44-.59-1.43-1.76,0-.06,0-.13-.08-.08-1.11,1.18.51,2,1.61,2.08a3,3,0,0,0,2.28-.78,11.76,11.76,0,0,0,1.23-1.31q.3-.35.63-.66c.35-.32.36-.5.43.09a.14.14,0,0,0,.17.13c1.72-.34,2.94-2.18,4-3.44a21.42,21.42,0,0,1,3.87-3.68A6.83,6.83,0,0,1,65.56,42c.56-.24,1.35-.51.83.44A19.58,19.58,0,0,1,64,45.08c-.53.63-1.59,2.17-.5,2.78s3-.64,3.88-1.29c1.34-1,3-2.41,3.4-4.13C71,41.57,70.74,40.68,69.72,41Z"/><path class="cls-8" d="M91.93,25.38c-1.88.09-3,2.14-3.86,3.53a10,10,0,0,1-.92,1.32c-.13.14-.78.88-1,.78-.45-.17.1-.93.24-1.14.6-.91,1.53-1.49,1.68-2.65a.13.13,0,0,0-.1-.13c-1.86-.4-2.84,1.08-3.5,2.61a14.5,14.5,0,0,1-1.27,2.74c-1,1.46-2.79,2.75-4.66,2.43a0,0,0,0,0,0,.08c2.23.68,4.51-1.38,5.43-3.25.44-.92.71-1.91,1.21-2.8a3.17,3.17,0,0,1,1.39-1.46c.52-.22,1.17-.41,1,.55-.06.36-.54.72-.77,1s-1.48,1.56-1.07,2.12.85,0,1.16-.21c1.8-1.46,2.38-5.08,5.07-5.29C92.07,25.59,92.07,25.37,91.93,25.38Z"/><path class="cls-8" d="M84.73,20.34c-.38.35-2.55,2.33-2.42.87,0-.13-.14-.17-.24-.13a6.27,6.27,0,0,0-1.72,1.36c-.48.46-1.79,2-2.38,1.44-.39-.39,0-.64.3-1s.4-.49.56-.75a1.44,1.44,0,0,0,.33-1.23.15.15,0,0,0-.15-.11c-3.27.36-5.76,3.28-7.72,5.67-1.72,2.11-3.9,6.65-7.14,6.18,0,0,0,0,0,0,2.24.79,4.2-1.9,5.35-3.41,1.93-2.54,3.9-5.3,6.61-7a5,5,0,0,1,2.19-1c1.14-.05.09,1-.24,1.45s-1,1-.72,1.51c.7,1.54,3.75-2,4.21-2.37.76-.59.21-.24.54.19a.51.51,0,0,0,.53.21c.83,0,1.77-1.1,2.25-1.68A.1.1,0,0,0,84.73,20.34Z"/><path class="cls-8" d="M58.11,60.16A7.13,7.13,0,0,0,54,62c-.57.44-1.11.92-1.71,1.33a4.24,4.24,0,0,1-1.16.64c-.75.23-.86.18-.49-.58a.19.19,0,0,0-.16-.27c-1.34-.11-2.61,1.67-3.55,2.39a5.64,5.64,0,0,1-4.33,1.21c-2-.48-1.07-2.26.29-2.8,0,0,0,0,0,0-2,.38-2.39,2.69-.21,3.12A5.91,5.91,0,0,0,47,65.84c.87-.63,2-2.25,3.19-2.38-.08.21-.16.42-.25.64s0,.19.13.22c1,.37,2.11-.5,2.88-1.09,1.56-1.19,3.09-2.6,5.12-2.85C58.24,60.36,58.25,60.16,58.11,60.16Z"/><path class="cls-2" d="M35.84,59.62a.34.34,0,0,0,0,.67A.34.34,0,0,0,35.84,59.62Z"/><path class="cls-2" d="M37.92,58.74a.13.13,0,0,0,0,.25A.13.13,0,1,0,37.92,58.74Z"/><path class="cls-2" d="M45.38,51.94a.36.36,0,0,0,0,.72A.36.36,0,0,0,45.38,51.94Z"/><path class="cls-2" d="M47.77,50.42a.19.19,0,0,0,0,.38A.19.19,0,0,0,47.77,50.42Z"/><path class="cls-2" d="M48.46,44.55a.71.71,0,0,0,.5,1.19h.1a.61.61,0,0,0,.59-.6V45A.71.71,0,0,0,48.46,44.55Z"/><path class="cls-2" d="M52.81,43.15a1.22,1.22,0,0,0-1.26.2.75.75,0,1,0,.76,1.29,1.33,1.33,0,0,0,.77-1A.51.51,0,0,0,52.81,43.15Z"/><path class="cls-2" d="M50.87,42.36a.54.54,0,0,0,.11.35.31.31,0,0,0,.53,0,.54.54,0,0,0,.11-.35C51.64,41.88,50.84,41.88,50.87,42.36Z"/><path class="cls-2" d="M32.85,56.82a.45.45,0,0,0,0,.9A.45.45,0,0,0,32.85,56.82Z"/><path class="cls-2" d="M34.74,55.27a.41.41,0,0,0,0,.82A.41.41,0,0,0,34.74,55.27Z"/><path class="cls-2" d="M33.3,52.58a.69.69,0,0,0-1.2.67A.69.69,0,0,0,33.3,52.58Z"/><path class="cls-2" d="M34.94,47.16a.57.57,0,0,0,0,1.14A.57.57,0,0,0,34.94,47.16Z"/><path class="cls-2" d="M20.83,62.67a.37.37,0,0,0,0,.73A.37.37,0,0,0,20.83,62.67Z"/><path class="cls-2" d="M22.42,61.6a.35.35,0,0,0,0,.69A.35.35,0,0,0,22.42,61.6Z"/><path class="cls-2" d="M22.91,63.08a1,1,0,0,0,0,1.9A1,1,0,0,0,22.91,63.08Z"/><path class="cls-2" d="M15.16,65.36a.36.36,0,0,0,0,.72A.36.36,0,0,0,15.16,65.36Z"/><path class="cls-9" d="M14.07,57.08a1.19,1.19,0,1,0,0,2.37,1.19,1.19,0,0,0,0-2.37Z"/><path class="cls-9" d="M11.31,58.77l0,.07a.16.16,0,0,0,.26,0l.05-.07C11.92,58.39,11.05,58.39,11.31,58.77Z"/><path class="cls-9" d="M14.07,61.47a.38.38,0,0,0,0,.75A.38.38,0,0,0,14.07,61.47Z"/><path class="cls-9" d="M15.16,60.9a.25.25,0,0,0,0,.5A.25.25,0,0,0,15.16,60.9Z"/><path class="cls-9" d="M13.37,75.5a.36.36,0,0,0,0,.72A.36.36,0,0,0,13.37,75.5Z"/><path class="cls-9" d="M9.77,76.3l0,0a.22.22,0,0,0,.1.38h.1a.25.25,0,0,0,.15-.1A.23.23,0,0,0,9.77,76.3Z"/><path class="cls-9" d="M13.07,67.44a.47.47,0,0,0,0,.93A.47.47,0,0,0,13.07,67.44Z"/><path class="cls-9" d="M13.27,68.84a.36.36,0,0,0,0,.72A.36.36,0,0,0,13.27,68.84Z"/><path class="cls-9" d="M23.11,61.5a.25.25,0,0,0,0,.49A.25.25,0,0,0,23.11,61.5Z"/><path class="cls-9" d="M23.71,62.39a.25.25,0,0,0,0,.5A.25.25,0,0,0,23.71,62.39Z"/><path class="cls-9" d="M38.72,63.34a1,1,0,0,0-1,1,1,1,0,0,0,1,1,1,1,0,0,0,0-2Z"/><path class="cls-9" d="M41.15,64.08l-.1,0c-.28-.06-.28.39,0,.34l.1,0C41.3,64.35,41.3,64.1,41.15,64.08Z"/><path class="cls-9" d="M33.7,59a.81.81,0,0,0,0,1.61A.81.81,0,0,0,33.7,59Z"/><path class="cls-9" d="M35.76,58.25c-.29-.17-.52.32-.19.45S36,58.39,35.76,58.25Z"/><path class="cls-9" d="M44.19,52.66a.34.34,0,0,0,0,.67A.34.34,0,0,0,44.19,52.66Z"/><path class="cls-9" d="M46.77,51.77a0,0,0,0,0,0,.06A0,0,0,0,0,46.77,51.77Z"/><path class="cls-9" d="M39.42,42.62a.24.24,0,0,0,0,.47A.24.24,0,0,0,39.42,42.62Z"/><path class="cls-9" d="M41.18,41.18l0,0c-.22-.41-.79.15-.38.38l.06,0A.26.26,0,0,0,41.18,41.18Z"/><circle class="cls-9" cx="52.44" cy="50.41" r="0.82"/><path class="cls-9" d="M54.37,49.42l-.12.07c-.21.12.08.42.21.2l.06-.12A.11.11,0,0,0,54.37,49.42Z"/><path class="cls-9" d="M53.36,47.9a1.16,1.16,0,0,0-1-.83A1.28,1.28,0,0,0,51,48a.61.61,0,0,0,0,.3.81.81,0,0,0,.41.77,1.5,1.5,0,0,0,1.45.08A1.12,1.12,0,0,0,53.36,47.9Z"/><path class="cls-9" d="M55.82,44.18a.37.37,0,0,0,0,.73A.37.37,0,0,0,55.82,44.18Z"/><path class="cls-9" d="M64.85,35.52a1.55,1.55,0,0,0-.6-.18.86.86,0,0,0-.77.43,2.67,2.67,0,0,0-.74.34,1.91,1.91,0,0,0-.83,2,.91.91,0,0,0,.85.65,2.94,2.94,0,0,0,2.56-2.43A.91.91,0,0,0,64.85,35.52Z"/><path class="cls-9" d="M62.68,34.94a.26.26,0,0,0,0,.52A.26.26,0,0,0,62.68,34.94Z"/><path class="cls-9" d="M77.28,43.33c-.4.11-1,.07-1.06.62a.18.18,0,0,0,.17.18c.47,0,.58-.54.91-.75A0,0,0,0,0,77.28,43.33Z"/><path class="cls-9" d="M57.36,53.83l-.07,0a.36.36,0,1,0,0,.62l.07,0A.31.31,0,0,0,57.36,53.83Z"/><path class="cls-9" d="M78.38,42l0,.08a.07.07,0,0,0,.13,0l0-.08C78.71,41.8,78.26,41.8,78.38,42Z"/><path class="cls-9" d="M76.85,42.1l-.11.08c-.11.09,0,.25.13.13L77,42.2C77,42.14,76.91,42.05,76.85,42.1Z"/><path class="cls-9" d="M78.78,43.69a.39.39,0,0,0-.77-.1v0c-.13.59.8.69.78.11Z"/><path class="cls-9" d="M83,40a0,0,0,0,0,0,.06S83,40,83,40Z"/><path class="cls-9" d="M84.06,35.59l0-.05a.24.24,0,0,0-.32,0l0,.05a.3.3,0,1,0,.42,0Z"/><path class="cls-9" d="M86.63,34.18a0,0,0,0,0,0,.06A0,0,0,0,0,86.63,34.18Z"/><path class="cls-9" d="M88.42,32.49a0,0,0,1,0,0,.06A0,0,0,0,0,88.42,32.49Z"/><path class="cls-9" d="M91.5,28.22a.42.42,0,0,0,0,.84A.42.42,0,0,0,91.5,28.22Z"/><path class="cls-9" d="M93.89,26.17a.29.29,0,0,0,0,.57A.29.29,0,0,0,93.89,26.17Z"/><path class="cls-9" d="M96,24.43a.34.34,0,0,0,0,.67A.34.34,0,0,0,96,24.43Z"/><path class="cls-9" d="M93.89,28.2a.35.35,0,0,0,0,.69A.35.35,0,0,0,93.89,28.2Z"/><path class="cls-9" d="M93.06,27.43A.52.52,0,0,0,92.4,27a.63.63,0,0,0-.4.31.58.58,0,0,0,.42.86C92.77,28.16,93.18,27.81,93.06,27.43Z"/><path class="cls-9" d="M90.31,38.26a.33.33,0,0,0,0,.65A.33.33,0,0,0,90.31,38.26Z"/><path class="cls-9" d="M93,35.17a0,0,0,1,0,0,.06S93,35.17,93,35.17Z"/><path class="cls-9" d="M93.59,34.38a0,0,0,0,0,0,.06A0,0,0,1,0,93.59,34.38Z"/><path class="cls-9" d="M93.29,35.47a0,0,0,0,0,0,.06A0,0,0,0,0,93.29,35.47Z"/><path class="cls-9" d="M58.5,55a.39.39,0,0,0,0,.78A.39.39,0,0,0,58.5,55Z"/><path class="cls-9" d="M62,53.69a.4.4,0,0,0,0,.8A.4.4,0,0,0,62,53.69Z"/><path class="cls-9" d="M71.13,50a.52.52,0,0,0,0,1A.52.52,0,0,0,71.13,50Z"/><path class="cls-9" d="M63,50.92a.49.49,0,0,0,0,1A.49.49,0,0,0,63,50.92Z"/><path class="cls-9" d="M52.54,63.76a.87.87,0,1,0,0,1.73.87.87,0,0,0,0-1.73Z"/><path class="cls-9" d="M61.68,61.16a.49.49,0,0,0,0,1A.49.49,0,0,0,61.68,61.16Z"/><path class="cls-9" d="M67.05,59.32a.54.54,0,0,0,0,1.07A.54.54,0,0,0,67.05,59.32Z"/><path class="cls-9" d="M71.72,24a.42.42,0,0,0,0,.84A.42.42,0,0,0,71.72,24Z"/><path class="cls-9" d="M74.21,22.55a0,0,0,1,0,0,.06A0,0,0,1,0,74.21,22.55Z"/><path class="cls-9" d="M85.48,10.94a.24.24,0,0,0-.2,0,.47.47,0,0,0-.2.26.42.42,0,0,0,.69.4A.41.41,0,0,0,85.48,10.94Z"/><path class="cls-9" d="M88.42,8.15a.32.32,0,0,0,0,.63A.32.32,0,0,0,88.42,8.15Z"/><path class="cls-9" d="M87,6.47a.3.3,0,0,0,0,.6A.3.3,0,0,0,87,6.47Z"/><path class="cls-9" d="M87.37,9a.81.81,0,0,0-1.25.16l0,0c-.47.68.43,1.43,1.07,1.08l0,0A.8.8,0,0,0,87.37,9Z"/><path class="cls-9" d="M88.62,6.37a.21.21,0,0,0,0,.41A.21.21,0,0,0,88.62,6.37Z"/><path class="cls-9" d="M90.11,4.93a.25.25,0,0,0,0,.5A.25.25,0,0,0,90.11,4.93Z"/><path class="cls-9" d="M61.89,22.75l0,0a.35.35,0,0,0,0,.37l0,0a.45.45,0,1,0,0-.45Z"/><path class="cls-9" d="M61.28,25h-.09c-.81-.08-.81,1.32,0,1.24h.09A.62.62,0,0,0,61.28,25Z"/><path class="cls-9" d="M62.78,24.52a.35.35,0,0,0,0,.69A.35.35,0,0,0,62.78,24.52Z"/><path class="cls-9" d="M64.47,21.85a.93.93,0,1,0,.92.93A.94.94,0,0,0,64.47,21.85Z"/><path class="cls-9" d="M66.65,17.84a.37.37,0,0,0,0,.73A.37.37,0,0,0,66.65,17.84Z"/><path class="cls-9" d="M69.63,17.4a.11.11,0,0,0,0,.22A.11.11,0,1,0,69.63,17.4Z"/><path class="cls-9" d="M67.75,20.86a0,0,0,0,0,0,.06S67.78,20.86,67.75,20.86Z"/><path class="cls-9" d="M58.4,22.32a.36.36,0,0,0,0,.71A.36.36,0,0,0,58.4,22.32Z"/><path class="cls-9" d="M55.62,27.15a.5.5,0,0,0,0,1A.5.5,0,0,0,55.62,27.15Z"/><path class="cls-9" d="M70.23,13.4a.33.33,0,0,0,0,.66A.33.33,0,0,0,70.23,13.4Z"/><path class="cls-9" d="M70.47,15.2a.76.76,0,0,0,0,1.52A.76.76,0,0,0,70.47,15.2Z"/><path class="cls-9" d="M67.28,15.71c-.29.51.55.9.77.32S67.52,15.3,67.28,15.71Z"/><path class="cls-9" d="M96.78,13.32a.81.81,0,0,0-1.27.17l-.05.08a.79.79,0,0,0,1.08,1.07l.08,0A.83.83,0,0,0,96.78,13.32Z"/><path class="cls-9" d="M98.16,11.26a.39.39,0,0,0,0,.77A.39.39,0,0,0,98.16,11.26Z"/><path class="cls-9" d="M100.45,12a.23.23,0,0,0,0,.46A.23.23,0,0,0,100.45,12Z"/><path class="cls-9" d="M96.08,17.31a.5.5,0,0,0,0,1A.5.5,0,0,0,96.08,17.31Z"/><path class="cls-9" d="M94.46,19.62l0,0a.45.45,0,0,0-.5-.2l-.05,0a.42.42,0,0,0-.1.75l.09.06C94.21,20.45,94.7,20,94.46,19.62Z"/><path class="cls-9" d="M97.67,16a.32.32,0,0,0,0,.63A.32.32,0,0,0,97.67,16Z"/><path class="cls-9" d="M96,19.18l-.08,0a.76.76,0,1,0,0,1.31l.08,0A.71.71,0,0,0,96,19.18Z"/><path class="cls-9" d="M89.12,15.55a.37.37,0,0,0,0,.73A.37.37,0,0,0,89.12,15.55Z"/><path class="cls-9" d="M91.21,13.12a.51.51,0,0,0,0,1A.51.51,0,0,0,91.21,13.12Z"/><path class="cls-9" d="M90.51,9.11a.75.75,0,0,0,0,1.49A.75.75,0,0,0,90.51,9.11Z"/><path class="cls-9" d="M94.27,7.45a.61.61,0,0,0-.22-.23.41.41,0,0,0-.56.15l0,0a.34.34,0,0,0,0,.4C93.65,8.4,94.62,8,94.27,7.45Z"/><path class="cls-9" d="M92.9,10.43a.32.32,0,0,0,0,.64A.32.32,0,0,0,92.9,10.43Z"/><path class="cls-9" d="M82.16,38.35a.53.53,0,0,0,0,1.06A.53.53,0,0,0,82.16,38.35Z"/><path class="cls-9" d="M86.43,36.17a.73.73,0,0,0,0,1.45A.73.73,0,0,0,86.43,36.17Z"/><path class="cls-9" d="M93.89,31.38a.74.74,0,0,0,0,1.48A.74.74,0,0,0,93.89,31.38Z"/><path class="cls-9" d="M91.26,34.46l-.06,0c-.69.6.41,1.7,1,1l0,0A.7.7,0,0,0,91.26,34.46Z"/><path class="cls-9" d="M93.79,33.66a.35.35,0,0,0,0,.69A.35.35,0,0,0,93.79,33.66Z"/><path class="cls-9" d="M86.53,40a.53.53,0,0,0,0,1.06A.53.53,0,0,0,86.53,40Z"/><path class="cls-9" d="M84.15,41.78a.58.58,0,0,0,0,1.16A.58.58,0,0,0,84.15,41.78Z"/><path class="cls-9" d="M75,19.85a.44.44,0,0,0,0,.88A.44.44,0,0,0,75,19.85Z"/><path class="cls-9" d="M77.09,18.07a.53.53,0,0,0,0,1.06A.53.53,0,0,0,77.09,18.07Z"/><path class="cls-9" d="M74,14.37a.85.85,0,0,0,0,1.7A.85.85,0,0,0,74,14.37Z"/><path class="cls-9" d="M75.92,11.83l-.07-.05a.3.3,0,0,0-.45.26.3.3,0,0,0,.45.26l.07-.05A.24.24,0,0,0,75.92,11.83Z"/><path class="cls-9" d="M77.59,12a.35.35,0,0,0,0,.69A.35.35,0,0,0,77.59,12Z"/><path class="cls-9" d="M76.39,15.14a.68.68,0,0,0,0,1.36A.68.68,0,0,0,76.39,15.14Z"/><path class="cls-9" d="M38.72,34.32a.65.65,0,0,0-.38.31.55.55,0,1,0,1,.22A.52.52,0,0,0,38.72,34.32Z"/><path class="cls-9" d="M41.93,34.09l0-.07a.34.34,0,0,0-.22-.22h-.07a.44.44,0,0,0-.43.73A.45.45,0,0,0,41.93,34.09Z"/><path class="cls-9" d="M36.09,39.09l0,0a.26.26,0,1,0,0,.26l0,0A.19.19,0,0,0,36.09,39.09Z"/><path class="cls-9" d="M35.58,39.11a1.31,1.31,0,0,0-1.74.1,1.55,1.55,0,0,0-.42,1.44,1.28,1.28,0,0,0,1.2,1,1.52,1.52,0,0,0,1.3-.78A1.33,1.33,0,0,0,35.58,39.11Z"/><path class="cls-9" d="M38.11,38.61l-.08,0a.38.38,0,0,0,0,.66l.08,0a.43.43,0,1,0,0-.74Z"/><path class="cls-9" d="M37.23,41a.43.43,0,0,0,0,.85A.43.43,0,0,0,37.23,41Z"/><path class="cls-9" d="M34.84,51.48a.42.42,0,0,0,0,.84A.42.42,0,0,0,34.84,51.48Z"/><path class="cls-9" d="M37.53,50.08a0,0,0,0,0,0,.06A0,0,0,0,0,37.53,50.08Z"/><path class="cls-9" d="M33.55,55.35a.33.33,0,0,0,0,.66A.33.33,0,0,0,33.55,55.35Z"/><path class="cls-9" d="M37.63,74.66a.11.11,0,1,0,0,.21A.11.11,0,0,0,37.63,74.66Z"/><path class="cls-9" d="M37.71,76.15l0,0a.3.3,0,1,0,0,.3l0,0A.2.2,0,0,0,37.71,76.15Z"/><path class="cls-9" d="M39.81,75a0,0,0,0,0,0,.06A0,0,0,0,0,39.81,75Z"/><path class="cls-9" d="M33.15,76.46a.59.59,0,0,0,0,1.18A.59.59,0,0,0,33.15,76.46Z"/><path class="cls-9" d="M30,78.63a.51.51,0,0,0,0,1A.51.51,0,0,0,30,78.63Z"/><path class="cls-9" d="M19,80.55a.58.58,0,0,0,0,1.16A.58.58,0,0,0,19,80.55Z"/><path class="cls-9" d="M17.14,80a.3.3,0,1,0-.37.37h0a.19.19,0,0,0,.34,0A.53.53,0,0,0,17.14,80Z"/><path class="cls-9" d="M14.66,79.71s0,.06,0,.06A0,0,0,1,0,14.66,79.71Z"/><path class="cls-9" d="M14.56,79.9s0,.06,0,.06A0,0,0,1,0,14.56,79.9Z"/><path class="cls-9" d="M14.17,81.3a0,0,0,1,0,0,.06A0,0,0,1,0,14.17,81.3Z"/><path class="cls-9" d="M16.25,82.25a.37.37,0,0,0,0,.74A.37.37,0,0,0,16.25,82.25Z"/><path class="cls-9" d="M18,83.68s0,.06,0,.06A0,0,0,1,0,18,83.68Z"/><path class="cls-9" d="M19.14,83a.66.66,0,0,0,0,1.31A.66.66,0,0,0,19.14,83Z"/><path class="cls-9" d="M21.32,82.46a.46.46,0,0,0,0,.91A.46.46,0,0,0,21.32,82.46Z"/><path class="cls-9" d="M17.84,82.06a.26.26,0,0,0,0,.52A.26.26,0,0,0,17.84,82.06Z"/><path class="cls-9" d="M25.1,81.12a.8.8,0,0,0,0,1.6A.8.8,0,0,0,25.1,81.12Z"/><path class="cls-9" d="M27.09,80.14a.49.49,0,0,0,0,1A.49.49,0,0,0,27.09,80.14Z"/><path class="cls-9" d="M27.91,82l-.07,0a.3.3,0,1,0,0,.52l.07,0A.25.25,0,0,0,27.91,82Z"/><path class="cls-9" d="M15,79.31a.53.53,0,0,0,0,1A.53.53,0,0,0,15,79.31Z"/><path class="cls-9" d="M21.32,78.88a.56.56,0,0,0,0,1.12A.56.56,0,0,0,21.32,78.88Z"/><path class="cls-9" d="M7.51,77.45a.19.19,0,1,0,0,.39A.19.19,0,0,0,7.51,77.45Z"/><path class="cls-9" d="M9.4,77.25a.4.4,0,0,0,0,.8A.4.4,0,0,0,9.4,77.25Z"/><path class="cls-9" d="M5,73.16a.32.32,0,0,0,0,.63A.32.32,0,0,0,5,73.16Z"/><path class="cls-9" d="M4.23,69.58l0,0a.32.32,0,1,0,0,.32l0,0A.24.24,0,0,0,4.23,69.58Z"/><path class="cls-9" d="M5,69.57a0,0,0,1,0,0,.06A0,0,0,0,0,5,69.57Z"/><path class="cls-9" d="M3,67.38a.23.23,0,0,0,0,.45A.23.23,0,0,0,3,67.38Z"/><path class="cls-9" d="M4.79,66l0,0a.23.23,0,0,0-.25,0l0,0a.33.33,0,1,0,.34,0Z"/><path class="cls-9" d="M1.54,68.94a1,1,0,0,0,0,1.91,1,1,0,0,0,0-1.91Z"/><path class="cls-9" d="M2.34,65a.4.4,0,0,0,0,.8A.4.4,0,0,0,2.34,65Z"/><path class="cls-9" d="M5.12,74.6a.66.66,0,0,0,0,1.32A.66.66,0,0,0,5.12,74.6Z"/><path class="cls-9" d="M5,76.9A.55.55,0,0,0,5,78,.55.55,0,0,0,5,76.9Z"/><path class="cls-9" d="M10.69,54a.39.39,0,0,0,0,.78A.39.39,0,0,0,10.69,54Z"/><path class="cls-9" d="M12.87,53.33a.37.37,0,0,0,0,.73A.37.37,0,0,0,12.87,53.33Z"/><path class="cls-9" d="M13.09,55.24l0,0a.56.56,0,1,0,0,.56l0,0A.51.51,0,0,0,13.09,55.24Z"/><path class="cls-9" d="M16,54.56a0,0,0,1,0,0,.06S16,54.56,16,54.56Z"/><circle class="cls-9" cx="11.98" cy="51.8" r="0.89"/><path class="cls-9" d="M15.26,52.16a.34.34,0,0,0,0,.67A.34.34,0,0,0,15.26,52.16Z"/><path class="cls-9" d="M5.52,61.81a.53.53,0,0,0,0,1.06A.53.53,0,0,0,5.52,61.81Z"/><path class="cls-9" d="M6.11,58.58a.78.78,0,0,0,0,1.55A.78.78,0,0,0,6.11,58.58Z"/><path class="cls-9" d="M34,78.9A.54.54,0,0,0,34,80,.54.54,0,0,0,34,78.9Z"/><path class="cls-9" d="M31.07,75.9a.26.26,0,0,0,0,.52A.26.26,0,0,0,31.07,75.9Z"/><path class="cls-9" d="M34,74.1a.67.67,0,0,0,0,1.33A.67.67,0,0,0,34,74.1Z"/><path class="cls-9" d="M36.29,76.69h-.1a.6.6,0,0,0-.75.57.61.61,0,0,0,.75.58l.1,0A.59.59,0,0,0,36.29,76.69Z"/><path class="cls-9" d="M30.07,73.48l0,0a.5.5,0,0,0,0,.5l0,0a.58.58,0,1,0,0-.58Z"/><path class="cls-9" d="M38.32,71.9a.18.18,0,0,0,0,.36A.18.18,0,0,0,38.32,71.9Z"/><path class="cls-9" d="M41.6,70.3a.39.39,0,0,0,0,.78A.39.39,0,0,0,41.6,70.3Z"/><path class="cls-9" d="M39.56,68.93a1.45,1.45,0,0,0-.55,0,.82.82,0,0,0-.56,1,.79.79,0,0,0,.89.55.77.77,0,0,0,.78-.56A.8.8,0,0,0,39.56,68.93Z"/><path class="cls-9" d="M16.35,49.75a.56.56,0,0,0,0,1.12A.56.56,0,0,0,16.35,49.75Z"/><path class="cls-9" d="M17.75,47.25a.38.38,0,0,0,0,.76A.38.38,0,0,0,17.75,47.25Z"/><path class="cls-9" d="M16.17,46.85H16.1a.92.92,0,1,0,.22,1.68l.07,0A.91.91,0,0,0,16.17,46.85Z"/><path class="cls-9" d="M20,44.31a.44.44,0,0,0,0,.87A.44.44,0,0,0,20,44.31Z"/><path class="cls-9" d="M22,42.44a.32.32,0,0,0,0,.63A.32.32,0,0,0,22,42.44Z"/></g></g></g></svg>