<svg xmlns="http://www.w3.org/2000/svg" viewBox="0 0 68.84 68.84"><defs><style>.cls-1{isolation:isolate;}.cls-2{fill:#8d705c;}.cls-3{fill:#5c2000;}.cls-10,.cls-11,.cls-12,.cls-3,.cls-5,.cls-7,.cls-9{opacity:0.72;}.cls-4,.cls-5,.cls-6{fill:#96c4d1;}.cls-4{opacity:0.89;}.cls-6,.cls-8{opacity:0.83;}.cls-7{fill:#f2902b;}.cls-8{fill:#205673;}.cls-15,.cls-17,.cls-18,.cls-8{mix-blend-mode:overlay;}.cls-9{fill:#c6aa89;}.cls-10{fill:#edd8ab;}.cls-11{fill:#913e12;}.cls-12,.cls-14{mix-blend-mode:multiply;}.cls-13{fill:#9f9cad;}.cls-14{opacity:0.46;}.cls-15{opacity:0.3;}.cls-16{fill:#faeccf;}.cls-17{opacity:0.44;}.cls-18{fill:#05afea;opacity:0.21;}</style></defs><g class="cls-1"><g id="Camada_2" data-name="Camada 2"><g id="icons_planets"><circle class="cls-2" cx="34.42" cy="34.42" r="34.41" transform="matrix(0.85, -0.53, 0.53, 0.85, -12.97, 23.3)"/><path class="cls-3" d="M68.76,32.16h-.37l.33-.49a34.38,34.38,0,0,0-5.38-15.88C57.15,12.72,48.63,12.58,43,12.23l-35.39,1-.26.05a34.4,34.4,0,0,0-.62,41.53c6.39,2.09,12.51,3.82,19.48,4.34,6.79.5,13.83,0,20.65,0a28.11,28.11,0,0,0,6.49-.31c3-.73,4.92-2.89,7.51-4.48a11.56,11.56,0,0,1,2.48-1.16,34.44,34.44,0,0,0,5.47-21Z"/><path class="cls-4" d="M59.35,10.71a27.63,27.63,0,0,0-7.77-.47c-2.07.1-4.46-.31-6.57-.1-.55,0-.89-.72-1.51-.62s-.87,1.2-1.6,1.34c-1.18.22-2.42-.1-3.61.17-2.84.65-3.74,1.14-6.53.89-3-.26-5.92-.78-9-1.18-2-.25-3.53.38-5.5.27s-3.21-1.33-5.07-1.36a10.7,10.7,0,0,0-2,.25,33.83,33.83,0,0,0-4.7,5.74l1-.1c3.72,4.14,5.09,0,9,.2,2.5.11,6.58,5.76,8,1.33a15.47,15.47,0,0,0,1.63.26c.12-.33.09-.6.24-.94,3.18.66,12.11,5.65,14.93,3.3,2.09-1.74-.19-2.29,2.64-3.14a12.73,12.73,0,0,1,5.4.33c1.17-1.6,6.54-1.37,8.43-1s5.46,3.27,7,2.66c.08.74.79,1.37.91,2a5.15,5.15,0,0,0,.91-.42A34.63,34.63,0,0,0,59.35,10.71Z"/><path class="cls-5" d="M67.76,25.9c-.26-1-.57-2-.92-3a5.65,5.65,0,0,1-2.55-.07c-1.38-.5-2.32-2.44-3.8-3-4.06-1.5-8.71-.21-12.76,0-1.2.07-2.38-.61-3.64-.33s-1.58,1.17-2.49,1.53a16.34,16.34,0,0,1-8.15,1c-1.24-.2-2.46-1.13-3.73-.93-1.5.24-2.12,2-4,1.89-1.54-.09-1.76-1.24-3-1.62-1.48-.45-2.6.14-4,0s-2.4-1.1-3.5-1.18c-1.5-.12-2.66.7-4,.71-3.35,0-5.49-1.38-7.66-1.75a35.59,35.59,0,0,0-2.31,6.12c1.81-.78,3.81-1.83,5-1.59-.33,2.76,3.56,3.32,5.41,2.54.29,6.06,8.62-.37,10.73-.36s11.36,7.48,12.36,2.57a2.14,2.14,0,0,0,3.42.59c1.08.86,4.31,1.19,5.68.69,1.82-.68,2.55-3.24,4.52-3.54,2.89-.44,7.09,4.12,9.19-.53C57.74,28.52,64.57,28.25,67.76,25.9Z"/><path class="cls-6" d="M68.64,30.82c-5.59-.71-11.15.54-16.59,1.85-2.38.58-10.77-.1-11.07,1.52a6.86,6.86,0,0,0-4.12-.61c-.57.14-1.67,1.55-2,1.54-1.35-.06-1.61-1.54-3.12-2-1.88-.57-2.63.63-4.29.83-2.76.33-5-.58-8-.05-4,.73-5.47.66-11,.33-2.44.25-5.82-1.5-8.48-1.31a34,34,0,0,0,1,9.8c3.21.67,6.9.38,10,1.15A54.64,54.64,0,0,0,30.2,45.08c3.63-.49,5.36-1.13,8.53.38,1.74.83,3.77,2.16,6.06.59,1.06,2.73,4.08.27,6.05.21s3.29.29,5.67-.25c3.41-.76,7.77-1.53,11.29-3.26l.12-.47A34.32,34.32,0,0,0,68.64,30.82Z"/><path class="cls-5" d="M64.25,51.57c-3-.28-6.94,2.36-9.23,2.42-1.24-2.37-7.83,1.48-10.5,1-1.92-.34-3.17-2.15-4.86-2.25s-4.46,1.46-6.35,1.76c-1.56.25-3.38.83-4.88.18-.67-.28-1.46-1.82-2.09-2-1.11-.24-1.13.54-2.3.8-3.9.85-11,3.3-15-.13a12.21,12.21,0,0,0-2.81.77,34.61,34.61,0,0,0,5.25,5.91,11.32,11.32,0,0,0,4.82-1.86c.45,2.06,2.46,2,4.22,2.2,1,.09,1.95-.31,2.73-.2a35.7,35.7,0,0,1,3.79,1.17c3.66,1.05,6.58.6,10.37-.06,1.71-.29,5.32-1.72,6.85-1.41,1.35.28,2.36,1.85,4.15,2.37a18.36,18.36,0,0,0,5.45.5A34.37,34.37,0,0,0,64.25,51.57Z"/><path class="cls-7" d="M18.4,54c-3.35,1.9-13.63.49-9-5.19,2.61-3.22,11.32-3.66,14-.47,3,3.48-1.18,4.08-4.06,5Z"/><path class="cls-7" d="M53.78,55c-1.32-1.2-3.18-.26-4.72.37a3.74,3.74,0,0,0,0,1.49c1.68.76,3.59,1.09,5-.27Z"/><path class="cls-7" d="M66.22,46c1.06-2.53-2.69-2.34-3.84-.75.55-4.21-5.2-4.13-7.31-1.93-2.15-1.18-4.61-.26-6.39,1.28C47,42.07,44,42.93,41.75,44.08c-1.41-4.72-12.79-2.26-15.4.35C21.9,48.89,35.53,49,38.19,47.74c-.21,4.79,6.68,1.08,8.33-.08,2,1.48,4.29,1.65,5.92-.32,1,1.72,3.91.9,4.76-.66C58.78,49.65,66.14,51.17,66.22,46Z"/><path class="cls-7" d="M67.11,23.68c-1.28-.75-2.83-.58-3.75,1.67-1.84-1.59-6.57-5.27-7.9-1.12-2.67-2-3.21.24-5.36.59-1.91.31-2.46-.55-4.45-1-3.18-.65-3.21,1-6,2.1-3.05,1.15-4.54-.88-7.21-1.7-3-.94-4,1-6.37,1.06-1.64,0-2.55-1.87-4.38-1.57-.94.15-1.67,1.64-2.64,1.82s-1.48-.49-2.21-.52C14.63,25,12,25.14,8.52,25,10.13,21.85,5,20.68,3.33,23a5,5,0,0,0-1.13-.68A34.21,34.21,0,0,0,.92,26.56a35.27,35.27,0,0,0-.81,5.13,9.64,9.64,0,0,0,7.7-.61c1.82,2.72,3.7,2.13,6.38,1.8,2.16-.26,5.22-.28,7.72-1.71,1.36,5.47,7.43.35,10.36.17s4.82,2.07,8.09,1.37c2.4-.51,3.35-1.25,6.12-1.1.9,0,1.66.52,2.58.4,1.48-.19,2.32-1.51,3.46-1.73,1.87-.36,1.69.39,3.64,1,3.25,1.09,3.68-.68,5.9-1.56,2.46-1,2.06.3,4.48,0a3.88,3.88,0,0,0,1.88-.66A34.38,34.38,0,0,0,67.11,23.68Z"/><path class="cls-8" d="M68.74,36.92a12.18,12.18,0,0,1-2.22-1.35,12.29,12.29,0,0,0-.38,3.59c-3.75.38-5.9-4.31-10.15-3.92a5,5,0,0,0-.11,2.48,9.27,9.27,0,0,1-3.78-.49c.07.41-.16.94-.1,1.35-2.54.36-12.08-4.68-12-.56-2.44-.61-8.68-4.75-9.57,0-1.39-1.27-3.37-1.18-3.15.78-2.22-.85-4.56-1.31-5.6.94-1.88-.82-8.83-6-9.28-1.15-1.08-.91-4.25-3.58-5-.86-.92-1.1-2.7-1.23-3.45,2C4.47,38,1.76,35.34,0,35.44A34.54,34.54,0,0,0,.65,41a8.2,8.2,0,0,0,5,2.14c.89-3,3.86.15,5.72.77,3.58,1.18,4.17-.07,2.09-2.44.16-.11.59-.47.74-.6a16.39,16.39,0,0,0,6.3,2.85c.7-2.21,1.25-2.11,3.62-1.75,1,.15,1.71,1.37,3.09,1.17,1.1-.16,1.85-1.62,2.74-2.11A7.35,7.35,0,0,1,37,40.49c1.45.61,3.77,3.64,4.48,1a3.16,3.16,0,0,1,3.76,1.36C45,40.48,49.43,39.7,51,41.68a7.59,7.59,0,0,1-.07-1c2.3.81,6.64,1.65,6.13-1.51,1.75,2,3.4,3.52,5.59.81,1,1.72,2.83,2,4.89,2.27A3.53,3.53,0,0,1,68.2,41,35.07,35.07,0,0,0,68.74,36.92Z"/><path class="cls-8" d="M13,13.83c-.52-1.81-3.83-2.31-3.22-.07a2.48,2.48,0,0,0-2.87,1.66c1.2,1.9,4.19.81,5.85.4.9-.23,1.85-1,2.81-1.07s1.23,1,2.54.8c1.4,1.15,5-.08,6.84-.15,2.63-.1,5.82,2,8.09.7.46,2.13,3.09,1.76,4.27.32,3.41,2.25,4.11-.18,6.8-1,.67-.2,2,.57,2.92.55s2.24-.58,3-.66c.25,0,.69.74,1.2.69s1.61-.92,2.06-.92a12.35,12.35,0,0,1,2.76.57c1.76.37,4.92,2.06,5.72-.25-1.31-2-4.95-2.27-6.95-2.23-1,0-2.53.57-3.39.49s-1.14-.66-1.8-.75c-2.49-.34-3.58.7-5.92.87-1.9.14-3.53-1-5.5-1a44,44,0,0,0-4.52.68c-3.95.57-7.46-1.38-11.5.26C21.13,12.44,13.54,12.87,13,13.83Z"/><path class="cls-9" d="M46.12,63.87c-3.8.14-6.66-1.93-10.19-1.91-3.12,0-6.31.64-9.56.64s-7.1-2.21-9.83-1.54a2.77,2.77,0,0,1-1.84,1.56c.81.57,1.66,1.11,2.53,1.61a9.81,9.81,0,0,1,2.37-.43,23.27,23.27,0,0,1,4.06.87c7.42,1.66,13.61,1.3,21,.8a39.34,39.34,0,0,1,4,.25,33.41,33.41,0,0,0,4.39-2.41C50.76,63.45,48.5,63.79,46.12,63.87Z"/><path class="cls-9" d="M37.6,8.29c2.35-.15,3.91-.59,6.29-.23,3.21.48,5.46-.39,8.54-.4,1.87,0,3.18.84,4.8,1.24a1.24,1.24,0,0,0,0-.27,32.49,32.49,0,0,0-3.72-2.86c-3.61-.86-8.83-.45-10.87-.34-6.33.35-12.11-.49-15.29-.63-1.95.15-3.94,1-5.9,1a44,44,0,0,1-4.62-.9,34.83,34.83,0,0,0-3.58,2.45,2.63,2.63,0,0,1,2,.93C20.72,10.17,26.89,8,32.73,8,34.55,8,35.85,8.41,37.6,8.29Z"/><path class="cls-10" d="M62.78,51c-.85,1.83-2.69,1.16-4.31,1.38A3.16,3.16,0,0,0,57,53a11.73,11.73,0,0,1-1,.81,2.58,2.58,0,0,1-2.19,0,8.31,8.31,0,0,0-4.56-.21c-1.88.39-3.62.92-5.53.36a18.64,18.64,0,0,0-5.27-1c-2,0-3.92.17-5.88.16A12.39,12.39,0,0,1,26.91,52a12.26,12.26,0,0,1-4-3.58,10.18,10.18,0,0,0-2.76-2.79,6.35,6.35,0,0,0-4.38-.36c-.19,0-.14.35,0,.34,1.62-.09,3.34-.06,4.63,1A29.21,29.21,0,0,1,23.31,50a11.48,11.48,0,0,0,9.39,3.9c2-.06,4-.58,6.07-.52a10.93,10.93,0,0,1,3,.44,18.43,18.43,0,0,0,3.09,1,13.58,13.58,0,0,0,4.56-.53,7.54,7.54,0,0,1,3.34-.11,7.06,7.06,0,0,0,2.47.57,3.51,3.51,0,0,0,1.9-1,4.31,4.31,0,0,1,3-.72c1.45,0,2.68-.28,3.2-1.77C63.42,50.89,62.92,50.67,62.78,51Z"/><path class="cls-10" d="M20.59,48.83c-1.7-1.68-5.07-1.81-7.27-1.6s-5.6,1.31-4.83,4.22c0,0,0,0,0,0-.39-4.81,7.83-4.27,10.55-3,.64.31,1.51.81,1.59,1.6s-.91,1.78-1.61,2.18c-1.23.7-8.75,3-8.46.07.16-1.58,3-2,4.2-2.09.6,0,1.9-.06,2.34.46s.13.11-.08.46a2.64,2.64,0,0,1-1.23.8,5.38,5.38,0,0,1-2.22.21c-.31,0-.29.44,0,.47a4.35,4.35,0,0,0,4.26-1.71.23.23,0,0,0,0-.3c-1.09-1.11-3-1-4.37-.72-1.17.25-3,.83-3.32,2.17s1,2.1,2.19,2.2a14.36,14.36,0,0,0,5.89-1.05C19.87,52.61,22.43,50.64,20.59,48.83Z"/><path class="cls-10" d="M60.71,52.71c-1.1.43-2.08,1-3.13,1.52a3,3,0,0,1-2.65.36c-.41-.22-.71-.78-1.12-1a6.25,6.25,0,0,0-4.22-.43c-2.76.4-5.18,1.87-8,.94-2.13-.7-3.07-1.8-5.42-1.41-2.09.36-5.23,2.76-7.34,2.1-1.31-.4-2.23-1.78-3.81-1.62a3.48,3.48,0,0,0-1.24.52,9.37,9.37,0,0,1-4.27.9,17.64,17.64,0,0,0-7.28,1.79c-.24.11-.08.42.12.44a9.14,9.14,0,0,0,3.89-.62A24.32,24.32,0,0,1,21,55.72c2.08-.16,3.63-1.83,5.59-.77,1.11.6,1.67,1.32,3,1.23,2.75-.18,5.23-2.56,8.05-2.23a10.7,10.7,0,0,1,2.71,1.19,8.91,8.91,0,0,0,3.4.8c2.13.06,4.14-.95,6.2-1.36,1.57-.3,2.85-.56,4.17.43.36.27.49.55.9.71,2,.77,4.46-1.42,5.91-2.39C61.26,53.13,61.08,52.56,60.71,52.71Z"/><path class="cls-10" d="M38.55,52.93c-1.83-1.37-3.38-.29-5.39.17-1.39.32-2.16.63-3.25-.41-.5-.48-.67-1-1.4-1.28a6.13,6.13,0,0,0-2.52.08c-1.53.07-1.78-.73-2.6-1.91s-1.63-2.82-2.9-3.75a7,7,0,0,0-4.64-.91,4.09,4.09,0,0,1-2.38-.14c-.82-.48-.65-1.26-1.18-1.93-1.21-1.53-2.57-.3-4,0-2.62.55-4.7-.31-7.08-1.14a.17.17,0,0,0-.21.21c.44,1.81,2.44,2.55,4.11,2.81a13,13,0,0,0,3.18.09c.79-.07,1.91-.67,2.5-.2.34.29.54,1.11,1,1.5a4.38,4.38,0,0,0,1.71.92c2,.44,4.3-.87,6,.72,1.41,1.27,2.1,3.29,3.34,4.72,1,1.2,2.42,1.15,3.87.91.8-.13,1-.3,1.69.28.12.11.22.37.34.5a3.37,3.37,0,0,0,1.81.89c3.08.43,4.32-4,7.79-1.91C38.56,53.23,38.67,53,38.55,52.93Z"/><path class="cls-10" d="M67.09,32.14c-1.71-1.72-4.9-1.24-6.86-.35-1.59.72-2.95,2-4.68,2.36s-2.95-.44-4.57-.72a9.78,9.78,0,0,0-4.08.46,18.83,18.83,0,0,1-5,.61,18,18,0,0,0-4.68,1.06c-2.2.59-3.42.1-5.27-.84-2.62-1.33-5.09.3-7.66,1-2.18.56-3.65-.4-5.58-1.16A8.41,8.41,0,0,0,14.56,34c-3.94.39-7.91,1.17-11.78-.1,0,0,0,0,0,0,2.75,1.34,5.13,2.21,8.23,2,1.45-.11,2.92-.28,4.35-.51a7,7,0,0,1,2.91-.17,8.76,8.76,0,0,1,2.1,1c2.54,1.32,4.68.48,7.21-.45a5.31,5.31,0,0,1,3.12-.53,5,5,0,0,1,1.59,1,5.15,5.15,0,0,0,2.28.86,8.81,8.81,0,0,0,3.7-.53,21.51,21.51,0,0,1,5.54-.75c3.12-.16,5.16-2.27,8.36-1.07a6.32,6.32,0,0,0,5.53-.17c1.38-.67,2.63-1.69,4.14-2a5.39,5.39,0,0,1,3,.16c2,.72,1.09,2.1.09,3.21-.27.3,0,.9.43.74C67.25,35.86,68.88,34,67.09,32.14Z"/><path class="cls-10" d="M62.73,14.76c-.16-.17-.33-.32-.49-.49s-.27-.4-.46-.5a.06.06,0,0,0-.08.07c0,.22.28.44.44.59a1.55,1.55,0,0,0,.56.38A0,0,0,0,0,62.73,14.76Z"/><path class="cls-10" d="M60.5,13.16a2.12,2.12,0,0,0-1.62-.32s0,.06,0,.06a2.07,2.07,0,0,1,1.57.32S60.54,13.18,60.5,13.16Z"/><path class="cls-10" d="M50,12.21c-2.83-2.51-5.12-1.32-8.38-.33-2.67.81-5-.16-7.71-.06a51.56,51.56,0,0,0-6,.94c-2.51.38-5.08-.1-7.64.06a12.36,12.36,0,0,1-6.41-1.09c-1.83-.79-5.16-1.85-5.7,1-.06.31.29.69.6.46a4.72,4.72,0,0,1,4.82-.83,26.64,26.64,0,0,0,3.33,1.13,20.23,20.23,0,0,0,5-.24c2.09-.22,4,.23,6.07.2,1.86,0,3.65-.73,5.5-.88s3.63.38,5.47.39a12.82,12.82,0,0,0,4.47-1.1,7.37,7.37,0,0,1,6.53.37S50,12.23,50,12.21Z"/><path class="cls-10" d="M53.8,6.46c-2.65-1.3-4.68-.13-7.3.61-2.19.61-3.68-.35-5.64-1.13a7.48,7.48,0,0,0-4.58-.28A20.57,20.57,0,0,1,28.82,6a19.9,19.9,0,0,0-5.22-.29,15.41,15.41,0,0,0-2.66.81,5.6,5.6,0,0,1-4-.1A2.33,2.33,0,0,0,14.42,7c-.52.46,0,1.26.65,1.11,1.69-.4,3.07.54,4.75.44s3.14-1,4.82-1.21c3.78-.37,7.16,1,11,0a8.23,8.23,0,0,1,5.88.48,4.88,4.88,0,0,0,3.16.35c3.27-.66,5.65-2.8,9.12-1.63C53.81,6.54,53.84,6.48,53.8,6.46Z"/><path class="cls-10" d="M61.75,16.31c-2.62,0-4.13-2.09-6.59-2.49-2.73-.45-4.94,1.56-7.76.83a5.82,5.82,0,0,0-5.1.63c-1.29.73-2.17.09-3.52.23a5.29,5.29,0,0,0-2.23,1c-1.74,1.1-2.92,1.32-4.86.37a17.67,17.67,0,0,0-3.24-1.51,9.09,9.09,0,0,0-5.31.39c-2.61.8-4.45-.39-7-.82a18.72,18.72,0,0,0-7,.41s0,.08,0,.08c3.36-.57,6.26-.67,9.39.82a5.73,5.73,0,0,0,4.41.59,10.38,10.38,0,0,1,3.19-.75c1.49.08,2.74,1.21,4,1.95,1.85,1.15,3.8,2,5.92,1,.93-.42,1.74-1.37,2.72-1.66s2,.29,3.06,0,1.73-1.41,2.88-1.71,2.38.38,3.56.56c2.68.41,5.1-1.76,7.7-.73,2.06.83,3.42,2.38,5.81,2.15A.71.71,0,0,0,61.75,16.31Z"/><path class="cls-10" d="M26.34,29.23c-1-2.14-4.48-2.76-5.5-.36-.18.42.21,1,.68.69a3.58,3.58,0,0,1,2.22-.74c.66.1,1.9.84,1.63,1.68-.41,1.27-3.25,1-4.21.74a6,6,0,0,1-2.81-2.33A7.93,7.93,0,0,0,15.24,26a8.15,8.15,0,0,0-2.82-.38c-1.85-.09-2.61-.76-4.05-1.59A2.41,2.41,0,0,0,5.3,27.68c1.23,1.61,5.29,3.1,6.64.95.15-.26-.15-.47-.37-.37-1.75.77-5.78.78-6.22-1.8C5,24.56,6.91,24.26,8,25c.32.22.55.6.87.84a5.51,5.51,0,0,0,2.74,1c1.36.14,2.7-.18,3.94.61a9.54,9.54,0,0,1,2.14,2.38,6.4,6.4,0,0,0,3.8,2.64C23.37,32.85,27.75,32.17,26.34,29.23Z"/><path class="cls-10" d="M53.31,26.3a.55.55,0,0,0,.47.82c1,0,2.92.18,1.55,1.67a3.73,3.73,0,0,1-3,.48c-.17-.11-.45-.84-.66-1A6.81,6.81,0,0,0,48.54,27c-1.36-.33-3.8-.45-2.22-2.21a.67.67,0,0,0,.1-.8c-2.2-2.92-6.24-1.83-8.68.29a.52.52,0,0,0,.11.81c.83.42,2.72,1.52,1.83,2.75s-3.85.68-4.9.07c-1.71-1-2.78-2.7-4.54-3.67a.09.09,0,0,0-.11.15c2.47,2.81,4.94,7,9.44,4.87,2.58-1.23,1.19-3.5-.54-4.68,1.74-1.23,4.69-2.24,6-.32-.83,1.07-1.16,2.29.23,3.16,1.1.69,5.5.78,5.69,2.27a.74.74,0,0,0,.51.68c2.17.58,5.81.46,5.71-2.65C57.13,25.7,54.62,24.46,53.31,26.3Z"/><path class="cls-10" d="M65.77,27.09a5.25,5.25,0,0,0-2.49-3.31,1.75,1.75,0,0,0-2.41,1.84c0,.44.63.82,1,.4.52-.64.69-1.18,1.55-.56a3.17,3.17,0,0,1,1,1.26,3,3,0,0,0-1.22.12c-.49.21-.75.83-1.27,1.05-1,.42-1.45-.56-1.83-1.34-.55-1.14-1-3-2.48-3.2,0,0-.07,0,0,.07.81.55,1.07,1.95,1.43,2.8a5.79,5.79,0,0,0,1.3,2.27,1.84,1.84,0,0,0,2,.3c.44-.17.79-.66,1.21-.8a12.45,12.45,0,0,1,1.86-.21A.57.57,0,0,0,65.77,27.09Z"/><path class="cls-10" d="M9.25,45.56c-2-.55-4.1,1-4.91,2.78a2.53,2.53,0,0,0,.21,2.71,1.17,1.17,0,0,0,1.14.33c.52-.11.49-.44.7-.83,0-.08,0-.19-.1-.18a1.79,1.79,0,0,1-.57-.08c-.15.17-.22.13-.19-.11a2.71,2.71,0,0,1-.09-.41,2.47,2.47,0,0,1,.49-1.62,3.93,3.93,0,0,1,1-1,1.55,1.55,0,0,0,2.66-1A.53.53,0,0,0,9.25,45.56ZM7.46,46.92a3.85,3.85,0,0,1,1-.28C8.27,47,7.9,47,7.46,46.92Z"/><path class="cls-10" d="M6.62,49.61a.34.34,0,0,0-.67,0v.24c0,.44.71.44.69,0Z"/><path class="cls-10" d="M53.12,54.57a2,2,0,0,0-1.42-.21,1.83,1.83,0,0,0-.48.25l-.19,0c-.05,0-.29,0-.09,0l-.32,0a1.51,1.51,0,0,0-.83.59l0,.07a1.64,1.64,0,0,0-.14.3,1.23,1.23,0,0,0,.85,1.47.89.89,0,0,0,.56,0c.29,0,.6-.08.87-.12l.94-.15a1.27,1.27,0,0,0,.3-2.3Z"/><path class="cls-10" d="M49.77,55.31l0,0,.13-.16Z"/><path class="cls-10" d="M40.92,56.08c-.81-.16-2.83-.51-3.38.43-.64.21-.46,1.16.11,1.38a4.2,4.2,0,0,0,3.28-.11C41.67,57.5,41.86,56.26,40.92,56.08Z"/><path class="cls-10" d="M51.55,59.46a.59.59,0,0,0,0,1.18A.59.59,0,0,0,51.55,59.46Z"/><path class="cls-10" d="M25.15,58.66c-1.39-.86-3.38-2-4.65-.28a.74.74,0,0,0-.16.46.58.58,0,0,0,.27.84,6,6,0,0,0,4.34.44A.81.81,0,0,0,25.15,58.66Z"/><path class="cls-10" d="M34.14,43.44a1,1,0,0,0,0,2A1,1,0,0,0,34.14,43.44Z"/><path class="cls-10" d="M30.15,45.24c-.84-.34-2.61-.36-2.76.85-.2,0-.41,0-.62,0-1,0-1.31,1.62-.25,1.83a5.66,5.66,0,0,0,2.75-.12l.15,0a2.67,2.67,0,0,0,.75.12.64.64,0,0,0,.61-.87A1.23,1.23,0,0,0,30.15,45.24Z"/><path class="cls-10" d="M34.56,43.22a2.34,2.34,0,0,0-1.26.25,1.7,1.7,0,0,0-.84.32.81.81,0,0,0-.35.86.87.87,0,0,0,.1.19v0c.13.47.72.55,1.1.52a9.53,9.53,0,0,0,1.5-.32h0a1,1,0,0,0,.67-.65A1,1,0,0,0,34.56,43.22Z"/><path class="cls-10" d="M56.33,43.63c-.86,0-2.36,0-2.72,1l-.14.19c-.49.79.55,1.55,1.18,1.22l.28,0h.34a8.83,8.83,0,0,0,1.36-.14A1.13,1.13,0,0,0,56.33,43.63Z"/><path class="cls-10" d="M47.81,45.7a.7.7,0,0,0-.43-.64,1.19,1.19,0,0,0-.86-.35,1.39,1.39,0,0,0-.93.36.92.92,0,0,0,0,1.27,1.38,1.38,0,0,0,.93.35,1.21,1.21,0,0,0,.87-.34A.67.67,0,0,0,47.81,45.7Z"/><path class="cls-10" d="M58.27,38.62a16.28,16.28,0,0,1-2.1-.43l0,0c-.47-.35-1-.63-1.57,0a.73.73,0,0,0,.71,1.21,21.3,21.3,0,0,0,3-.56C58.33,38.74,58.35,38.63,58.27,38.62Z"/><path class="cls-10" d="M56,38.26a.12.12,0,0,0,0,.23,12.51,12.51,0,0,0,3.86-.11s0,0,0,0A12.5,12.5,0,0,0,56,38.26Z"/><path class="cls-10" d="M42.39,37.76c-1.14-.69-3-.62-3.64.72a.19.19,0,0,0,0,.08l-.2,0a.18.18,0,0,0-.14.33,2.93,2.93,0,0,0,1.86.55,5,5,0,0,0,.86-.13c.23-.06.53-.25.74-.22A.71.71,0,0,0,42.39,37.76Z"/><path class="cls-10" d="M29.34,38.82a.61.61,0,0,0-.55.47.14.14,0,0,0,.16.17,1.38,1.38,0,0,0,.33-.2s.08,0,.06,0a.4.4,0,0,1,.09.17c.06.13.27.06.27-.07S29.62,38.84,29.34,38.82Z"/><path class="cls-10" d="M26.65,39.16a14.93,14.93,0,0,0-3.89-.23c-.75.12-2.61.47-2.5,1.57.08.82,1,.67,1.6.52l.58-.13a3.61,3.61,0,0,0,4.83-.25C27.88,40.09,27.34,39.23,26.65,39.16Z"/><path class="cls-10" d="M13.08,38.24a1.38,1.38,0,0,0-1,.07,1.19,1.19,0,0,0-.25.13l-.08.08h0a.3.3,0,0,0-.39.24s0,0,0,0a.28.28,0,0,0,0,.13l0,.06a1.24,1.24,0,0,0-.1.2.56.56,0,0,0,.14.54.72.72,0,0,0,.59.22h.18a1.9,1.9,0,0,0,1.1-.27.77.77,0,0,0,.38-.78A.8.8,0,0,0,13.08,38.24Z"/><path class="cls-10" d="M63.89,38.78a1.84,1.84,0,0,0-1.81-.57,1.76,1.76,0,0,0-1.32,1.65.75.75,0,0,0,.94.71,1.78,1.78,0,0,0,.55-.23c.16-.11.27-.22.37-.28L62.8,40l.12,0a.05.05,0,0,0,0,0C63.7,40.42,64.56,39.38,63.89,38.78Z"/><path class="cls-10" d="M54.8,29.67c-1.42-.67-2.41-.47-4-.34a5.61,5.61,0,0,1-5-1.78c-1.06-.94-2.5-2.07-4-2.16a1.76,1.76,0,0,0-2,2.15c.24,1.64,1.61,1.59,2.73,1.95a14,14,0,0,0-4.82,1.56.86.86,0,0,0-.37.52c-3.94-1.53-6-7-10.82-5.77a.52.52,0,0,0-.38.51,2.5,2.5,0,0,0,1.1,2A11.63,11.63,0,0,0,30.13,30a.24.24,0,0,0,.29-.16c.31-1.71-2.15-1.76-2.94-2.92,4.48.74,6.16,6.6,11.29,6.31a.65.65,0,0,0,.57-.94c1.79-.51,3.59-.94,5.36-1.51a.77.77,0,0,0,.45-1.12c-.66-1.11-1.46-1-2.51-1.5-1.24-.62-.82-1.13.3-.64a16.38,16.38,0,0,1,1.5.78,17.88,17.88,0,0,0,4.08,2.2,10.39,10.39,0,0,0,6.25-.62C54.85,29.84,54.89,29.71,54.8,29.67Z"/><path class="cls-10" d="M9.13,29.41c-2.4,1-6.16.34-6.8-2.57A.2.2,0,0,0,2,26.9c.06,3.45,4.86,4.47,7.24,2.58C9.23,29.44,9.17,29.39,9.13,29.41Z"/><path class="cls-10" d="M22.49,31.27c-1.51.78-4.28,1.06-5-.87a.78.78,0,0,0-.72-.55c-1.82.16-5.17-4.6-6.39-1.7,0,.07.1.12.13.05,1-2.26,2.89,1.19,3.67,1.93a3.84,3.84,0,0,0,2.11,1.2,3.64,3.64,0,0,0,6.36.08C22.69,31.32,22.58,31.22,22.49,31.27Z"/><path class="cls-10" d="M13,21.45a4,4,0,0,1-2.84,1.14.16.16,0,0,0-.08.3,2.25,2.25,0,0,0,2,.1,1.94,1.94,0,0,0,1-1.5S13,21.42,13,21.45Z"/><path class="cls-10" d="M61.43,22c-1.78.1-3.18.22-3.87-1.86a.32.32,0,0,0-.32-.24,3.29,3.29,0,0,0-2.77.69c-.64.45-1.16,1.37-2.15.51-.42-.37-.35-1.07-.78-1.4-2.53-2-3.5,2.73-4.57,3.4-1.39.89-2.3-1-3.23-1.58a2.85,2.85,0,0,0-2.69.08c-2,.83-3.2,2.88-5.15.42a3.22,3.22,0,0,0-3.11-1.62.79.79,0,0,0-.78.79c.27,4.52-5-.1-7.19,0a.65.65,0,0,0-.61.46c-1.08,3.93-5.5.83-7.83-.27a13,13,0,0,0-3-.88,7.06,7.06,0,0,1-1.21-.27c-.57-.23-1.66-1.44-.7-2,.59-.32,2.22,1.75,2.46,2.25,0,0,.05,0,0,0-.45-.82-1.87-3-3.05-2.7-.8.21-.77,1.39-.51,2,.73,1.74,3.17,1.81,4.65,2.4,1.72.69,3.18,1.84,5,2.42,1.4.46,3.16.77,4.38-.29.48-.42.68-1.74,1-2a13.59,13.59,0,0,1,2.12.79c2.58,1.17,6,2.4,6.09-1.24,1.36.33,2.57,2.94,4.44,2.73,2.09-.23,1.71-3.76,4.54-3,1.33.35,1.78,2.12,3.07,2.65a2.07,2.07,0,0,0,2.93-.92c.4-.84,1-4,2.33-2.57.29.3.28.88.67,1.23a2.58,2.58,0,0,0,3.28.06c.33-.31.45-1.07.75-1.28,1.38-1,1.27,1.05,1.85,1.7,1.09,1.23,2.89,1,4.17.25A.42.42,0,0,0,61.43,22Z"/><path class="cls-10" d="M46.77,64.74a9.18,9.18,0,0,1-4-.62,4.33,4.33,0,0,0-2-.36c-1.08.16-4.23,2.47-4.3.16a.54.54,0,0,0-.53-.53,16.55,16.55,0,0,0-3,.74c-1.88.43-2.79-.56-4.45-.78-2.22-.29-4.38,1.43-6.13-.84a.63.63,0,0,0-.76-.09,5.74,5.74,0,0,1-4.12-.18s-.1,0-.06.07a6.8,6.8,0,0,0,1.69,1.07c.7.26,1.49,0,2.17.21s1.14.89,1.82,1.15a4.56,4.56,0,0,0,2,.22c.69,0,1.35-.25,2-.36a5.79,5.79,0,0,1,3.1.48c2,.63,3.3-.37,5.13-.59.22,1.74,1.66,1.84,3.34,1.25a5.43,5.43,0,0,1,4.08-.17c1.5.46,2.82.91,4.17-.07C47.27,65.29,47.22,64.7,46.77,64.74Z"/><path class="cls-10" d="M37.84,1.46A2.11,2.11,0,0,0,36.28,2a.48.48,0,0,0,0,.68,2.13,2.13,0,0,0,1.56.55.91.91,0,0,0,.89-.89A.91.91,0,0,0,37.84,1.46Z"/><path class="cls-10" d="M27.32,2.06a.61.61,0,0,0,0,1.22A.61.61,0,0,0,27.32,2.06Z"/><path class="cls-10" d="M46,4.26c-.2-.73-1-.86-1.62-.93a4.41,4.41,0,0,0-.81-.05,2.71,2.71,0,0,0-1,.34A.75.75,0,0,0,42.75,5c.26,0,.5.12.77.14s.5,0,.74,0c.5.07.94.31,1.41,0A.8.8,0,0,0,46,4.26Z"/><path class="cls-10" d="M31.79,8.38a.67.67,0,0,0,0,1.33A.67.67,0,0,0,31.79,8.38Z"/><path class="cls-10" d="M15.74,8.21a.93.93,0,0,0-.22,1.69,3,3,0,0,0,.51.24,1.58,1.58,0,1,1,.2.07l.41.06a1.06,1.06,0,0,0,1.21-.84C18,8.28,16.57,8,15.74,8.21Z"/><path class="cls-10" d="M23.84,3.54a3.6,3.6,0,0,0-.66,0,.46.46,0,0,0,0,.91,3.6,3.6,0,0,0,.66-.05C24.24,4.29,24.24,3.59,23.84,3.54Z"/><path class="cls-10" d="M29,7.32A3.46,3.46,0,0,0,24.32,7a2.23,2.23,0,0,0-.87.61,1,1,0,0,0,.21,1.57,5.83,5.83,0,0,0,4.9,0A1.11,1.11,0,0,0,29,7.32Z"/><path class="cls-10" d="M49.64,8.08a.65.65,0,0,0,0,1.29A.65.65,0,0,0,49.64,8.08Z"/><path class="cls-10" d="M35.26,2.12a4.06,4.06,0,0,0-5.56,0,1.24,1.24,0,0,0-.32,1.23,1.11,1.11,0,0,0,1.08.86.8.8,0,0,0,.52.46A5.58,5.58,0,0,0,35,4,1.23,1.23,0,0,0,35.26,2.12Z"/><path class="cls-10" d="M35.93,8.68a.36.36,0,0,0,0,.72A.36.36,0,0,0,35.93,8.68Z"/><path class="cls-10" d="M42.55,10.44a1.32,1.32,0,0,0-1.31-1.16,3.52,3.52,0,0,0-1.34.42,1.91,1.91,0,0,0-1.07-.19,1.19,1.19,0,0,0-.32,2.32l.58.22a1.22,1.22,0,0,0,.24.1,2.93,2.93,0,0,0,.88.06,5,5,0,0,0,1.38-.31A1.34,1.34,0,0,0,42.55,10.44Z"/><path class="cls-10" d="M25.41,19.7a.91.91,0,0,0-.31-.27,1.06,1.06,0,0,1-.29-.22c-.43-.48-1.16.24-.71.71.28.29.77.58,1.17.35C25.5,20.13,25.68,19.83,25.41,19.7Z"/><path class="cls-10" d="M22.65,19.28a.73.73,0,0,0,.49.86c.64.23,1.09-.07,1.71-.12a5,5,0,0,1,1,.23l.15.05a.77.77,0,0,0,.93-.53C27.33,17.36,23,17.15,22.65,19.28Z"/><path class="cls-10" d="M16.63,18.93a.89.89,0,0,0-.58-.4.74.74,0,1,0,0,1.43.91.91,0,0,0,.58-.4A.6.6,0,0,0,16.63,18.93Z"/><path class="cls-10" d="M54.51,16a3,3,0,0,0-2.32-.32,2.16,2.16,0,0,0-1.35.88,1.52,1.52,0,0,0-.34-.15c-.46-.14-1,.34-.83.83a2.07,2.07,0,0,0,2.06,1.21,4.31,4.31,0,0,0,1.33-.22c.42-.14.84-.54,1.24-.62A.89.89,0,0,0,54.51,16Z"/><path class="cls-10" d="M6.49,16.72l-.12-.11a1,1,0,0,0-1.12-.21,1,1,0,0,0-.63.93,1,1,0,0,0,1.75.73l.12-.12A.88.88,0,0,0,6.49,16.72Z"/><path class="cls-10" d="M60.53,16.77A2.08,2.08,0,0,0,59,16a2.91,2.91,0,0,0-1.49.13,1.8,1.8,0,0,0-1.13,1.24.85.85,0,0,0,.57,1l.15,0a1.2,1.2,0,0,0,1.19,1.11c.52,0,1-.08,1.55-.15a1.21,1.21,0,0,0,.85-.85A2.09,2.09,0,0,0,60.53,16.77Z"/><path class="cls-10" d="M44.79,49.74c-2.46,1.35-4.92,1.61-7-.51a.82.82,0,0,0-1.15,0C34,51.8,31,50,28,49.9a.27.27,0,0,0-.23.4c2,3,6.84,2.54,9.45.58a5.11,5.11,0,0,0,3.71,1.38c1.84-.13,2.78-1.15,4.06-2.32C45.06,49.84,44.92,49.67,44.79,49.74Z"/><path class="cls-10" d="M64.94,48.79c-1,.06-1.88.67-2.9.79a7.84,7.84,0,0,1-4.17-.84.53.53,0,0,0-.61.08c-1.26,1.19-3.61,3.3-5.15,1a.74.74,0,0,0-1-.26c-1.38.9-4.87,2.35-5.62,0h0c-1.29,3.74,3.63,2.71,5.83,1.59,1.85,1.89,4.32.22,6.24-1.27,1.94,1.79,7.94,2.82,7.8-.64A.42.42,0,0,0,64.94,48.79Z"/><path class="cls-11" d="M62.44,19.4a4.15,4.15,0,0,0-3.4.08c-.77.4-1.28,1.51-2.29,1.29-.66-.15-1.65-1.46-2.21-1.92a4.72,4.72,0,0,0-2.14-1.18,4.4,4.4,0,0,0-3.08.79c-1.26.84-1.73,1.8-3.43,1.54-1-.15-1.89-.76-2.91-.76-1.21,0-2.23.75-3.37,1-2.82.65-4.27-2.37-7.07-1.44a7.31,7.31,0,0,0-2.26,1.5c-1.52,1.18-2.24.32-3.83,0s-2.68-.32-3.62.47a4.67,4.67,0,0,1-.62-1.4,1,1,0,0,0-1.52-.62c-1.36.86-4.83,2.26-6,.42-.6-1-.49-2.1-1.58-2.8-2.23-1.43-4,.29-4.72,2.28-.42-.09-.84-.18-1.25-.3-1.23-.38-1.64,1.41-.52,1.87a22,22,0,0,0,2.23.67,1.06,1.06,0,0,0,1.32-1c0-1.12.67-1.61,2.07-1.49a5.15,5.15,0,0,1,.33.93,7.66,7.66,0,0,0,.37,1,3.11,3.11,0,0,0,1.9,1.52,8.24,8.24,0,0,0,5.77-.73,5.81,5.81,0,0,0,1.49,2,1,1,0,0,0,1.6-.2c1-2,3.67.38,5.33.12,2-.31,3-2.73,5-2.5S37,22.35,39.14,22c1.22-.2,2.19-1.12,3.39-1.32a8,8,0,0,1,3.29.56,3.9,3.9,0,0,0,3.6-.56c1.56-1.13,2.65-1.52,4.26-.2a11.83,11.83,0,0,1,1.49,1.6,3.22,3.22,0,0,0,3.51.79c.66-.18,1.42-.86,2.09-.91,1.73-.13,2.5,2.1,3.43,3.14A1.06,1.06,0,0,0,66,24.63C66.61,22.43,64.37,20.13,62.44,19.4Z"/><path class="cls-11" d="M38.74,50.1c-.69-2.32-3.3-2.25-5.3-1.94a31.91,31.91,0,0,1-4.25.57A10.79,10.79,0,0,1,25.81,48a.3.3,0,0,0-.34.13c-1.45,2.37,2.48,3.15,4,3.13a30.61,30.61,0,0,0,4.35-.55c1.58-.25,3.23.27,4.73-.25A.27.27,0,0,0,38.74,50.1Z"/><path class="cls-11" d="M14.53,47.7c-1.59.1-6.39,1.39-5.45,3.85a.43.43,0,0,0,.5.28c1-.14,1.72-1.31,2.65-1.78a9.86,9.86,0,0,1,4.06-.74c.6,0,1.68-.23,2,.48.41,1-.87,1.87-1.6,2.14a4.4,4.4,0,0,1-2.3.24,5,5,0,0,1-.93-.28.32.32,0,0,0-.09,0l.1,0a.73.73,0,0,0-.37-1.35c-.83,0-1.78.4-1.71,1.4s1.09,1.47,1.86,1.75c2.13.75,5.46-.14,6.1-2.56C20,48.48,16.47,47.57,14.53,47.7Z"/><path class="cls-11" d="M42.07,55.33c-.61-1.33-3.41-1.42-3.79.11a.56.56,0,0,0,.25.61c.61.33,1.11.08,1.75.05h.55a2.08,2.08,0,0,1,.68.08c-.09,0,0,.1,0,.16a.64.64,0,0,1-.08.43,2,2,0,0,1-1.31.88,4,4,0,0,1-3.34-.44c-.32-.19-.74-.56-.72-1,0-.62,1-.81,1.43-1,0,0,0,0,0,0-.79,0-2,.34-1.76,1.37a3,3,0,0,0,2.33,1.86,4.32,4.32,0,0,0,3.66-.9A1.75,1.75,0,0,0,42.07,55.33Z"/><path class="cls-11" d="M55.91,55.28a.62.62,0,0,0-1.12.14c-.13.56.12,1,0,1.58a.86.86,0,0,1-.5.74,4.25,4.25,0,0,1-1.1.1,4.55,4.55,0,0,1-1.15-.18,5.68,5.68,0,0,1-2.23-.84,2.46,2.46,0,0,1-.63-.67c-.12-.22-.15-.32-.07-.51,0,0,.11-.16.13-.18a1.68,1.68,0,0,1,.55-.24c.73-.23,1.5-.31,2.22-.54a.68.68,0,0,0-.18-1.33A4.36,4.36,0,0,0,48.19,55a1.91,1.91,0,0,0,.48,2.37,7,7,0,0,0,1.21.9,5.76,5.76,0,0,0,1.5.77,3.56,3.56,0,0,0,3.18-.39C55.43,57.78,56.45,56.52,55.91,55.28Z"/><path class="cls-11" d="M32.4,66.66a3.5,3.5,0,0,1-1.87.13c-.17,0-1.41-.53-1-.64a.46.46,0,0,0-.24-.89c-.79.27-2.73.69-3.44,0s-1.45.37-.86.86c.87.71,2.29.61,3.48.32a1.46,1.46,0,0,0,.5.67,2.4,2.4,0,0,0,3.48-.37C32.54,66.72,32.47,66.65,32.4,66.66Z"/><path class="cls-11" d="M41.35,66.34c-.71,0-1,.4-1.69.6a3.18,3.18,0,0,1-2.8-.6.61.61,0,0,0-.72.1,2.31,2.31,0,0,1-3.65-.08c-.05-.06-.17,0-.16.06.24,2,2.74,2,4.19,1.18,1.53,1.05,5.31,1.52,5.23-.86A.4.4,0,0,0,41.35,66.34Z"/><path class="cls-11" d="M54.35,7.41a2.59,2.59,0,0,0-1.52-.79,3.82,3.82,0,0,0-3.44,1,.28.28,0,0,0,.25.42,17,17,0,0,1,2.58-.48,2,2,0,0,1,1.92,1.55.29.29,0,0,0,.56,0A1.69,1.69,0,0,0,54.35,7.41Z"/><path class="cls-11" d="M49,7.43a7.08,7.08,0,0,0-2.67.41c-1.5.42-2.38,0-3.81-.55a3.92,3.92,0,0,0-3.92.56,3.39,3.39,0,0,0-5-.45C32.05,6.22,28.7,6.8,29,9a.3.3,0,0,0,.36.28c1.13-.33,2.84-2.42,3.88-.71a.59.59,0,0,0,1,0C35,7,37.35,7.45,38,8.89a.55.55,0,0,0,.74.19c2.5-1.7,3.55-.29,6.13-.21,1.55.05,2.64-1.12,4.14-1.4C49,7.47,49,7.43,49,7.43Z"/><path class="cls-11" d="M28.92,11c-1.25.14-2.63.5-3.06-1.32a.45.45,0,0,0-.54-.31c-.93.32-2.1.89-2.77-.7a.39.39,0,0,0-.37-.29,13.71,13.71,0,0,0-1.81,0c-.05,0-.09,0-.1.08-.52,1.72-2.76,2.6-4.41,2.29C14.4,10.45,13.69,9.37,13,8.21c-.24-.39-.75-.11-.7.3.41,2.87,4.75,4.37,6.83,2.27.67-.66,1.12-3,2.6-1.58.24.23.18,1,.58,1.32a2.43,2.43,0,0,0,2.89,0,2.4,2.4,0,0,0,3.91.94A.26.26,0,0,0,28.92,11Z"/><g class="cls-12"><path class="cls-13" d="M.79,41.74A34.41,34.41,0,1,0,63,15.32c.13,4.52-1.1,8.9-2.48,13.25C55.31,45.13,34.81,56.36,18,52.07A38.12,38.12,0,0,1,.79,41.74Z"/></g><g class="cls-14"><path class="cls-13" d="M56.4,8c-2.08,3.09-3.86,6.37-5.35,8.61C40,33,18.7,33.29.84,26.93A34.41,34.41,0,0,0,13.46,61.71c8.62,4.3,18.27,4.84,27.72,2.41C52.41,61.24,59.9,53.89,66.7,44.58c.34-.46.66-.92,1-1.37.09-.31.18-.62.25-.93A34.39,34.39,0,0,0,56.4,8Z"/></g><g class="cls-15"><path class="cls-16" d="M32.11,2.67C26.21,4.12,20,5.3,14.88,9.11,10.11,12.64,2.41,20.17,2.13,26.43,1.29,44.9,23.77,43,35.85,37.1c13.39-6.49,26.44-31,2.31-32.84Z"/></g><g class="cls-17"><path class="cls-16" d="M30.19,10.64c-2.7-3.46-9.4-1.44-12.36.72a13.38,13.38,0,0,0-3.65,4.05c-1.57,2.49-2.4,2.2-4.48,4.07-5,4.52.2,9.48,4.39,11.64,6,3.09,13.59,2,19.29-1.35,4.47-2.61,13.23-12.27,3-14C40.09,14.92,36.39,11.07,30.19,10.64Z"/></g><path class="cls-18" d="M68,27.08a.52.52,0,0,0-1,.13,52.64,52.64,0,0,1-.48,10.65A50.27,50.27,0,0,1,63.58,47a28.68,28.68,0,0,1-9.42,12.8c-4.73,3.49-10.72,5.2-16.5,5.81a38.75,38.75,0,0,1-10.15-.21c-2.72-.45-5.43-1.86-8.15-2a.12.12,0,0,0-.11.19c1.57,2.3,5.17,3.13,7.75,3.66a37.73,37.73,0,0,0,10.66.55c6.29-.54,12.75-2.4,17.87-6.2C60,58.28,62.9,53.1,65.1,48,68,41.33,70.09,34.26,68,27.08Z"/></g></g></g></svg>