<svg xmlns="http://www.w3.org/2000/svg" viewBox="0 0 68.72 68.01"><defs><style>.cls-1{isolation:isolate;}.cls-2{fill:#f17241;}.cls-3{fill:#ff4f24;}.cls-4{fill:#7d0204;opacity:0.59;mix-blend-mode:soft-light;}.cls-5,.cls-6{fill:#750400;}.cls-5{opacity:0.6;}.cls-6{opacity:0.66;}.cls-7,.cls-8{fill:#000072;}.cls-7{opacity:0.21;}.cls-8{opacity:0.27;}.cls-9{fill:#fbb901;opacity:0.37;mix-blend-mode:color-dodge;}.cls-10,.cls-11,.cls-12{fill:#ffe4a1;}.cls-10{opacity:0.4;mix-blend-mode:overlay;}.cls-11{opacity:0.58;}.cls-12{opacity:0.3;}</style></defs><g class="cls-1"><g id="Camada_2" data-name="Camada 2"><g id="icons_planets"><path class="cls-2" d="M68.68,32.34C69.67,49,49.22,68,32.55,68S-.83,51.17,0,33.07C.92,14.37,18.18,0,34.85,0S67.45,11.6,68.68,32.34Z"/><path class="cls-3" d="M57.91,24.19c2.64-.23,3-3.35,1.82-5.39,6.06.51-.3-15.89-8.35-7.59-2.19,2.27-1.73,7.36-4.77,8.56-4.09,1.61-5.5-4.19-2.77-3.67-1.14-2.16,3.31-5.3,2.33-8.4.57,0,1.15-.14,1.73-.16,1.17-3.15-3-4.52-5.41-3.6.24-2.29-1.09-3.6-3.43-3A3.84,3.84,0,0,0,39.44.3,35,35,0,0,0,34.85,0,33.7,33.7,0,0,0,18.17,4.67c1.61.43,3.1.93,3.7,2.09,2.28,4.41-4.66,3.68-7.07,4.47-7.11,2.33-10.13,16.62-.41,14a9,9,0,0,1,0,2c.2,0,1.08,0,1.21.13.5,3.78-3.63,3.45-6.1,4.74C6,34,4.9,35.84,4.52,40c-.74,8.11,11.07,17.37,16.88,8.86.79,2.93,3.59,3.27,5.48,1.35,2,3,5.64,2.32,8.05,3.21,4.13,1.53,5.26,3.41,10.31,2.37,6.73-1.39,11.69-9.1,6.26-15-5.11-5.57-11.44-1.2-17,.68-2.84,1-7.58,2.63-10.62,1.49-1.45-.55-5.13-3.36-3.26-5.23.71-.69,3.88,1.61,5.54.41,3-2.17.49-6.63-2.23-7.66,2.81-.15,1.78-3.81.64-5.69.24.13.68.35.66.35.94-1,4-14.61,8.37-6.64,1,1.87-3.36,9.76,1.76,7.7-.66,3.35,3.16,8.92,5.43,4,1.61,4.38,6.87,3.23,6.34-1.43,1.85,1.43,4.39,1.7,5.66-.47-.41,3.33,2.4,2.34,3.27,3.88A8.53,8.53,0,0,1,56.78,37c-.16,3.68-2.17,8,3,9.19C68.67,48.22,65.42,26.82,57.91,24.19Z"/><path class="cls-3" d="M1.1,42.36a32.7,32.7,0,0,0,1.18,3.5C1.9,44.63,1.51,43.42,1.1,42.36Z"/><path class="cls-3" d="M41.66,58.77c-4.07-.54-4.62,1.83-8.85-.65-1.88-1.1-1.6-2.18-4.13-2.57-1.74-.28-3.14,1-4,.9-2.07-.29-2.48-2-4.52-2.39s-2.45.73-4.11.93c-2.82.33-6.24.55-8.89-.65a37.45,37.45,0,0,0,10,9.06,4.06,4.06,0,0,1,2.1-1.63c2.1-.53,12.66,1.51,14.35,2.56.4.25,1.16,2.1,1.85,3.48a32.44,32.44,0,0,0,10.27-3.23A4.78,4.78,0,0,0,41.66,58.77Z"/><path class="cls-4" d="M48.71,12.13c1.07-1.09,1.8-3.8-.35-4.05-2.32-.28-1.64,2.5-2.11,3.78-.4,1.08-3.34,2.85-.93,4.41,2.13,1.39,4.08-2.8,3.75-4.51Z"/><path class="cls-4" d="M32.71,35.4c2-2.93.41-5-1.24-7.29-.61-.82-2,.06-2.58-1.2-.5-1.08,1.23-2.61.7-3.59-1.49-2.72-3.11-1.81-3.11,1.52,0,1.67,2,4.45,3.05,5.64-1.49,1.14-1.7,1.89-.13,3.13C22.64,41,39.76,41,32.71,35Z"/><path class="cls-4" d="M47,47.93C47,42.82,38.54,40.75,38.9,47c-1.48-1.78-6.68-4.92-7.15-.48-2.48-.05-7.61.09-9.88-.46C17,44.87,18.78,41,15.93,37.82c-2.62-2.92-9-3.71-9.23,2-.13,3.61,5.31,7.21,8.49,6-.06,3.81,8.72,1.19,11.7,1.62,2.61.38,6.93,4.19,9,2.42,1,1.67,2.61,2.16,4,.86.65,2.44,4.74,3.53,6.82,2.2C49.17,51.37,48.65,46.94,47,47.93Z"/><path class="cls-4" d="M36.74,6.31c1.55-3.8-8.52-6.1-8.13,1.29-2.78-1.21-6.4,1.25-5,4.48C18.7,10,7.82,16.55,14,21.86s12.92-6.17,14.35-11a17.45,17.45,0,0,0,3,.57c.91,1.85,2.52,1.71,3.57,3.19s-1,4.22,2.21,4.29C42,19,41.1,8.88,36.74,6.31Z"/><path class="cls-4" d="M53.29,21.53c1.94-1.53,5.81-5.08,3.79-7.84-2.2-3-5.79-.3-5.2,2.84-3.08.41-3.71,3.53-3.58,6.17a5.28,5.28,0,0,0-4.95.57c-2.61-2.52-9.88-2.95-6.82,2.53,2.3,4.11,9.7,2.7,11.73-.56,1.31,2.39,5.28,3,5-.45,1,5.61,6.84-2.3-.42-2.82Z"/><path class="cls-4" d="M48.37,58.67c2.82,1.49,6.24-.65,8.27-2.91,1.53-1.7,4.64-9.1-.17-7.13.77-.74.35-.85.78-1.53-4.49-1.26-5.12,4.26-3.55,7-1.87-.27-3.76.24-3.94,2.16-.76-.18-1.88,0-2.66-.21-.39,1.33.35,1.18,1.27,1.72Z"/><path class="cls-4" d="M3.62,30c.1.42,0,.84.07,1.27,3.64.83,5.11-4.73,1.31-5.4C6.58,24.46,8,21,5,20.54a6.27,6.27,0,0,0,2.27-5.21c2.67-.18,6.39-2.84,5.68-5.82-3.27-.27-7.26,7-8.47,9.56C3.53,21.1-1.54,32.13,3.62,30Z"/><path class="cls-4" d="M53.74,40.32c2.23,3,3.91-8-.93-7.33-.26-2.65-3.49-2.71-4.05,0-3.9-1.43-6,3.14-2.18,4.64,1.63.64,3-.92,4.6-.12,1.38.71.74,2.81,2.11,3.71Z"/><path class="cls-4" d="M66.27,26.45c.48-1.48.62-6.19-2.24-5.87-4.17.46-.36,5.2-.1,6.29.44,1.82-.4,5.45,2,6.2,3.58,1.12,0-4.47-1-5.28Z"/><path class="cls-4" d="M32.26,60c-.43-3-4.43-4.72-5.44-1-2.76-.29-6.86-3.14-9.24-1.44-1.73-4.14-7.25.09-4.3,3,1.11,1.11,7,.42,8.69.69,3.17.51,5,.11,8.1.08s5.24,2.88,7.49,1.76c.07.74.55,1.37.59,2.12,3.09.85,4.39-2.16,2.63-4.43S35.65,60.06,32.26,60Z"/><path class="cls-4" d="M60.9,36.29c1.9-3,0-9.09-4-6.43-.14-.52-.36-1-.51-1.55-6-.86.43,3.92,1,4.83a9.46,9.46,0,0,1,1.3,6.1c-.16,1.65-1.07,4.27.49,5.24,4.69,2.91,2.62-6.09,1.34-7.74Z"/><path class="cls-5" d="M20.18,17.5c6.1-4.56-7.74-8.06-4.53-1.35-2.5.86-5.88,3.27-1.29,4.5,3.31.89,4.25-2.5,6.27-4Z"/><path class="cls-6" d="M14.36,41.66c1.09-6.95-7.45-5.65-4.62-2.2-7.67-.33,7.5,12.37,4.62,1.76Z"/><path class="cls-5" d="M44.34,50.16c1.26-1.42.84-5.15-1.79-5-3.6.25-1.24,4.72,1.35,5Z"/><path class="cls-5" d="M41.21,23.76c-6.61-6.33-1.31,9.48.9,2.24Z"/><path class="cls-5" d="M35.84,9.44c-1-1.85-4.56-7.89-4.92-2-.15,2.32,3.73,7.27,5.37,3.36Z"/><path class="cls-5" d="M39.87,63.14c0-4.58-2.86-1.78-4.48-2.19-2.22-.57-3.77-2.31-6.22-2.22,1.57,2.58,4,1.7,6.22,3.18,1.72,1.14,2.17,3.71,4.39,3.88a5.61,5.61,0,0,0,.54-3.1Z"/><path class="cls-5" d="M64.48,33.55A35.31,35.31,0,0,0,61.34,37c.56-3.74.89-9.62-3.14-7.15-3.3,2-.25,9.63,2.26,11a2.7,2.7,0,0,0,.89-2.29C62.57,36.92,66.19,34.64,64.48,33.55Z"/><path class="cls-7" d="M66.13,25.78c-1.44-3.26-5.89-10-7-13.18-.52-1.45-.81-2.71-1.21-3.91A34.24,34.24,0,0,0,34.85,0a30.48,30.48,0,0,0-5.46.51c2.73,3.18,8.14,6.08,9.91,7.58,3.58,3.05,5.63,7.13,3.61,11.65-.83,1.87-2.26,2.46-2.6,4.57-.32,1.91,1.17,4,.91,6.19-.58,5-6.75,13.54-12.46,13.44-3,0-3.62-2.69-5.56-3.87-1.2-.72-3.42-.94-4.36-1.62-2.41-1.76-1.95-3.9-5.38-4.4-4-.58-3.25,1.71-5.81,3.39-3,2-5.57,1.6-7.49,0C1.21,47.54,7.51,56.87,15.8,62.5c6.09,2,11,4.1,16.6,3.5C50.5,64.06,74.37,44.36,66.13,25.78Z"/><path class="cls-8" d="M52.73,4.87C47.57,7.24,51,14,52.59,17.36c2.13,4.43,3.83,10,2.43,14.88-1.14,3.93-4.68,4.1-6.66,7.06-1.31,2-.44,3.68-.86,5.85C46.63,49.64,43,54.43,38,53.88c-1.33-.15-3.36-1.4-4.71-1.63-.66-.11-1.85.77-3.1.51-1.64-.35-2.89-2.39-4.25-3.08-4.7-2.37-11.06-1.83-12.36,4.26-2.17,10.2,8.69,7.79,14.14,9.16,4.13,1,4.45,4.32,9.84,2.19,2.6-1,6.6-3.49,6.43-6.6,3.34,2.77,9.75.35,12.35-2.23,4.38-4.35,4.92-9.63,4.21-15.3,7.17,0,4.19-7.38,2.34-11.28,5.61-.6.48-11.9-1.06-14.3l2.84,1.86A32,32,0,0,0,52.73,4.87Z"/><path class="cls-9" d="M34.5,4.52C30.8,0,19.71,2.45,19.67,8.93c-5.21-.16-7.41,1.73-10,6.11-1.29,2.16-1,2.57-2.87,4.71s-4.09,4.45-5,7.59c-1.32,4.8.31,10.79,6.05,11.17,2.35.16,2.91-2.21,5.28-.54,1.13.8,1.26,3.73,3,4.92,7,4.73,15.07,1.61,15.76-6.55,4,2.2,7.56.82,9.34-3.63a13.79,13.79,0,0,0,.66-6.5c-.41-1.56-2.48-2.78-2.52-4.24,0-2,12.47-9.79,5.34-10.3.9-.43,2.12-3,.66-4.46C50,2.86,37.78,4.07,34.5,4.52Z"/><path class="cls-10" d="M28.68,16.6c3.33-4.2-4.06-9.84-5.92-5.87C21,9.86,19,10.18,18.3,12.08,7.72,5.6,1.08,36.84,16.17,27.28c2.56,3.08-1.27,6.91,4.32,8.15,6.68,1.49,9.34-6.58,9.16-11.63C37.09,27.23,37.54,10.26,28.68,16.6Z"/><path class="cls-11" d="M19.29,12.31c-.13,0-.17.2,0,.23a2.68,2.68,0,0,1,2,2,2.9,2.9,0,0,1,0,1.31c-.05.19-.86,1.6-1,1.17a.32.32,0,0,0-.53-.14A6.26,6.26,0,0,0,18.4,19c-1,1.75-2.44,2.13-4.32,1.59-.06,0-.11.06-.06.1a3,3,0,0,0,3.39.19c1.33-.73,1.54-2.24,2.47-3.25l0,0a.3.3,0,0,0,.35.14C23.06,16.84,22.27,12.14,19.29,12.31Z"/><path class="cls-11" d="M15,42.48a6.27,6.27,0,0,1,0-2.76c.37-2.31-3.05-4.58-5-3.4a.14.14,0,0,0,0,.25,21.45,21.45,0,0,1,2.39.33,3.71,3.71,0,0,1,1.64,1c.83.95.44,1.64.26,2.66-.33,1.75,2.06,4-.68,5.1,0,0,0,0,0,0,.92,0,1.37-.73,1.53-1.59A3.73,3.73,0,0,0,15,42.48Z"/><path class="cls-11" d="M33.17,5.24s-.06,0,0,0a9.94,9.94,0,0,1,2.64,3.49,4.42,4.42,0,0,1,.38,1.92c-.1,1.4-1.18,1.2-2.22,1-.12,0-.24.13-.13.22,1.36,1.21,2.91.2,2.86-1.48C36.6,8.47,35.05,5.92,33.17,5.24Z"/><path class="cls-11" d="M41.74,25a4.13,4.13,0,0,0-3.06-2.76.05.05,0,0,0,0,.1,4.55,4.55,0,0,1,2.52,2.34,2.7,2.7,0,0,1,.33,1.67c-.17.77-.82.86-1.39,1.24a.09.09,0,0,0,.05.16C41.72,27.93,42.16,26.11,41.74,25Z"/><path class="cls-11" d="M15.85,27.26c-1.77-.07-1.4-1.3-1.77-2.48a.18.18,0,0,0-.19-.11c-2.68.59-5.31-.38-4.78-3.68a24.5,24.5,0,0,1,.8-3.49c.91-2.85,2.39-5.39,5.5-6,0,0,0,0,0,0-4.48-1.41-6.75,7.72-6.76,10.64,0,2.64,2.22,2.83,4.32,3,1.54.11.5,1,1.16,1.91.42.59,1.12.46,1.75.37C16,27.41,15.94,27.27,15.85,27.26Z"/><path class="cls-11" d="M29.4,16.57s0,.1.05.07c1.53-1,3.51-1.38,4.64.41a3.87,3.87,0,0,1,.27,3.5,8.57,8.57,0,0,1-1.72,2.89,2.38,2.38,0,0,1-1.19.81c-.7.12-1-.41-1.52-.72a.1.1,0,0,0-.15.11C30,25,31.53,25,32.42,24.37A7.49,7.49,0,0,0,35,20.46C36.06,16.87,32.34,13.73,29.4,16.57Z"/><path class="cls-11" d="M30,30.63s0,0,0,0a1.14,1.14,0,0,0-1.52,1c-.07.57.92,2.27,1,2.06-.06.14-1,.67-1.14.86a2.87,2.87,0,0,0-.58,1.32,1.66,1.66,0,0,0,1.3,2,.11.11,0,0,0,.08-.2,1.68,1.68,0,0,1-.92-2.21A2.34,2.34,0,0,1,29.87,34a.17.17,0,0,0,0-.3C28.65,32.92,28.23,30.9,30,30.63Z"/><path class="cls-11" d="M44.84,47.3c-.28-1.1-1.28-2.67-2.62-2-.09,0,0,.16.06.15,1.31-.26,2,.7,2.36,1.88.25.9.35,2-.62,2.47,0,0,0,.08,0,.09C45.21,50.22,45,47.83,44.84,47.3Z"/><path class="cls-12" d="M64.75,33.89c-.85-.88-2.38.63-3.23,1.65.26-2.21.9-6.77-2-6.32-.07,0,0,.11,0,.13,2.73,1,1.44,4.74,1.46,6.93a.23.23,0,0,0,.42.11,6.1,6.1,0,0,1,1.26-1.47c.16-.15,1-1,1.33-.89.71.22,0,1.35-.24,1.59-.73.87-2.39,1.52-2.55,2.76a.13.13,0,0,0,.22.09c.91-1.16,2.24-1.92,3.11-3.09C64.89,34.94,65.23,34.37,64.75,33.89Z"/><path class="cls-12" d="M40.6,62.66a.17.17,0,0,0-.21-.12c-1,.37-.79-1.94-1.36-2.42-1-.85-2.67.52-3.78.46,0,0,0,0,0,.05.74.33,1.39,0,2.11-.25,1.44-.44,1.71.32,1.91,1.48.06.37.11.89.49,1.08.12.05.31,0,.39.05.36.19.33-.27.31.74,0,.37-.08.69-.06,1.05a.09.09,0,0,0,.17,0A3.09,3.09,0,0,0,40.6,62.66Z"/><path class="cls-12" d="M57.09,14.42c-.38-2.13-2.22-2.73-3.66-1.11,0,0,0,0,0,0,2-1.64,3.42-.06,3.33,1.81a7.78,7.78,0,0,1-1.19,3.12,44.6,44.6,0,0,1-2.76,4.06c-.12.16.16.38.28.22C54.72,20.49,57.61,17.27,57.09,14.42Z"/><path class="cls-12" d="M34,35.84c-.61-.83-.26-.92-.09-1.9.32-1.84-.9-3.62-2.28-4.73a.1.1,0,0,0-.15.12c1.22,2.24,2.72,3.34,1.38,6.07a.24.24,0,0,0,.09.32c3.07,1.73-.61,4.05-2.86,2.63,0,0-.07,0,0,.06,1.25,1.42,4.88,1.06,4.66-1.35C34.61,36.52,34.24,36.25,34,35.84Z"/><path class="cls-12" d="M55,33.77c-.69-1-1.57-1.5-2.61-1.07a1.73,1.73,0,0,0-1.24-2C49.83,30.43,49,32,48.77,33a.05.05,0,0,0,.09,0c-.18.29.66-1,.61-.92l.48-.59c1.69-.06,2.33.45,1.93,1.52a.23.23,0,0,0,.34.26l1.89.1a3,3,0,0,1,.62.77,4.05,4.05,0,0,1,.66,1.94c0,.86-.22,1.7-.23,2.56a.08.08,0,0,0,.14,0A4.88,4.88,0,0,0,55,33.77Z"/><path class="cls-12" d="M58.87,48.89a1.44,1.44,0,0,0-2.1-.92,3.35,3.35,0,0,0,.38-.92.14.14,0,0,0-.1-.18c-1-.29-1.51.15-2.28.74,0,0,0,0,0,0,.48-.35.9-.72,1.44-.27s.31.41-.05.91c-.09.12.09.28.21.21,1.69-1.07,2.6.46,2.34,2A6,6,0,0,1,57.41,53c0,.06.05.12.11.08A3.81,3.81,0,0,0,58.87,48.89Z"/><path class="cls-12" d="M33.63,44.51a2.5,2.5,0,0,0-1.06.66c-.18.18-.42.89-.58,1a5.38,5.38,0,0,0-.81-.12c-1,.12-1.63.74-2.76.29-.12-.05-.23.14-.13.22,1.07.88,2.87-.64,3.63.16a.23.23,0,0,0,.37-.09c1.37-3.66,5.17-.83,6.81.91,0,0,.08,0,.06,0C38.38,45.61,35.69,43.88,33.63,44.51Z"/><path class="cls-12" d="M19.4,50.26c-2.24,1.32-4.32,2.22-6.95,1.31a12.68,12.68,0,0,1-6-5c-2.27-3.37-3.11-8.35,0-11.45,0,0,0,0,0,0-4.12,2.71-2,9.31.32,12.45,1.58,2.12,3.82,4.15,6.48,4.72,2.11.46,4.92-.07,6.24-1.9C19.53,50.29,19.45,50.23,19.4,50.26Z"/></g></g></g></svg>