<svg xmlns="http://www.w3.org/2000/svg" viewBox="0 0 65.27 65.27"><defs><style>.cls-1{isolation:isolate;}.cls-2{fill:#8f5d17;}.cls-3,.cls-8{fill:#321c13;}.cls-3{opacity:0.44;}.cls-4{fill:#f96974;mix-blend-mode:overlay;}.cls-4,.cls-6{opacity:0.2;}.cls-5{fill:#50005b;}.cls-5,.cls-8{opacity:0.3;mix-blend-mode:multiply;}.cls-6,.cls-7{fill:#ffb6bf;mix-blend-mode:screen;}.cls-7{opacity:0.17;}</style></defs><g class="cls-1"><g id="Camada_2" data-name="Camada 2"><g id="icons_planets"><circle class="cls-2" cx="32.63" cy="32.63" r="32.63"/><circle class="cls-2" cx="32.63" cy="32.63" r="32.63"/><path class="cls-3" d="M21.6,17.76c-2.05-4.71-7.42-.7-2.35,1.92-.42.5-.62,1.36-1,1.82,3.19,1.88,5.86-1,4.3-4.22Z"/><path class="cls-3" d="M36.47,15.36c-.7-1.32-1.27-2.88-1.87-4.21,2-1.51,3.14-.87,2.8,1.65,1.19.12,6.1.64,7,1.54,5,5-6.3,12.32-8.41,2.46Z"/><path class="cls-3" d="M26.4,26.88a2.81,2.81,0,0,0,2.32.4c.56-2.31-.8-4.52-3.28-4.14-3.59.53-2.07,3.65-2.82,5.68-.61,1.62-2.66,1-1.93,3.93.51,2.08,3.22,3.38,5.12,3.26,5.18-.33,4.32-5.62,2-8.65Z"/><path class="cls-3" d="M33.11,25.44c-1.75,2.32-1.74,5.36,1.84,5.2,1-2.07.2-4.17-1.36-5.68Z"/><path class="cls-3" d="M44.15,25.92c-1-2.32-3-1.68-3.95.48-1.59,3.59,2,2.78,2.66,4.65.92,2.58-1.7,4.13-1.15,5.93a2.56,2.56,0,0,0,4.76.47c-.08-.13,0,1.24,0,1,2.56-.82.94-3.59-.05-3.81,2.47-1.1,5.22-6.49,1.57-5.45,4.58-1.07-2.1-7-4.34-2.31Z"/><path class="cls-3" d="M10.56,24.48c.37.08.46.82,1.37.4,1.14-5.15-6.19-2-4.35,1.84-1.28-2-5.26,2.19-1.32,4.7,4.18,2.67,8.54-3.19,3.82-5.5Z"/><path class="cls-3" d="M21.12,50.87c-4.95,4.74-14.69-7.47-8.64-9.5,3.1-1,2.66,3,5.28,3.52,1.33.28,8.55-3.19,5.22,2.47,4.13-3.07,5.94,8.59-1.86,3.51Z"/><path class="cls-3" d="M16.8,40.31c.06,4.34,4.2,1.43.81-.81-1.23.27-.43.62-.81,1.29Z"/><path class="cls-3" d="M35.51,39.35c-1.56,1.78-1.06,4.18,1.83,4.26a4.24,4.24,0,0,0,1-3.7C37,39.4,36.81,40,36,40.79Z"/><path class="cls-3" d="M45.11,56.63c.27.67-.24.82.45,1.4,2.25-1,2.81-4.07-.45-3.8Z"/><path class="cls-3" d="M52.79,42.23c.1.47,0,.9.07,1.38,1.86-.45,2.3-1.94,1.41-3.74-1.15,0-1,.7-1.48,1.4Z"/><path class="cls-3" d="M55.6,24.16,54.71,24A5.1,5.1,0,0,0,56,28.29C56.88,26.67,56.9,25.46,55.6,24.16Z"/><path class="cls-3" d="M27.31,6.39a1.14,1.14,0,0,0-1-.49c-.16,0-.33,0-.49,0h.06l-.16,0h-.08a1.92,1.92,0,0,0-1.22.62,1.77,1.77,0,0,0-.65.83,2.19,2.19,0,0,0,0,1.08,1.54,1.54,0,0,0,1.43,1.11,1.43,1.43,0,0,0,.29,0h.09a1,1,0,0,0,.94-.24,1.23,1.23,0,0,0,.59-.74,6.84,6.84,0,0,0,.36-1.08A1.24,1.24,0,0,0,27.31,6.39Z"/><path class="cls-3" d="M28.88,15.14a.89.89,0,1,0,0,1.39A.7.7,0,0,0,28.88,15.14Z"/><path class="cls-3" d="M36,2.55a.81.81,0,0,0,0,1.62A.81.81,0,0,0,36,2.55Z"/><path class="cls-3" d="M45.59,8.33a.79.79,0,0,0,0,1.58A.79.79,0,0,0,45.59,8.33Z"/><path class="cls-3" d="M32.65,51.83a1,1,0,0,0-1.92.52c0,.32-.07.65-.1,1a2.93,2.93,0,0,0-.66.81.92.92,0,0,0,.76,1.37,4.06,4.06,0,0,0,.19.59.88.88,0,0,0,1.6-.21,8.08,8.08,0,0,0,.14-.88,1.69,1.69,0,0,0,.64-.6C33.78,53.54,33.08,52.57,32.65,51.83Z"/><path class="cls-3" d="M27.06,52.6a.84.84,0,0,1-.62-.33.74.74,0,0,0-1.05,0,.76.76,0,0,0,0,1,1.73,1.73,0,0,0,1.49.64.69.69,0,0,0,.18-1.36Z"/><path class="cls-3" d="M39.6,47.51a.73.73,0,0,0-1.45,0,1.45,1.45,0,0,0,.15.82.67.67,0,0,0,1.15,0A1.54,1.54,0,0,0,39.6,47.51Z"/><path class="cls-3" d="M49.43,46.77a.74.74,0,0,0,0,1.48A.74.74,0,0,0,49.43,46.77Z"/><path class="cls-3" d="M51.83,38.14a.73.73,0,0,0,0,1.46A.73.73,0,0,0,51.83,38.14Z"/><path class="cls-3" d="M60.35,35.61a4.62,4.62,0,0,0-1.39.77,4.81,4.81,0,0,0-.9,1.72,1.06,1.06,0,0,0,.48,1.2l.19.07a.89.89,0,0,0,1.09.41c.68-.26,1.68-.46,1.91-1.26a1.77,1.77,0,0,0,0-.65,3.69,3.69,0,0,1,.12-1.08A1.06,1.06,0,0,0,60.35,35.61Z"/><path class="cls-3" d="M40,58.88a1.07,1.07,0,0,0,0-.4c0-.33-.12-.67-.17-1a1,1,0,0,0-1.14-.68,1.11,1.11,0,0,0-.55,0,2.52,2.52,0,0,0-2,1.35,2.17,2.17,0,0,0,0,1.83.75.75,0,0,0,.15.2l.09.59a1,1,0,0,0,1.65.44,7.22,7.22,0,0,0,1.25-1.46s0,0,0,0A.62.62,0,0,0,40,58.88Z"/><path class="cls-3" d="M19.62,54.45c0-.15-.07-.29-.11-.44a.81.81,0,0,0-.9-.58.8.8,0,0,0-.71.8,3.26,3.26,0,0,0,.67,2,1.06,1.06,0,0,0,1.24.15,1.43,1.43,0,0,0,.65-1.2A.72.72,0,0,0,19.62,54.45Z"/><path class="cls-3" d="M44.39,59A.72.72,0,0,0,43,59a1.25,1.25,0,0,0,.12.83.7.7,0,0,0,1.21,0A1.25,1.25,0,0,0,44.39,59Z"/><path class="cls-3" d="M29.57,40.72c-.24-.43-.43-1-1-1.18a1.07,1.07,0,0,0-.59.05L28,39.48a.68.68,0,0,0-.86-.28.66.66,0,0,0-.41.55,1.87,1.87,0,0,0-.26,1.4c.28,1,1.52,1,2.34,1A.94.94,0,0,0,29.57,40.72Z"/><path class="cls-3" d="M11.8,34.62h0Z"/><path class="cls-3" d="M13.64,35.86l-.14-.18h0a2,2,0,0,0-.19-.22v-.12a1,1,0,0,0-.12-.7c-.3-.43-1.1-.59-1.36,0v0l-.1.17-.18.09a.78.78,0,0,0-.2,1,2.62,2.62,0,0,0,.45.49l.08.05a2.06,2.06,0,0,0,.42.46.88.88,0,0,0,1.14.07A.86.86,0,0,0,13.64,35.86Z"/><path class="cls-3" d="M11.8,34.62h0C11.91,34.41,11.82,34.58,11.8,34.62Z"/><path class="cls-3" d="M5.23,34.72a1,1,0,0,0-1.49-.15.64.64,0,0,0-1,.3,4.82,4.82,0,0,0,1.61,5.55.87.87,0,0,0,1.2-.32A5.08,5.08,0,0,0,5.23,34.72Z"/><path class="cls-3" d="M53,13.91l0-.06A.72.72,0,0,0,53,13a2.16,2.16,0,0,0-.27-.33,1.47,1.47,0,0,0-.61-.48c-.13-.23-.25-.46-.39-.68A.92.92,0,0,0,50,12a2.1,2.1,0,0,0,.38,1.22A2.91,2.91,0,0,0,51.8,15.1.88.88,0,0,0,53,13.91Z"/><path class="cls-3" d="M61.54,22.7a2.57,2.57,0,0,0-.35-.39,1.55,1.55,0,0,0,.05-.23c.08-.69-.73-.9-1.21-.6a.62.62,0,0,0-.6.77,3.15,3.15,0,0,0-.54,1.33c0,1,1,1.43,1.79,1.64a.81.81,0,0,0,1-.56A2.32,2.32,0,0,0,61.54,22.7Z"/><path class="cls-3" d="M26.11,60.28c-.16-.65-1.11-1.16-1.65-.62a1,1,0,0,0,.26,1.44l.28.29a.61.61,0,0,0,1-.56A.74.74,0,0,0,26.11,60.28Z"/><path class="cls-3" d="M11.25,51.91a2.65,2.65,0,0,0-.56-.69c-.76-.83-2,.47-1.23,1.23a3.09,3.09,0,0,0,.7.55A.8.8,0,0,0,11.25,51.91Z"/><path class="cls-3" d="M17.64,8.78a.74.74,0,0,0-1.45-.19,2.12,2.12,0,0,0-.07.45c-.57-.35-1.25.54-.73,1l0,0c0,.07,0,.16.05.22a1.31,1.31,0,0,0,.17.55c.38.64,1.15.53,1.75.33a.73.73,0,0,0,.53-.69C17.88,9.92,17.7,9.29,17.64,8.78Z"/><path class="cls-3" d="M10.36,17.07c-.24-.73-1.15-1.68-1.9-.89a.87.87,0,0,0-.15,1,5.84,5.84,0,0,0,.15.78A.72.72,0,0,0,9.78,18,.72.72,0,0,0,10.36,17.07Z"/><path class="cls-3" d="M39.14,33.7a1,1,0,0,0-.4-.71v-.08h0c.28-.81-.7-1.4-1.37-1h0l-.68.45a.93.93,0,0,0-.44,0,.85.85,0,0,0-.62.62,1.16,1.16,0,0,0,.16.77.94.94,0,0,0,.43.67,1.46,1.46,0,0,0,.57.47c.36.37.83.77,1.31.58a1.16,1.16,0,0,0,.22-.13.79.79,0,0,0,.39-.16A1.66,1.66,0,0,0,39.14,33.7Z"/><path class="cls-3" d="M47.2,41.29a5.73,5.73,0,0,0-4.55,1.16,3.61,3.61,0,0,0-1.14,1.67,6.75,6.75,0,0,0-.82,1.58,1.14,1.14,0,0,0,.79,1.39l.41,0A2.82,2.82,0,0,0,43,47.5a2,2,0,0,0,1.45-.73A6.15,6.15,0,0,0,48,42.71,1.15,1.15,0,0,0,47.2,41.29Z"/><path class="cls-3" d="M53.69,49.45a1.68,1.68,0,0,0-1.4.8,2.11,2.11,0,0,0-.24.53.75.75,0,0,0-.2.15c-.06.06-.21.29-.16.21s.05,0-.09.13a.54.54,0,0,0-.09.25,1.14,1.14,0,0,0,0,.37V52c0-.19,0-.15,0,.12a1,1,0,0,0,.08.39.9.9,0,0,0,1.48.39,8.4,8.4,0,0,0,1.53-2A1,1,0,0,0,53.69,49.45Z"/><path class="cls-4" d="M31.67,1.92c-3.72-3.15-7.2.75-10.58,2.14C16.91,5.79,11.93,6,11.47,12.41c-10.36,2.68-8.54,19-3,24.54C20,48.38,38.43,40,35.08,23.16c2.82,1.1,6.32-1.49,6.15-4.79,3.93,1.86,6.88-2.16,6.75-6.09C47.72,4.33,38.9,2,31.67,1.92Z"/><path class="cls-5" d="M32.63,65.27a32.64,32.64,0,0,0,13-62.58,12.28,12.28,0,0,0,.82,1.76c1.28,2.25,3.52,4,4.66,6.35,1.92,4,.64,2.1-.11,6-.67,3.47,1.22,4.81,1.34,8.06.08,2.17-1.67,4-1.51,6.74-9.09-.17-1.53,10.87-6.17,13-1.76.79-4-1-6-.88-2.92.22-4.55.63-5.38,4-2.55-.65-6.16-4.41-6.92.82-3.47-.56-6.72.21-9.51-2.22-1.89-1.65-1.55-3.66-3.81-4.72-2.65-1.24-5.69.81-8.17-.09S2.31,38,.33,37.21A32.62,32.62,0,0,0,32.63,65.27Z"/><path class="cls-4" d="M65.27,32.63a32.5,32.5,0,0,0-3.86-15.4,38.07,38.07,0,0,1,.88,4.35A34.7,34.7,0,0,1,59.88,39C52.68,55.7,35.44,64,18,59.28c-1.71-.46-4.72-1.81-7.57-2.74A32.63,32.63,0,0,0,65.27,32.63Z"/><path class="cls-6" d="M33.11,10.08c1.29-7.25-8.79-7.33-10.17-1.5-7.79-3.93-17.73,6.92-15.68,15C12,42,38.6,29.67,33.11,10.08Z"/><path class="cls-7" d="M22.08,18.24c7.68-6-1-14-8.2-6.24C4.67,22,21.23,31.59,24,18.24Z"/><path class="cls-7" d="M11.19,22.35c-.08,0-.13.12,0,.16A1.31,1.31,0,0,1,12,24c-.12.71-.65,1.2-1.31.68a.15.15,0,0,0-.25.06A2.46,2.46,0,0,0,10.27,26s0,0,0,0a5.58,5.58,0,0,0,.33-1C12.33,26.24,13.17,22.19,11.19,22.35Z"/><path class="cls-7" d="M11.73,26.7c-.06-.11-.22,0-.2.08a11.17,11.17,0,0,0,.64,1.45c.47,1.38-.73,2.86-1.86,3.54a4.88,4.88,0,0,1-5-.52s0,0,0,0c1.06,1.41,3.69,1.68,5.16.82a4.76,4.76,0,0,0,2.15-2.79C12.85,28.28,12.15,27.56,11.73,26.7Z"/><path class="cls-7" d="M22.7,17.5a.12.12,0,0,0-.2.08c0,1.19.83,2.14.1,3.34-1.07,1.77-2.93,1.39-4.47.6,0,0-.05,0,0,0,1.36,1.19,3.19,1.45,4.5,0A3.29,3.29,0,0,0,22.7,17.5Z"/><path class="cls-7" d="M20.73,15.81a3,3,0,0,0-2-.51s0,0,0,0a4.88,4.88,0,0,1,1.61.59,2,2,0,0,1,.67.65c.15.24.18.53.33.77a.11.11,0,0,0,.2,0C21.75,16.75,21.17,16.11,20.73,15.81Z"/><path class="cls-7" d="M37.89,11.13a2,2,0,0,0-1.23-1s0,0,0,0a2.29,2.29,0,0,1,1,1.18c.13.53-.19.92-.21,1.42a.1.1,0,0,0,.18.07A1.73,1.73,0,0,0,37.89,11.13Z"/><path class="cls-7" d="M43.41,13.59s0,0,0,.05c1.63,1.51,3.11,3.19,1.56,5.45-.95,1.39-2.52,1.82-4,2.48-.19.09,0,.33.13.31,2-.31,4.2-1.62,4.8-3.67A3.8,3.8,0,0,0,43.41,13.59Z"/><path class="cls-7" d="M25.68,5.76c-.05,0-.05.06,0,.06.58.07,1.31.17,1.63.73a1.36,1.36,0,0,1,.1,1c-.08.28-.32.37-.43.6-.26.52.1,1.06-.64,1.4a2.65,2.65,0,0,1-1.62-.08.13.13,0,0,0-.13.22,2.12,2.12,0,0,0,2.06.14c.66-.33.52-1.08.82-1.63C28.24,6.77,27.2,5.56,25.68,5.76Z"/><path class="cls-7" d="M29.3,15.07a.08.08,0,0,0-.08.14c.16.16.36.29.42.53a.72.72,0,0,1-.19.66c-.4.39-1,.16-1.52.13a.06.06,0,0,0,0,.11c.62.23,1.47.45,1.89-.24A.89.89,0,0,0,29.3,15.07Z"/><path class="cls-7" d="M17.32,7.85s0,0,0,0a3.55,3.55,0,0,1,.56,2.55c-.27,1-1.4.78-2.17.77a.09.09,0,0,0,0,.17,1.8,1.8,0,0,0,2.4-.61A2.83,2.83,0,0,0,17.32,7.85Z"/><path class="cls-7" d="M8.67,15.67s0,0,0,0a3.44,3.44,0,0,1,1.45,1.24c.37.74-.58,1.57-1.26,1.56a.15.15,0,0,0,0,.3c.8.24,1.73-.78,1.71-1.55S9.41,15.72,8.67,15.67Z"/><path class="cls-7" d="M4.84,34.24c-.08,0-.18.07-.1.13A3.86,3.86,0,0,1,6,38.15,5.93,5.93,0,0,1,5.73,40C5,41.57,3.37,39.71,2.83,39c0,0,0,0,0,0,.67,1.18,2.74,3,3.29.75C6.53,38,6.81,35.15,4.84,34.24Z"/><path class="cls-7" d="M13.46,35.6c.4-.52.09-1.14-.49-1.49-.11-.07-.28.07-.19.18.29.38.88.73.3,1.24a.17.17,0,0,0,.07.28c.63.23.43,1.06-.15,1.22s-1.18-.49-1.54-.92h0c.42.68,1.2,1.68,2.05,1A.91.91,0,0,0,13.46,35.6Z"/><path class="cls-7" d="M29.3,29.79a6.37,6.37,0,0,0-.59-1.37c-.58-.93-.39-.38-.21-.65s.43-.19.57-.48c.43-.88-.36-2.44-.73-3.23-.08-.17-.37,0-.31.13.15.45,1.35,3.46,0,3.11a.2.2,0,0,0-.23.29c1.24,2.09,2.37,5,.68,7.18-1.23,1.63-3.18,1.11-4.94,1.06,0,0,0,0,0,0,1.44.47,3.36.77,4.66-.21C29.91,34.35,29.94,31.65,29.3,29.79Z"/><path class="cls-7" d="M33.51,25.1s-.06,0,0,.07a3.85,3.85,0,0,1,1.88,3.21c0,.64.1,1.36-.45,1.76s-1.18,0-1.87,0c-.13,0-.2.21-.07.27.61.28,1.55.67,2.19.28s.63-1.21.64-1.83C35.82,27.15,35.21,25.64,33.51,25.1Z"/><path class="cls-7" d="M39.47,33.66A1.61,1.61,0,0,0,39,33c-.22-.26-.14,0-.12-.28,0-.09.08-.21.09-.31.07-.52-.26-.74-.74-.62,0,0,0,0,0,0,.68.12.56.67.29,1.06a.12.12,0,0,0,0,.17,1,1,0,0,1,.32,1.59,1.59,1.59,0,0,1-1.55.49c-.1,0-.13.15,0,.19A1.57,1.57,0,0,0,39.47,33.66Z"/><path class="cls-7" d="M47.43,34.61c-.27-1.88,4.46-4.29,1.83-6.14.58-.42.64-1,.25-1.81-.77-1.51-2.53-1.63-4-1.55,0,0,0,0,0,.05a7.61,7.61,0,0,1,2.74.67c.54.34,1.89,1.85.53,2.4a.24.24,0,0,0-.06.44c2.37,1.34-1,3.79-1.68,5.13a1.63,1.63,0,0,0-.29,1.11c0,.26.35.31.46.49a2.07,2.07,0,0,1,.51,2q-.26,1.16-1.62,1c-.16-.14-.45.05-.31.24.67.9,1.48.52,2-.34a2.64,2.64,0,0,0,.42-1.95C48.08,35.66,47.53,35.26,47.43,34.61Z"/><path class="cls-7" d="M36.58,2.44s0,0,0,0a1.29,1.29,0,0,1,.12,1.43c-.34.52-.8.22-1.28.21a0,0,0,0,0,0,.09,1,1,0,0,0,1.46-.27A1.24,1.24,0,0,0,36.58,2.44Z"/><path class="cls-7" d="M46.34,8.65a.06.06,0,0,0-.11,0,2.07,2.07,0,0,1-.17,1.18c-.25.5-.63.49-1,.15,0,0,0,0,0,0,.27.39.71.54,1.05.15A1.55,1.55,0,0,0,46.34,8.65Z"/><path class="cls-7" d="M53.22,14.28c-.07-.25-.07-.51-.12-.76A2.38,2.38,0,0,0,52,12c-.13-.09-.25.09-.16.2a3,3,0,0,1,.91,1.34,6.7,6.7,0,0,1,.17,1,.63.63,0,0,1-.74.73,1.74,1.74,0,0,1-.66-.44,4,4,0,0,0-.84-.74s0,0,0,0c.47.37.72,1,1.22,1.31a.9.9,0,0,0,1.33-.4C53.39,14.7,53.3,14.58,53.22,14.28Z"/><path class="cls-7" d="M54.14,40s-.1,0-.07.07a2.45,2.45,0,0,1,.5,2A2.06,2.06,0,0,1,53,43.71c-.07,0-.06.12,0,.11a2,2,0,0,0,1.68-1.59C54.9,41.58,54.89,40.35,54.14,40Z"/><path class="cls-7" d="M61,35.69c-.06,0,0,.17.06.14,1.14-.38.81,1.57.72,2.2a1.54,1.54,0,0,1-1,1.49c-.51.16-1,.16-1.53.36,0,0,0,0,0,0,.7-.12,1.63,0,2.2-.55A2.33,2.33,0,0,0,62,37.75C62.08,37.19,62.23,34.82,61,35.69Z"/><path class="cls-7" d="M57,25.44c-.18-.6-.66-1.71-1.45-1.4,0,0,0,0,0,0,.81-.12,1.22,1.12,1.3,1.74a3.18,3.18,0,0,1-1,2.58c-.1.1.05.24.16.15A3,3,0,0,0,57,25.44Z"/><path class="cls-7" d="M61.68,22.09a1,1,0,0,0-.9-.95c-.05,0-.06.07,0,.07.95,0,.48.84.55,1.24,0,.08.09.15.12.22a4.92,4.92,0,0,1,.37,1.2c.06.78-.46,1.47-1.32,1.25-.41-.11-.74-.53-1.14-.7-.08,0-.15.09-.08.15.47.42.93.91,1.61.85a1.22,1.22,0,0,0,1.19-1A8,8,0,0,0,61.68,22.09Z"/><path class="cls-7" d="M37.7,39.52c-.12,0-.08.2,0,.21,1,.13.53,1.3.44,2a2.33,2.33,0,0,1-.22,1c-.12.2-.27.33-.4.51a1,1,0,0,0-.22.51A5.45,5.45,0,0,1,34.87,43s-.06,0,0,0a4.58,4.58,0,0,0,2.57.92.14.14,0,0,0,.18-.14c.08-.62.75-.92.86-1.59s.18-1.13.24-1.69S38.47,39.29,37.7,39.52Z"/><path class="cls-7" d="M35.84,39.66a.6.6,0,0,0-.54-.35s-.06,0,0,.08a.84.84,0,0,1,.34.52c0,.19,0,.37,0,.55a.11.11,0,0,0,.19,0A.87.87,0,0,0,35.84,39.66Z"/><path class="cls-7" d="M47.83,40.86c-.14-.15-.34.07-.22.22,1.33,1.71-.6,3.65-1.77,4.83a4,4,0,0,1-2.56,1.47,10.46,10.46,0,0,1-2.83-.51c-.05,0-.09.06,0,.08a5.49,5.49,0,0,0,3.3.76,5.33,5.33,0,0,0,2.77-1.9C47.69,44.52,49.32,42.52,47.83,40.86Z"/><path class="cls-7" d="M25.7,46.73c-.55-.32-1.92.38-2.06-.14-.06-.22.57-.76.58-1.09s0-.44-.33-.76c-.11-.12-.3,0-.23.17.36.64-.47,1.56-.58,2.22a.18.18,0,0,0,.18.22c.41,0,.75-.21,1.14-.27,2-.31,2,1.72,1.64,3a2,2,0,0,1-2.23,1.84,4.6,4.6,0,0,1-2.86-1,.22.22,0,0,0-.23,0c-3.38,1.84-5.63-.51-8.27-2.28,0,0,0,0,0,0,2.4,2,4,3.86,7.42,3.08a1.94,1.94,0,0,1,1.4-.08,9.79,9.79,0,0,0,1.82.64,3.34,3.34,0,0,0,2.39-.22C26.62,51.22,27.13,47.58,25.7,46.73Z"/><path class="cls-7" d="M10.56,51a.08.08,0,0,0,0,.15,1.37,1.37,0,0,1,.79,1.67c-.48,1.08-1.54,0-2-.49,0,0-.05,0,0,0,.47.64,1.52,1.78,2.17.65A1.42,1.42,0,0,0,10.56,51Z"/><path class="cls-7" d="M20.69,54.69a1.24,1.24,0,0,0-.6-.53,1.32,1.32,0,0,1-.7-.43,1.29,1.29,0,0,0-.33-.33c-.09-.06-.18.07-.11.15.35.37.46.63.95.79a1.17,1.17,0,0,1,.61,1.7c-.51,1.14-1.66.5-2.3-.14,0,0,0,0,0,0,.49.74,1.68,1.44,2.36.49A1.58,1.58,0,0,0,20.69,54.69Z"/><path class="cls-7" d="M27.55,52.69a6.68,6.68,0,0,1-1.07-.91c-.07-.09-.2,0-.2.08,0,.69,1.09.86,1.37,1.39a.55.55,0,0,1-.22.69,1.34,1.34,0,0,1-.84.05,3.09,3.09,0,0,0-1.28-.08s0,0,0,0c.77.15,2.44.94,2.7-.34A.93.93,0,0,0,27.55,52.69Z"/><path class="cls-7" d="M33.54,52.55c-.19-.71-.41-1.37-1.2-1.52a0,0,0,0,0,0,0,2.35,2.35,0,0,1,1,1.55,4.79,4.79,0,0,1,.17.75.66.66,0,0,1-.21.74.64.64,0,0,1-.45.7l-.26.33c-.07.1,0,.24,0,.34l-1.15.8a4.69,4.69,0,0,1-.64-.62c-.08-.09-.21,0-.16.12.28.56.83,1.11,1.51.88A1.14,1.14,0,0,0,32.7,56c.07-.17,0-.37.09-.52.36-.92.28-.28.6-.63C34,54.12,33.79,53.45,33.54,52.55Z"/><path class="cls-7" d="M26,59.63c-.07-.05-.17,0-.15.08.16.52.56,1,.33,1.62-.34.83-1.23-.11-1.67-.31,0,0-.05,0,0,0,.43.37,1.23,1.21,1.77.53A1.75,1.75,0,0,0,26,59.63Z"/><path class="cls-7" d="M39.69,56.92a.1.1,0,0,0-.15.12,2.44,2.44,0,0,1,.4,2c-.16.43-.66.61-.95.94s-.39.65-.63.94a1.33,1.33,0,0,1-2.11.11.06.06,0,0,0-.1.06c.15.56.69.7,1.23.64a2,2,0,0,0,1.55-1.16c.36-.55,1.11-.81,1.32-1.44A2.09,2.09,0,0,0,39.69,56.92Z"/><path class="cls-7" d="M44.16,58.45c-.07,0-.14,0-.11.11a1.45,1.45,0,0,1,.19,1.18.8.8,0,0,1-.33.47.71.71,0,0,1-.66-.11,0,0,0,0,0-.06.07A.68.68,0,0,0,44.37,60C44.57,59.57,44.65,58.71,44.16,58.45Z"/><path class="cls-7" d="M46.35,54.13a.07.07,0,0,0,0,.14c2.36.36.42,4.78-1.05,3.88,0,0,0,0,0,0,.88,1,1.91-.75,2.15-1.47C47.74,55.8,47.81,53.92,46.35,54.13Z"/><path class="cls-7" d="M53.91,49.27a.08.08,0,0,0,0,.15c1.07.08.33,1.89,0,2.44-.55,1.07-1.38,1.84-2.56,1.16,0,0,0,0,0,0,1.05,1.34,2.44-.27,2.89-1.28C54.45,51.39,55.16,48.79,53.91,49.27Z"/><path class="cls-7" d="M18.06,39.66c-.06,0-.12.05-.07.09a2.75,2.75,0,0,1,1.08,1.91,1,1,0,0,1-1.18,1,1.9,1.9,0,0,1-1.11-.92s0,0,0,0c.45.85,1.66,1.58,2.31.49C19.59,41.39,18.83,40.15,18.06,39.66Z"/><path class="cls-7" d="M29.8,40.64A2.8,2.8,0,0,0,29,39.26c-.1-.06-.19.06-.14.15.33.7,1.24,1.62.74,2.48s-1.92.23-2.53,0c0,0-.05,0,0,0,.61.47,2.11,1,2.7.24A1.57,1.57,0,0,0,29.8,40.64Z"/><path class="cls-7" d="M39.47,47s-.11,0-.08.08a1.1,1.1,0,0,1,.13,1.09,1,1,0,0,1-.34.46c-.16.1-.31,0-.48.06a.07.07,0,0,0,0,.11c.31.44.89-.15,1-.44S40,47.18,39.47,47Z"/><path class="cls-7" d="M49.81,46.87s-.08,0-.06.06a1.19,1.19,0,0,1,.35.93c-.12.54-.8.44-1.2.28,0,0-.06.06,0,.07.28,0,.5.21.8.18a.58.58,0,0,0,.48-.33A1.05,1.05,0,0,0,49.81,46.87Z"/><path class="cls-7" d="M15.26,10.63a11.06,11.06,0,0,0-3.74,6.74c-.27,2.08.48,4.83,2.59,5.7.17.07.32-.2.18-.32-3.75-3.17-2.23-8.35,1-11.4,1.63-1.55,7.39-3.84,8.56-.69a.06.06,0,0,0,.11,0C23.36,7,17,9.17,15.26,10.63Z"/><path class="cls-7" d="M22.53,8.2C20.87,8,19.69,7.45,18,7.71a10.13,10.13,0,0,0-4.45,2C11,11.56,9.15,14.72,8,17.6a10.85,10.85,0,0,0,.22,8.58c1.21,2.88,3.45,4.55,6.25,5.76.2.08.36-.17.17-.29a38.66,38.66,0,0,1-3.47-2.16,9.38,9.38,0,0,1-2.67-3.95,10.54,10.54,0,0,1,.44-8.8c1.22-2.49,2.8-5.19,5.08-6.84A9.84,9.84,0,0,1,18.66,8c1.33-.15,2.56.34,3.87.25C22.56,8.24,22.55,8.2,22.53,8.2Z"/><path class="cls-7" d="M14.45,39.44c-2.67-1-4.84-2.08-6.57-4.45a22.1,22.1,0,0,1-3.42-6.15A14.78,14.78,0,0,1,7.51,14.71s0,0,0,0A14.39,14.39,0,0,0,4,29,22.57,22.57,0,0,0,8.12,36.1c1.66,2.06,3.85,2.76,6.28,3.53C14.53,39.67,14.57,39.48,14.45,39.44Z"/><path class="cls-7" d="M52.53,26.6a6.15,6.15,0,0,0,.54-3.51c0-.25-.47-.19-.45.07a5.86,5.86,0,0,1-1.47,4.35,4.1,4.1,0,0,0-.66,2.54,5.29,5.29,0,0,1-.86,2.06,5,5,0,0,1-1.17.53,4.48,4.48,0,0,0-.9.52,4.52,4.52,0,0,0-1.16,2.11A14.08,14.08,0,0,0,46,40.79a5,5,0,0,1-.37,2.93c-.92,1.44-3.39,1.05-4.76.6-1-.3-1.47-.76-2.47-.63a11.53,11.53,0,0,0-3.29,1c-1.38.67-1.74,2.54-3.73,1.82-.92-.33-1.51-1-2.59-1a2.06,2.06,0,0,0-1.45.67c-.76.68-1,1.26-2.11,1.44a11.91,11.91,0,0,1-2.07.06,10.49,10.49,0,0,1-5-1,9,9,0,0,1-2.95-2.94c-1.5-2-2.91-2.91-5.5-2.69-1.88.16-3.92.7-5.63-.37C2.81,39.92,2,38.53.87,37.52c0,0-.1,0-.06.06,1.43,1.64,2.64,3.71,4.94,4.11,1.73.31,3.45-.29,5.18-.22,2.15.1,3.12,1.48,4.29,3.07a8.13,8.13,0,0,0,5.71,3.51c1.95.27,4.65.59,6.19-.79,1.25-1.11,1.78-1.69,3.31-.82a11.62,11.62,0,0,0,1.16.71,1.81,1.81,0,0,0,2.13-.46c.53-.51.72-1.11,1.42-1.5a10.76,10.76,0,0,1,2.17-.77c1.79-.52,3.22.47,5,.69,1.54.19,3.26.14,4-1.47s0-3.79.11-5.61c.08-2,.75-4.21,2.66-5.08.81-.36,1.57-.71,1.87-1.62a11.57,11.57,0,0,0,.09-2C51.17,27.91,52,27.63,52.53,26.6Z"/><path class="cls-7" d="M3.12,28.74c-.76-.39-1.27.4-1.37,1.22a.76.76,0,0,0,.07,1,.59.59,0,0,0,0,.14.32.32,0,0,0,.3.31.45.45,0,0,0,.63,0A1.5,1.5,0,0,0,3,31C3.64,30.34,4,29.17,3.12,28.74Z"/><path class="cls-7" d="M2.24,27.07l0-.05A.13.13,0,0,0,2,27l0,.05C1.64,27.47,2.56,27.47,2.24,27.07Z"/><path class="cls-7" d="M15.85,6.74a.37.37,0,0,0-.28-.2h0a.51.51,0,0,0-.3,0,.57.57,0,0,0-.13.08,1.77,1.77,0,0,0-.3.16l0,.05a.27.27,0,0,0,0,.44s0,0,0,0,0,0,0,0h0s0,0,.06,0a1,1,0,0,0,.87-.12A.34.34,0,0,0,15.85,6.74Z"/><path class="cls-7" d="M24.19,4.38a1.47,1.47,0,0,0-.66,0,1.83,1.83,0,0,0-.5.12c-.53.25-1,.9-.75,1.46l-.12.14a.31.31,0,0,0,.29.51,1.76,1.76,0,0,0,.37-.17H23a2.07,2.07,0,0,0,.94-.67A1.28,1.28,0,0,0,24.33,5l.06-.08A.34.34,0,0,0,24.19,4.38Z"/><path class="cls-7" d="M30.42,18.69a.94.94,0,0,0-.15-.06,1.62,1.62,0,0,0-.1-.18.42.42,0,0,0-.55-.15,1.1,1.1,0,0,0-.55,1,.37.37,0,0,0,.06.21s0,.05,0,.08a.76.76,0,0,0,0,.15.27.27,0,0,0,.08.16h0a.64.64,0,0,0,.72.41c.47-.14.58-.78.64-1.18A.38.38,0,0,0,30.42,18.69Z"/><path class="cls-7" d="M19.29,27.41a.25.25,0,0,0-.13.46l0,0a.17.17,0,0,0,.17,0l0,0A.25.25,0,0,0,19.29,27.41Z"/><path class="cls-7" d="M16.21,26.55a.4.4,0,0,0-.53-.14,1.52,1.52,0,0,0-.83,1.12,1.86,1.86,0,0,0-.08,1.18.32.32,0,0,0,.3.24A1.59,1.59,0,0,0,16.21,26.55Z"/><path class="cls-7" d="M18.19,29.56a1.82,1.82,0,0,0-.46.06.29.29,0,0,0-.2.36.67.67,0,0,0,.06.12.23.23,0,0,0,.22.39c.36-.07.42-.25.62-.53A.27.27,0,0,0,18.19,29.56Z"/><path class="cls-7" d="M27,18.88a.37.37,0,0,0-.21-.18.65.65,0,0,0-.95.52v.45c-.22.77-.2,2.53.93,2.11S27.27,19.58,27,18.88Z"/><path class="cls-7" d="M24.59,20.37l.05,0a.06.06,0,0,0,.09,0l.05,0C25.05,20.11,24.32,20.1,24.59,20.37Z"/><path class="cls-7" d="M32.89,11.85c-.08-.63-.45-1.35-1.21-1.06s-.88,1.24-.86,1.87a1.42,1.42,0,0,0,.25.83,1.49,1.49,0,0,0,.51.9.53.53,0,0,0,.82-.1,2.69,2.69,0,0,0,.16-.29A1.6,1.6,0,0,0,32.89,11.85Z"/><path class="cls-7" d="M27.68,11.9c-.4-.14-1,.11-.86.61a.68.68,0,0,0,.18.29,1.12,1.12,0,0,0,.18.23.3.3,0,0,0,.36,0C27.91,12.8,28.37,12.14,27.68,11.9Z"/><path class="cls-7" d="M31.62,6.24a.52.52,0,0,0-.58-.1,1.18,1.18,0,0,0-.18.13.78.78,0,0,0-.21.09l0,0a.1.1,0,0,0-.16,0,3.07,3.07,0,0,0-.38.56,2,2,0,0,0-.32.92c0,.08,0,.17,0,.26,0,.63.4,1.13,1.05.87a2.72,2.72,0,0,0,1.52-1.76A.86.86,0,0,0,31.62,6.24Z"/><path class="cls-7" d="M14.88,16a.31.31,0,0,0-.43-.12,2.35,2.35,0,0,0-.33.3.94.94,0,0,0-.42.92,1.52,1.52,0,0,0,0,.6.34.34,0,0,0,.5.2,1.93,1.93,0,0,0,.56-.67A1,1,0,0,0,14.88,16Z"/><path class="cls-7" d="M17.22,20c0-.18,0-.37,0-.56a.46.46,0,0,0-.57-.43l-.06,0a.69.69,0,0,0-.61.25,1.31,1.31,0,0,0-.23.85c-.34.56,0,1.66.72,1.45a.46.46,0,0,0,.25-.1l0,0,0,0A1.55,1.55,0,0,0,17.22,20Z"/><path class="cls-7" d="M20.91,13.59a.3.3,0,0,0,0,.59A.3.3,0,0,0,20.91,13.59Z"/><path class="cls-7" d="M16.15,17.78a.28.28,0,0,0-.28-.21.5.5,0,0,0-.44.28v0a.46.46,0,0,0-.07.14c-.08.22.21.43.4.34l.19,0a.29.29,0,0,0,.27-.36A1.82,1.82,0,0,0,16.15,17.78Z"/><path class="cls-7" d="M23.69,14.27a.83.83,0,0,0-.22,0A.59.59,0,0,0,23,13.8a.89.89,0,0,0-1,.83.75.75,0,0,0,.52.71,1.1,1.1,0,0,0,0,.31.37.37,0,0,0,.67.09c0-.05.05-.11.08-.17a1.31,1.31,0,0,0,.65-.88A.35.35,0,0,0,23.69,14.27Z"/><path class="cls-7" d="M22.82,10.84A.89.89,0,0,0,22.06,12a.74.74,0,0,0,.05.36.24.24,0,0,0,.42.08.84.84,0,0,0,.54-.07.81.81,0,0,0,.16,0,.29.29,0,0,0,.26-.14C23.72,11.66,23.54,10.85,22.82,10.84Z"/><path class="cls-7" d="M17.83,13.55c0-.11,0-.24-.17-.23h0a.09.09,0,0,0-.13,0l-.2,0a.28.28,0,0,0-.19.47.5.5,0,0,0,.52.13A.21.21,0,0,0,17.83,13.55Z"/><path class="cls-7" d="M20.31,9.6c-.44.08-1,.67-.62,1.1a.21.21,0,0,0,.27,0c.13-.1.13-.2.18-.32a.2.2,0,0,0,.29,0,1.14,1.14,0,0,0,.19-.49A.26.26,0,0,0,20.31,9.6Z"/><path class="cls-7" d="M22.14,25s0-.05,0-.07a.49.49,0,0,0-.26-.27.8.8,0,0,0-.22-.13.36.36,0,0,0-.39.16,1.23,1.23,0,0,0-.14.31s0,0,0,0a1.65,1.65,0,0,0-.33,1v0c-.08.44,0,1.29.58,1.28s.84-.76.91-1.22A2,2,0,0,0,22.14,25Z"/><path class="cls-7" d="M30.12,23.21l0,0a.24.24,0,0,0-.41.17c0,.38.12.5.46.66a.27.27,0,0,0,.4-.16,1.5,1.5,0,0,0,.08-.47A.28.28,0,0,0,30.12,23.21Z"/><path class="cls-7" d="M18.75,35.71a.06.06,0,0,1,0,0,.42.42,0,0,0-.4-.52h-.08a.75.75,0,0,0-.85.12,1.41,1.41,0,0,0-.54,1,1.09,1.09,0,0,0,.24.69,1.72,1.72,0,0,0,.07.21.44.44,0,0,0,.68.08c.05,0,.08-.1.13-.15a1,1,0,0,0,.79-.79A1.16,1.16,0,0,0,18.75,35.71Z"/><path class="cls-7" d="M9,20.69a.44.44,0,0,0-.09.11c-.1,0-.15.16-.16.27a.16.16,0,0,0,.2.16l0,0a.17.17,0,0,0,.22,0c.09-.08.08-.16.14-.26S9.12,20.52,9,20.69Z"/><path class="cls-7" d="M40.53,3.51s-.05.05,0,.06C43.76,4.62,42,9.73,38.91,8.78A2.24,2.24,0,0,1,37.18,6.3a2.48,2.48,0,0,1,2.53-1.95,1.57,1.57,0,0,1,.94,2.76c-.4.43-2.61,1.48-2.39-.16.07-.49.71-.89,1.07-1.13.12-.08.05-.31-.1-.25-.67.24-1.51,1-1.33,1.82s1.49.92,2.16.6c2-1,2-4-.56-4-2.2,0-3.62,2.89-1.92,4.44A2.89,2.89,0,0,0,42,7.81,2.7,2.7,0,0,0,40.53,3.51Z"/><path class="cls-7" d="M38.6,24.78a1.6,1.6,0,0,0-1.71.46c-.34.55.24,1,.73,1.06a.09.09,0,0,0,.07-.16c-.25-.17-.45-.23-.46-.56s0-.32.27-.44a1.5,1.5,0,0,1,1-.09c.8.23,1.3,1.06.68,1.75a1.91,1.91,0,0,1-2.77-.05,1.89,1.89,0,0,1,0-2,2,2,0,0,1,2.33-.82s.05-.05,0-.06a2,2,0,0,0-2.55.7,2.18,2.18,0,0,0,0,2.4,2.22,2.22,0,0,0,2.94.28A1.35,1.35,0,0,0,38.6,24.78Z"/><path class="cls-7" d="M24.46,37.88a3.35,3.35,0,0,0-1.82.21c-.54.12-1.41.16-.94-.75a1.85,1.85,0,0,1,.84-.7,1.5,1.5,0,0,1,.72-.2c.57,0,.62.21.13.64-.11,0-.11.25,0,.23,1.28-.17.62-1.34-.43-1.17-.76.12-2.68,1.72-1.29,2.3.46.19,1.09-.08,1.54-.19s1.17-.31,1.54.31a1.28,1.28,0,0,1-.64,1.69c-.89.49-2.22,0-3-.59a2,2,0,0,1-.95-1.61,2.17,2.17,0,0,1,1.85-2s0,0,0,0a2.08,2.08,0,0,0-1.84,3.11c.67,1.1,2.64,2,3.9,1.5C25.19,40.14,25.83,38.4,24.46,37.88Z"/><path class="cls-7" d="M8.55,42.72c-1.38.47-1,2.91.35,3.16A.15.15,0,0,0,9,45.6a1.29,1.29,0,0,1-1-1.36c0-.51.27-1.35,1-1.24,1.22.21,1.42,2.78.93,3.62-.6,1-1.79.54-2.46-.08a2.7,2.7,0,0,1-.91-2.08c0-1.51,1.78-4.09,3.57-3,0,0,0,0,0,0a2.05,2.05,0,0,0-2.57.25,3.67,3.67,0,0,0-1.32,3.4c.27,1.52,2.93,3.84,4,1.7C10.71,45.79,10.39,42.09,8.55,42.72Z"/><path class="cls-7" d="M50.8,20.59c-1.13-1.8-2.45.36-1.24.94.08,0,.19,0,.14-.13-.29-.46-.44-.46.24-.63s.64,0,.86.56a4.46,4.46,0,0,1,.32,1.4c.06,1.16-1,1.2-1.83.62a3.14,3.14,0,0,1-1.18-2.09c-.16-1,0-2.8,1.19-3.16,1.44-.44,1.59,1.39,2,2.27,0,0,0,0,0,0-.29-.74-.22-1.91-1-2.37a1.53,1.53,0,0,0-1.93.46,3.82,3.82,0,0,0,1.48,5.6C52.11,24.9,51.47,21.65,50.8,20.59Z"/><path class="cls-7" d="M36.31,46.23a1.53,1.53,0,0,0-2.65,1.27c0,1.55,1.86,2.9,2.49.89a.13.13,0,0,0-.24-.1c-1.75,2.79-2.8-3.35-.26-2.06,1.2.61,1.44,2.83.61,3.81-1.12,1.32-2.54-.2-2.79-1.33a3.94,3.94,0,0,1,.5-3.14s0,0,0,0a3.88,3.88,0,0,0-.64,3.94c.48,1.17,2.08,2,3.15,1A3.35,3.35,0,0,0,36.31,46.23Z"/><path class="cls-7" d="M54.3,32.1A3.37,3.37,0,0,0,49.68,32a0,0,0,0,0,0,.05c1.33-.94,4.34-.91,4.6,1.15a2,2,0,0,1-2.63,2c-.89-.23-1.67-1.3-.33-1.76a1.5,1.5,0,0,1,.74-.12c.39,0,.55.25.5.88l-.47,0a.15.15,0,0,0-.07.27.91.91,0,0,0,1.35-.68c0-.86-1.11-1-1.73-.9s-1.75.63-1.5,1.54a2.1,2.1,0,0,0,2,1.24C54.06,35.76,55.65,33.74,54.3,32.1Z"/><path class="cls-7" d="M58.23,14.93A1.26,1.26,0,0,0,56.1,15c-1,1.26-1.27,4.51.4,5.41S58,18.2,57.85,17.35c-.11-.48-.35-1.59-1.07-1.23s-.41,1.89,0,2.43A.14.14,0,0,0,57,18.4a2.53,2.53,0,0,1-.34-1.09c-.13-.39.11-.55.69-.48a2.77,2.77,0,0,1,.12.41,5.16,5.16,0,0,1,.18,1.1,3.55,3.55,0,0,1-.12,1.38c-.46,1.24-1.43,0-1.64-.66a4.44,4.44,0,0,1,.16-3.45,1.81,1.81,0,0,1,.7-.82c.75-.33,1.33.31,1.56.92A5,5,0,0,1,58.51,18s0,0,0,0A3.15,3.15,0,0,0,58.23,14.93Z"/><path class="cls-7" d="M29.05,1.38a.36.36,0,0,0-.4-.16,1,1,0,0,0-.73.6.5.5,0,0,0,0,.21.49.49,0,0,0,.11.61.29.29,0,0,0,.32,0l0,0,.11,0a.5.5,0,0,0,.36-.11A.5.5,0,0,0,29,2.31.92.92,0,0,0,29.05,1.38Z"/><path class="cls-7" d="M32.84,3.35l-.06,0c-.31-.19-.31.47,0,.28l.06,0A.11.11,0,0,0,32.84,3.35Z"/><path class="cls-7" d="M35.35,7.31a1.07,1.07,0,0,0-.84,1.59A.6.6,0,0,0,35.4,9l0,0a.52.52,0,0,0,.34-.16C36.18,8.36,36,7.34,35.35,7.31Z"/><path class="cls-7" d="M35.76,21.18c-.27.26.24.62.39.3S36,21,35.76,21.18Z"/><path class="cls-7" d="M32,33a.5.5,0,0,0-.66.17,4.83,4.83,0,0,0-.26.45,1,1,0,0,0-.09.22,1.71,1.71,0,0,0-.11,1,.38.38,0,0,0,.24.3.41.41,0,0,0,.61.11.45.45,0,0,0,.27-.12C32.55,34.56,32.83,33.51,32,33Z"/><path class="cls-7" d="M33.22,40.63a.37.37,0,0,0-.36-.37c-.79.05-1.1,1-1,1.63a.37.37,0,0,0,.7,0s0-.06,0-.09a.35.35,0,0,0,.14,0A1.1,1.1,0,0,0,33.22,40.63Z"/><path class="cls-7" d="M4.1,43.65a1.4,1.4,0,0,0-.41-.74.34.34,0,0,0-.55.07,1.16,1.16,0,0,0,.7,1.52h0l.16.14c.21.15.5-.11.43-.33A2.58,2.58,0,0,0,4.1,43.65Z"/><path class="cls-7" d="M14.59,52.2a.34.34,0,0,0-.4.23.77.77,0,0,0,.54,1,.29.29,0,0,0,.24-.1l.14.14a.26.26,0,0,0,.43-.24A1.33,1.33,0,0,0,14.59,52.2Z"/><path class="cls-7" d="M46.12,22a1,1,0,0,0-.32,1.23c.13.29.56.12.56-.16a.23.23,0,0,0,.15-.15c0-.22,0-.44.05-.66A.3.3,0,0,0,46.12,22Z"/><path class="cls-7" d="M59,32.06V32a.14.14,0,0,0-.05-.11.31.31,0,0,0-.52-.13.84.84,0,0,0-.13,1.15.24.24,0,0,0,.31,0,.3.3,0,0,0,.43-.24A2,2,0,0,0,59,32.06Z"/><path class="cls-7" d="M57.89,47.88a3.87,3.87,0,0,0,0-.49c0-.41-.68-.4-.63,0,0,0,0,.06,0,.08h0l0,.16a.33.33,0,0,0,0,.12l.06.19c.06.32.51.22.52-.07Z"/><path class="cls-7" d="M63.24,31A.41.41,0,0,0,63,31a.16.16,0,0,0,0,.33.41.41,0,0,0,.22,0A.15.15,0,0,0,63.24,31Z"/><path class="cls-7" d="M23.26,55.62a.41.41,0,0,0-.39.5,2.28,2.28,0,0,0,.45,1h0s0,.06.07.08a.34.34,0,0,0,.34.12,1.08,1.08,0,0,0,.4.2.34.34,0,0,0,.43-.24A1.32,1.32,0,0,0,23.26,55.62Z"/><path class="cls-7" d="M33.51,63.57h.05a.17.17,0,0,0,.13-.13v0C33.83,62.46,32.58,63.71,33.51,63.57Z"/><path class="cls-7" d="M18.55,60.35a3.62,3.62,0,0,0-.88-.44c-.32-.1-.67.31-.46.6A.89.89,0,0,0,18,61l.25.06A.36.36,0,0,0,18.55,60.35Z"/><path class="cls-7" d="M43.39,50.31A2.73,2.73,0,0,0,41.48,52a.46.46,0,0,0,.21.5,1.47,1.47,0,0,0,1.86-1.14l.29-.49A.4.4,0,0,0,43.39,50.31Z"/><path class="cls-7" d="M60.1,43.2a3,3,0,0,0-.05-.43.15.15,0,0,0,0-.07.13.13,0,0,1,0-.06c0-.11-.13-.11-.21-.06a.29.29,0,0,0-.22.06.5.5,0,0,0,0,.73.19.19,0,0,0,.22,0,.23.23,0,0,0,.32-.21Z"/><path class="cls-7" d="M60.33,27a.41.41,0,0,0-.58.23A1.81,1.81,0,0,0,60,28.63a.3.3,0,0,0,.32.21h0a.37.37,0,0,0,.63-.22C61,28,61,27.24,60.33,27Z"/><path class="cls-7" d="M53,9.24a.83.83,0,0,0-.58-.49l-.3-.15a.36.36,0,0,0-.46.35,1.41,1.41,0,0,0,.89,1.4,3.08,3.08,0,0,0,.39.42.32.32,0,0,0,.52-.14A1.66,1.66,0,0,0,53,9.24Z"/><path class="cls-7" d="M50.09,7.15l-.07,0a.26.26,0,0,0,0,.46l.07,0C50.66,7.93,50.66,6.89,50.09,7.15Z"/><path class="cls-7" d="M53.67,20a.11.11,0,0,0-.15-.12.29.29,0,0,0-.37.13A1.25,1.25,0,0,0,53,21a.34.34,0,0,0,.22.22h0s0,0,0,0a.26.26,0,0,0,.47.06A1,1,0,0,0,53.67,20Z"/><path class="cls-7" d="M36.61,54.2l0,.07a.5.5,0,0,0-.59.41.23.23,0,0,0,.09.24.14.14,0,0,0,0,.1l.21.25a.24.24,0,0,0,.28,0,1.07,1.07,0,0,0,.52-.9A.3.3,0,0,0,36.61,54.2Z"/><path class="cls-7" d="M10.48,10.37a.67.67,0,0,0-.15-.14.35.35,0,0,0-.38,0h0l-.08.06a1,1,0,0,0-.42.66.62.62,0,0,0,.16.56.15.15,0,0,0,.16.13.23.23,0,0,0,.28-.07,2.4,2.4,0,0,0,.5-.86h0A.36.36,0,0,0,10.48,10.37Z"/><path class="cls-7" d="M42.93,4.05c-3.12-2-6.51-1.85-10.06-2.3a5,5,0,0,1-1.38-.17A10.27,10.27,0,0,0,30,.82a6.56,6.56,0,0,0-3.84.6A26.9,26.9,0,0,0,21.8,3.58a14.67,14.67,0,0,1-3.08,1.64,24.07,24.07,0,0,1-2.54.44C13.79,6.1,11.52,8.1,12,10.74a0,0,0,0,0,0,0c.25-2.12,1.26-3.94,3.41-4.59,1.29-.39,2.65-.31,3.91-.8,2.61-1,4.77-2.88,7.46-3.79a7.07,7.07,0,0,1,2-.48c1.3-.06,1.77.65,2.85,1.11a7.82,7.82,0,0,0,2.18.12,41.12,41.12,0,0,1,5,.41,15.29,15.29,0,0,1,4,1.57A.14.14,0,0,0,42.93,4.05Z"/><path class="cls-8" d="M23.47,24.76a8.67,8.67,0,0,0-.55,2.07c-.27,1.45-.32,2.27-1.44,3.27a2,2,0,0,0,0,3.18.06.06,0,0,0,.1-.08c-1-1.67.51-2.57,1.2-3.7A8.1,8.1,0,0,0,23.37,27a5.56,5.56,0,0,1,.85-2.51c1.37-1.69,3.5-.53,3.89,1.27a.18.18,0,0,0,.36,0C28.58,22.72,24.61,22.32,23.47,24.76Z"/><path class="cls-8" d="M34.34,29.89A3.73,3.73,0,0,1,33,29.51a1.6,1.6,0,0,1-.6-1.45,3.59,3.59,0,0,1,1.12-2.43s0-.11-.06-.1c-1.05.22-1.53,2.08-1.43,3a1.8,1.8,0,0,0,2.28,1.58A.11.11,0,0,0,34.34,29.89Z"/><path class="cls-8" d="M40.88,21.13a4.49,4.49,0,0,1-3.29-1.53,3.63,3.63,0,0,1-.89-3.71,3.23,3.23,0,0,0-.22-2c-.4-1-2-2.35-.71-3.22,0,0,0-.05,0,0-.67.28-1,.39-.86,1.17.09.5.56.86.81,1.27a3.88,3.88,0,0,1,.66,2.73,5.07,5.07,0,0,0-.29,1.56c.18,2.05,2.68,4.61,4.85,4A.14.14,0,0,0,40.88,21.13Z"/><path class="cls-8" d="M18.91,16.39a3.26,3.26,0,0,1,1.63.83s0,0,0,0a1.76,1.76,0,0,0-2.9-.73,1.72,1.72,0,0,0,.29,2.12c.48.49,1.18.73,1,1.56-.12.51-.44.88-.29,1.42a.2.2,0,0,0,.38,0,4.3,4.3,0,0,0,.5-2c-.15-.66-.81-.91-1.23-1.33C17.61,17.57,17.81,16.32,18.91,16.39Z"/><path class="cls-8" d="M10.83,22.37A4,4,0,0,0,7.37,25c-.13.48,0,1.16-.46,1.51,0,0-.81.15-.85.17a2.23,2.23,0,0,0-1,1.1C3.86,30.15,6.8,33.41,9.2,31.85a.17.17,0,0,0-.13-.31,3.31,3.31,0,0,1-3.14-.73c-1.16-1-1.07-4.22,1.3-3.87a.2.2,0,0,0,.24-.14,13.19,13.19,0,0,0,.22-1.38,3.88,3.88,0,0,1,3.15-2.92C10.91,22.48,10.9,22.37,10.83,22.37Z"/><path class="cls-8" d="M46.59,25.33c-.52-.07-2.54,0-2.12,1a.12.12,0,0,0,.16.05c.28-.18.39-.47.73-.61a2.55,2.55,0,0,1,1.26-.1A2.52,2.52,0,0,1,48.7,27s0,0,0,0C49.14,26,47.24,25.42,46.59,25.33Z"/><path class="cls-8" d="M44,37.94c-1.25.23-1.85-.35-1.78-1.75q.28-.7.63-1.38c.15-.35.31-.64.44-1a4.06,4.06,0,0,0,.15-2.64,3.1,3.1,0,0,0-1.11-1.3c-1-.76-1.88-1-1.61-2.76.14-1,1.33-3,2.64-1.74.06.06.15,0,.12-.09-.59-1.26-1.93-.56-2.59.32a2.87,2.87,0,0,0,.46,4.18c.47.4,1.12.69,1.43,1.25.63,1.14.09,2.45-.4,3.5a4.06,4.06,0,0,0-.72,2.59c.26,1.05,1.59,1.85,2.49,1.08C44.26,38.1,44.13,37.9,44,37.94Z"/><path class="cls-8" d="M47.32,42c-.7-1.18-3.1-.41-4,.1s-1.17,1.39-1.68,2.21-.8,1.14-.4,1.92c0,0,0,0,0,0A3.26,3.26,0,0,1,42,44.13a4.17,4.17,0,0,1,1.43-1.78c1-.56,2.64-.88,3.63-.16C47.23,42.28,47.39,42.1,47.32,42Z"/><path class="cls-8" d="M61.35,35.78c-.71-.51-1.67,0-2.22.51a1.85,1.85,0,0,0-.55,2.18s.07,0,.06,0a2.15,2.15,0,0,1,.76-2,2.34,2.34,0,0,1,1.91-.56C61.4,35.93,61.41,35.82,61.35,35.78Z"/><path class="cls-8" d="M56,27.7c-.47-1.1-1.12-1.8-.82-3.08a.08.08,0,0,0-.16-.05,3.57,3.57,0,0,0,.81,3.23A.1.1,0,0,0,56,27.7Z"/><path class="cls-8" d="M46.18,29.29c.64-.93-.56-1.41-1.33-1.22-1.22.3-.9,1.63.06,2.09,1.35.65,3.26-.56,2.76-2.13s-2.71-1.48-3.81-.64a1.72,1.72,0,0,0-.58,2.36,2.9,2.9,0,0,0,2.82,1.11c.06,0,.08-.1,0-.11A3.62,3.62,0,0,1,44,30a1.37,1.37,0,0,1,.13-2.29,2.27,2.27,0,0,1,2-.39A1.22,1.22,0,0,1,47.08,29a1.59,1.59,0,0,1-1.65.74c-.35-.07-1.1-.57-.82-1s1.48-.34,1.21.37C45.74,29.36,46.06,29.46,46.18,29.29Z"/><path class="cls-8" d="M27.8,30.12c-.55-1.47-1.88-2.13-2.59-.27-.29.75-.33,2.74.77,3,.89.18,1-1.25,1-1.83,0-.17-.3-.23-.32,0s0,.72-.18.85c-.8.16-1.16-.12-1.06-.83a1.77,1.77,0,0,1,.19-1c.46-1.15,1.17-1,1.62-.06a4.63,4.63,0,0,1,.4,3.2C27.26,34.35,26,35,25,33.93a4.38,4.38,0,0,1-1-3,6.48,6.48,0,0,1,.66-2.9c.68-1.29,1.56-1,2.63-.43,0,0,.06,0,0,0-.54-.48-1.24-1.06-2-.79-1.1.38-1.51,2.14-1.66,3.13-.25,1.64.44,5.82,3,5C28.62,34.22,28.36,31.62,27.8,30.12Z"/><path class="cls-8" d="M41.85,14.81c-1.56-.45-4.15-.09-3.87,2,0,0,0,0,.05,0,.17-4.36,8.82-.4,4.83,2.29-1.07.72-3.17,1-4.17,0-1.63-1.62,2.23-3.6,2.93-1.17a.17.17,0,0,0,.33,0c.23-1.84-2.58-1.79-3.54-1-1.33,1.17-.15,2.77,1.22,3.11S43.28,20,44,18.5C44.85,16.8,43.41,15.26,41.85,14.81Z"/><path class="cls-8" d="M21.4,19.29a.59.59,0,0,0-.59-.3c-.3.06-.45.4-.55.65,0,0,0,0,0,0,.13-.23.38-.6.69-.43a.78.78,0,0,1,.29.49,1.3,1.3,0,0,1-.51,1.37.85.85,0,0,1-.89.07c-.31-.24.12-.63.3-.8s0-.22-.13-.17c-.42.22-.91.76-.43,1.19a1.15,1.15,0,0,0,1.46-.13A1.55,1.55,0,0,0,21.4,19.29Z"/><path class="cls-8" d="M22.56,43.93c-1-.18-2.2.54-3.15.79-2.32.6-2.95-1-4.35-2.33-1-1-2.45-1.45-3.44-.15a3,3,0,0,0,0,3.7s.05,0,0,0c-.8-1.72.11-5.32,2.57-3.57,1.11.79,1.66,2.25,2.89,2.9A3.44,3.44,0,0,0,20,45.09c.39-.13,2-.82,2.36-.61s.06,1.27,0,1.57-.3.62-.36.79.36.48.48.2C22.88,46.16,24.34,44.24,22.56,43.93Z"/><path class="cls-8" d="M5.27,34.92a1,1,0,0,0-.78-.39c-.26,0-.37.2-.59.25s-.34-.09-.58,0a1,1,0,0,0-.43.55,3.85,3.85,0,0,0,1,4.28.12.12,0,0,0,.16-.17A4.58,4.58,0,0,1,3,36.84c0-.57,0-2,.93-1.68a.18.18,0,0,0,.19-.08c.27-.38.77-.2,1.1-.1C5.27,35,5.3,34.94,5.27,34.92Z"/><path class="cls-8" d="M26,6.05a2.31,2.31,0,0,0-1.65.68c-.73.79-.62,2.74.8,2.5a0,0,0,0,0,0,0,1.23,1.23,0,0,1-.91-1,1.52,1.52,0,0,1,.45-1.22,1.85,1.85,0,0,1,1.16-.47c.51,0,.69.24,1,.56A.11.11,0,0,0,27,7C27.12,6.4,26.5,6.07,26,6.05Z"/><path class="cls-8" d="M16.76,8.15c-.63,0-.64.56-.64,1-.18-.08-.38-.15-.57-.22a.16.16,0,0,0-.16,0c-.52.56,0,2.45.86,1.75a0,0,0,0,0,0-.06c-.48,0-.67-.33-.73-.75a1,1,0,0,1,0-.54c.09-.14,0-.07.14,0a1.4,1.4,0,0,1,.55.26.18.18,0,0,0,.27-.16c0-.25-.08-1.26.48-.85.22.16.3.51.41.75a.14.14,0,0,0,.25-.07C17.62,8.82,17.31,8.16,16.76,8.15Z"/><path class="cls-8" d="M35.8,2.83c-.36.13-.88.86-.35,1.13a.07.07,0,0,0,.1-.06c0-.17-.07-.32,0-.49a.61.61,0,0,1,.26-.33c.3-.19.51-.09.49.28,0,0,0,0,0,0C36.62,2.94,36.23,2.67,35.8,2.83Z"/><path class="cls-8" d="M45.29,8.54c-.43.23-.64.92-.14,1.21a.11.11,0,0,0,.15-.12c-.07-.29-.17-.59.14-.79s.45.08.64.3c0,0,.05,0,.05,0C46.31,8.62,45.69,8.32,45.29,8.54Z"/><path class="cls-8" d="M51.09,11.13a.79.79,0,0,0-1.08.29c-.53.79.24,2.21.84,2.76A.16.16,0,0,0,51.1,14a5.35,5.35,0,0,1-.84-2,.68.68,0,0,1,.22-.55c.24-.19.46-.06.65.12s.42.46.62.68c0,0,.07,0,.06,0A1.94,1.94,0,0,0,51.09,11.13Z"/><path class="cls-8" d="M60.1,21.3a1,1,0,0,0-.54,1.38,1.26,1.26,0,0,0-.48.79c0,.26.1.67.43.63a0,0,0,0,0,0-.06c0-.22-.23-.34-.18-.6a1.06,1.06,0,0,1,.46-.6.16.16,0,0,0,0-.24c-.32-.38,0-.83.38-1s.76.14.86.61c0,.15.23.1.24,0A.82.82,0,0,0,60.1,21.3Z"/><path class="cls-8" d="M9.63,16.63a3,3,0,0,0-.54-.39.83.83,0,0,0-1,.2.13.13,0,0,0,0,.13,5.44,5.44,0,0,0,.52,1,0,0,0,0,0,0,0c0-.19-.12-.36-.18-.54s-.15-.31-.13-.41c.07-.37.57-.18.76-.06s.58.66,1,.68a.11.11,0,0,0,.09-.17A1.84,1.84,0,0,0,9.63,16.63Z"/></g></g></g></svg>