<svg xmlns="http://www.w3.org/2000/svg" viewBox="0 0 557.98 329.16"><defs><style>.cls-1{isolation:isolate;}.cls-2{fill:#4e96a8;opacity:0.14;mix-blend-mode:color-dodge;}</style></defs><g class="cls-1"><g id="Camada_2" data-name="Camada 2"><g id="banner"><path class="cls-2" d="M296,80c15.71-20.36-13.44-79.63-41-67.43-5.83-8.22-12-6.73-19.95-8.32-17-3.41-29.53-8-46.25.92C152.81,24.48,141.41,61,142,98.67c-5.53-7.84-22.79-42.15-36.25-31C100.64,61.8,80.34,52.32,71.7,54.94,61.43,58,64,69.07,60.8,77c-11.58-4.45-27.6-7.78-38.68-2.07C7.15,82.61-1.33,100.37.17,117c2.71,30,25.76,38.47,44.39,56.05-9.35,3-25.07,28.14-6.88,24.16C6.88,218.88-9.13,278.34,23.82,303.9c16.39,12.71,36.71,19.27,56.81,13.66,18.31-5.11,25.84-17.8,40.13-27.4,13.63,21,26.38-7.31,35-16.8,3.77,3,5.87,9.18,11.18,9.55,7.13.49,15.85-12.7,18.89-18,.45,14.88,12.95,25.89,21.14,37.29,11.19,15.59,32.22,27.76,52.27,26.86,27.88-1.25,47.3-26.48,55.89-50.9,7.12-20.25,12.5-48.33,12-69.75,6.11,7.17,21.51,9.28,22.84-3.23,5.23,5.7,6.43,10.6,7.28,18.51,1.7,15.8,4.39,26,14.33,38.78,20.59,26.55,72.16,31.52,72.6-11.52,4.15,6.59,10.89,8.28,13-.94,12.2,9.13,36.89,4.5,46.42-6.86,14.78-17.62,13.38-36.65,3.57-55.09,27.88-3.2,52.09-46.33,17.78-59.83C550.38,117,579.72,67.17,534.15,64c14.79-2.49,14.45-36-2-29.24,8.89-12.55-12.24-20.07-20.76-21.42C486,9.33,465.2,18.72,448.87,38.17c-14.65,17.44-22.68,38.67-38.52,55.39-10.76,11.37-37.23,32.56-54.44,19.47-27.16-20.65,40.76-62.35,47.89-78.09,10.53-23.26-26.65-41.5-35.08-20.12-1.76-12-21.77-12.47-28-4-9.19-17-25.82,7.46-28.3,16.39C308.5,41.43,310,59.6,296,80Z"/></g></g></g></svg>