<svg xmlns="http://www.w3.org/2000/svg" viewBox="0 0 67.43 67.43"><defs><style>.cls-1{isolation:isolate;}.cls-2,.cls-3{fill:#3264ae;}.cls-3,.cls-7{mix-blend-mode:multiply;}.cls-4,.cls-5,.cls-6{fill:#60bfee;mix-blend-mode:screen;}.cls-4,.cls-7{opacity:0.47;}.cls-5{opacity:0.3;}.cls-6{opacity:0.26;}.cls-7{fill:#329693;}</style></defs><g class="cls-1"><g id="Camada_2" data-name="Camada 2"><g id="icons_planets"><circle class="cls-2" cx="33.72" cy="33.72" r="33.71" transform="translate(-8.08 56.65) rotate(-73.76)"/><path class="cls-3" d="M24.22,16.93c3.78.55,7.52,1.45,11.36,1.54s7.16-1,10.76-2.3a19.62,19.62,0,0,1,5.53-1.44c2.29-.16,4.25.72,6.3,1.62a11.7,11.7,0,0,0,5.11,1.15l-.15-.26a8.27,8.27,0,0,1-2.4-.25c-2.69-.71-5-2.47-7.81-2.59-3.07-.12-6,1.24-8.8,2.28A24.31,24.31,0,0,1,32.9,18c-3.31-.35-6.55-1.23-9.87-1.53-4.46-.4-8.94,1.66-13.08,3a35.21,35.21,0,0,1-7.59,1.85c-.06.13-.11.27-.16.41C9.36,21.23,17.47,15.93,24.22,16.93Z"/><path class="cls-3" d="M9.09,56.73a61.67,61.67,0,0,0,8.7-.9c1.95-.32,3.9-.84,5.85-1,2.94-.3,5.55.8,8.22,1.84,5.77,2.23,11.4,1.67,17.34.42,3.62-.76,7.28-1.48,10.89-2.34l.35-.45c-2.56.63-5.15,1.2-7.75,1.73-6.3,1.3-12.78,3-19.11.92-2.3-.77-4.51-1.93-6.93-2.33a15.92,15.92,0,0,0-5.79.38,71.89,71.89,0,0,1-12,1.48Z"/><path class="cls-4" d="M49.51,45.75c-.6.11-.36,1,.18,1,3.16,0,6.31-.39,9.43.07-1.57,1.11-4.06.94-5.85,1.5-2.86.89-5.17,2.42-8.28,2a14.85,14.85,0,0,0-5.23-.22c-3.08.57-4.67,1.08-7.55-.3-3.76-1.81-7.84-1-11.84-.64-.67.06-7.57,0-7.46,1l0,.24a.79.79,0,0,0,.41.64c3.8,1.61,8.15.71,12.15.67s7.81,2.26,11.64,1.31c1.1-.27,2.12-.79,3.23-1,1.8-.39,3.32.09,5.07.25a10.81,10.81,0,0,0,5.38-1A45.83,45.83,0,0,1,58,48.93a4.91,4.91,0,0,0,3.24-2.23.74.74,0,0,0-.49-1.05A28.08,28.08,0,0,0,49.51,45.75Z"/><path class="cls-4" d="M46.53,20.52c-3.47.89-6.88.07-10.37.59-3.06.46-5.31,3.57-8.44,3.26-2.34-.23-4.65-1-7-1.18a33.33,33.33,0,0,0-7.86.14c-3.29.53-10,2.09-10.39,6.25-.06.53.39,1.13,1,.9C5.1,29.82,6.5,28.67,8.2,28a39.15,39.15,0,0,1,6.52-1.55c2.26-.45,4.5-.88,6.8-1.12s4.66.73,7,.43c1.95-.25,3-1.41,4.51-2.45,3-2,6.38-1.28,9.75-1.36,5.78-.13,11.28-4.46,16.66-.48a.39.39,0,0,0,.52-.57C56.2,17.13,50.92,19.38,46.53,20.52Z"/><path class="cls-4" d="M50.4,32.55c-2.48.51-4.21,2.18-6.87,2.42s-5.32-.22-8-.2c-5.41,0-10.47,1.45-15.7,2.67A144.52,144.52,0,0,1,2.31,40c-1.12.12-1.41,1.87-.18,2.08,5.81,1,11.8-.31,17.32-2.1,6.27-2,11.92-4,18.63-3.88,2.59,0,5.29.37,7.8-.46,2.9-1,4.85-2.66,8.17-2.12,4,.67,7.93,2.15,11.22-1.08.28-.28-.14-.79-.45-.53C60,35.8,55.57,31.5,50.4,32.55Z"/><path class="cls-4" d="M36.54,8.9c-1.93.31-2.94,1.8-4.48,2.83-3.92,2.65-7.94.64-12.14.28a21.06,21.06,0,0,0-9,1.31s0,.07,0,.06c4.56-1.56,8.62-1.28,13.28-.45,2.52.45,5,.75,7.26-.63,1.08-.65,1.86-1.66,2.9-2.35,1.86-1.23,3.83-1.08,5.87-.44,2.7.84,4.62,1.59,7-.29a0,0,0,1,0,0-.05C43.64,12.28,40.29,8.31,36.54,8.9Z"/><path class="cls-4" d="M51.27,58.76c-1.51,3.27-4.21,2.23-7,2.66-2.44.37-4.05,2.42-6.39,3.07-3.52,1-6.41-1.14-9.82-1.67a30.3,30.3,0,0,0-7.61-.19,0,0,0,1,0,0,.06,29.19,29.19,0,0,1,12,1.56c2.17.72,4.24,1.12,6.39.13,1.41-.66,2.5-1.8,4-2.38,1.62-.66,3.08-.4,4.77-.52a3.89,3.89,0,0,0,3.74-2.69A0,0,0,0,0,51.27,58.76Z"/><path class="cls-5" d="M9.22,30.16a1.82,1.82,0,0,0-1.13,2.31A2.23,2.23,0,0,0,9,34.14a7.49,7.49,0,0,0,4.3,1.3,4.21,4.21,0,0,0,4.5-1.4,1.83,1.83,0,0,0-.12-2.5C15.57,29.35,12,29.1,9.22,30.16Z"/><path class="cls-5" d="M22.59,32.21a.82.82,0,0,0,1.64-.08A.82.82,0,0,0,22.59,32.21Z"/><path class="cls-5" d="M49.84,24.24c-2.52-1-6.5-.71-5.9,2.57.56,3.11,4.61,3,7.37,2.2,3.14,2.51,9.24,2,8.32-3C58.77,21.24,52.1,20.76,49.84,24.24Z"/><path class="cls-5" d="M49.33,21.27a.69.69,0,0,0-.25.91.46.46,0,0,0,.88,0h0l0,0,.08-.06a1.09,1.09,0,0,0,.13-.17.38.38,0,0,0,0-.41A.65.65,0,0,0,49.33,21.27Z"/><path class="cls-5" d="M37.85,40.54a2,2,0,0,0-.52.48,5.55,5.55,0,0,0-1.91,1.35,1.47,1.47,0,0,0-.37.66,3,3,0,0,0-.37.22.35.35,0,0,0-.15.31c.28,2,2.72,3.53,4.65,3.8A4.39,4.39,0,0,0,44,43.79c.21-1.88-1.48-3-3.15-3.26l-.53,0A2.54,2.54,0,0,0,37.85,40.54Z"/><path class="cls-5" d="M57.71,38.39a3.15,3.15,0,0,0,.36,1.34c.06.11.12.22.19.33l.11.19c0,.06.17.33.05.07a1.32,1.32,0,0,0,1.65.84,3.22,3.22,0,0,0,1.52-1.3,1.25,1.25,0,0,0-.17-1.37,1.13,1.13,0,0,0-.82-.41,1.78,1.78,0,0,0-1.46-.9A1.19,1.19,0,0,0,57.71,38.39Z"/><path class="cls-5" d="M6.29,49.73a6,6,0,0,0,.33,1.48,3.8,3.8,0,0,0,2.83,3.08l.11,0a2.39,2.39,0,0,0,1.87-.1c.74-.36.59-1.34.15-1.83a2.27,2.27,0,0,0-.72-.5A4.54,4.54,0,0,0,8.21,48.5,1.33,1.33,0,0,0,6.29,49.73Z"/><path class="cls-5" d="M26.76,4.79a6.41,6.41,0,0,0-1.49.93,1.25,1.25,0,0,0-.15,1.94,2.46,2.46,0,0,0,1.64.67,2.64,2.64,0,0,0,1.29-.51,1.16,1.16,0,0,0,.5-.72,1.07,1.07,0,0,0,1-.71A1.09,1.09,0,0,0,29,5,3.34,3.34,0,0,0,26.76,4.79Z"/><path class="cls-5" d="M35.74,27.48a.74.74,0,0,0,1.47-.07A.74.74,0,0,0,35.74,27.48Z"/><path class="cls-5" d="M49.14,7.33l.09.2a1,1,0,0,0,1.88-.09l.06-.21a1.05,1.05,0,1,0-2,.1Z"/><path class="cls-5" d="M39.06,4.72a.79.79,0,0,0-.38.88.74.74,0,0,0,.85.47A.6.6,0,0,0,40,5.13a.49.49,0,0,0-.12-.3A.59.59,0,0,0,39.06,4.72Z"/><path class="cls-5" d="M26.76,58.09c3.69,1.95,9.76,4,13.89,2.51a.65.65,0,0,0-.06-1.25c-2.18-.6-4.58-.25-6.84-.65S29.36,57.58,27.16,57A.59.59,0,0,0,26.76,58.09Z"/><path class="cls-6" d="M51.07,4.81a33.71,33.71,0,0,0-49.18,40c7.35,3.89,16.77,4.12,24.9,1.75C46.69,40.78,57.37,20.28,51.07,4.81Z"/><path class="cls-7" d="M59.64,12.17c-.07.14-.14.28-.2.43-1.66,3.87-1.34,9.24-3.13,13.5-3.33,8-8.19,14.94-16,19.09C27.64,52,15.7,53.11,4.2,50A33.71,33.71,0,1,0,59.64,12.17Z"/><path class="cls-7" d="M67.39,32.07a33.72,33.72,0,0,0-2.6-11.45c-1.35,4.35-1.78,9-3.47,13.27A35.85,35.85,0,0,1,49.43,49.28C43.27,54,34.65,56.86,27.16,58.71a38.82,38.82,0,0,1-15.07.86,33,33,0,0,0,3.38,2.49A49,49,0,0,0,44,59.24c9.29-4,16.76-9,21.07-18.54a66.4,66.4,0,0,0,2.39-6.44C67.43,33.53,67.43,32.81,67.39,32.07Z"/><path class="cls-6" d="M33,5.22C28.49,1.79,19.69,6.59,15.8,9.28c-6.21,4.27-13.27,14.38-9,22.28,3.77,7,13.11,6.72,19.22,3.84s10.93-6.46,13.85-12.65C43,16.13,42.35,6.56,33,5.22Z"/><path class="cls-6" d="M18.05,8.4C10.88,10.51,3.7,27.08,16.19,26S27.3,4.23,18.05,8.4Z"/></g></g></g></svg>