<?xml version="1.0" encoding="iso-8859-1"?>
<!-- Generator: Adobe Illustrator 16.0.0, SVG Export Plug-In . SVG Version: 6.00 Build 0)  -->
<!DOCTYPE svg PUBLIC "-//W3C//DTD SVG 1.1//EN" "http://www.w3.org/Graphics/SVG/1.1/DTD/svg11.dtd">
<svg version="1.1" id="Capa_1" xmlns="http://www.w3.org/2000/svg" xmlns:xlink="http://www.w3.org/1999/xlink" x="0px" y="0px"
	 width="32px" height="32px" viewBox="0 0 32 32" style="enable-background:new 0 0 32 32;" xml:space="preserve">
<g>
	<g>
		<path d="M28.312,16.358c0,0,1.059-0.429,3.688-0.086c-0.2-1.572-5.543-1.377-6.061-1.658c-0.518-0.281-8.231-4.659-10.375-2.572
			s5.629,6.917,6.172,7.316c0.545,0.399-1.284,3.346,1.945,4.632c-0.201-1.972-0.201-2.315,0.144-2.658c0,0,4.286,4.944,1.515,5.774
			c-2.373,0.6-6.201,0.17-6.201,0.17s-3.459-4.916-5.119-4.229c0.915,1.688,2.058,4.584,2.058,4.584s-1.601,0.764-3.773,2.647
			c1.572,1,5.574-1.715,7.604-1.114c6.088,2.173,10.489-2.144,11.005-6.574C31.428,18.159,28.312,16.358,28.312,16.358z"/>
		<path d="M15.729,20.114c2.402-1.783-4.662-7.604-5.147-8.073c-0.485-0.468,1.719-3.144-1.311-4.848
			C9.207,9.175,9.161,9.515,8.775,9.81c0,0-3.593-5.472-0.734-5.925c2.431-0.28,6.17,0.654,6.17,0.654s2.775,5.333,4.51,4.873
			c-0.683-1.793-1.431-4.815-1.431-4.815s1.688-0.543,4.091-2.124c-1.425-1.201-5.752,0.959-7.684,0.094
			C7.952-0.396,3.015,3.298,1.917,7.62c-1.099,4.323,1.75,6.521,1.75,6.521S2.561,14.427,0,13.737
			c-0.01,1.585,5.311,2.101,5.786,2.448C6.261,16.532,13.326,21.897,15.729,20.114z"/>
	</g>
</g>
<g>
</g>
<g>
</g>
<g>
</g>
<g>
</g>
<g>
</g>
<g>
</g>
<g>
</g>
<g>
</g>
<g>
</g>
<g>
</g>
<g>
</g>
<g>
</g>
<g>
</g>
<g>
</g>
<g>
</g>
</svg>
