<svg xmlns="http://www.w3.org/2000/svg" viewBox="0 0 123.18 63.65"><defs><style>.cls-1{isolation:isolate;}.cls-2{fill:#e5b883;}.cls-3,.cls-7,.cls-8{fill:#ac2024;mix-blend-mode:multiply;}.cls-3{opacity:0.41;}.cls-4,.cls-5,.cls-6{fill:#ffeacc;}.cls-4{opacity:0.82;}.cls-5{opacity:0.23;}.cls-10,.cls-5,.cls-6,.cls-9{mix-blend-mode:screen;}.cls-6,.cls-8{opacity:0.28;}.cls-7{opacity:0.21;}.cls-9{fill:#ffe4cc;}.cls-10,.cls-9{opacity:0.74;}.cls-10{fill:#edcbae;}</style></defs><g class="cls-1"><g id="Camada_2" data-name="Camada 2"><g id="icons_planets"><circle class="cls-2" cx="61" cy="31.82" r="31.82" transform="translate(0.83 65.2) rotate(-56.57)"/><circle class="cls-2" cx="61" cy="31.82" r="31.82" transform="translate(0.83 65.2) rotate(-56.57)"/><path class="cls-3" d="M50.22,43.14c-6.31.72-12.3,1.21-18.34,1.52A31.72,31.72,0,0,0,42.27,57.53c8.85,2.27,19.19,2.92,22.46-1.19-4.3-.14-8.84-.6-12.8-2.36,3.13,1.19,14.27.76,16.54-1.93-.91-.1-1.72-.42-2.63-.55,5.94-1,20.39-1.35,23.77-6.7-3.48-.36-7,2.22-10.13.28,3-1.89,7.5-2,11.56-2.79a31.86,31.86,0,0,0,1.13-4.1c-9.36,2-19.84,9.14-28.25,5.42,3.9-1.87,9.82-.82,12.77-4.49-4.08-.8-9.15,2.35-13.17,3.46-6.41,1.77-14,4.08-20.64,3.59C45.27,45.75,48.54,44.62,50.22,43.14Z"/><path class="cls-3" d="M31,21.22l-.21.59c4.25-.95,10.09-4.44,14.5-5.67,6.18-1.73,12.23-1.31,18.5-1.79-3.41.24-6.14,2.4-9,3.79,3.77.62,7.84-1.37,11.4-2.47,6.41-2,13-4.12,18.43-5.15-.48-.53-1-1-1.48-1.52a155.57,155.57,0,0,0-28.84.76C44.56,10.75,39,17.47,31,21.22Z"/><path class="cls-3" d="M29.8,38c3.88-.15,10.08-2.6,12.4-2.94a78.67,78.67,0,0,1,10.38-.93,10.49,10.49,0,0,0,3.74.57q1,0,2-.18c.22,0,.45.07.67.12l-.6-.13c4.49-.6,9-2.42,12.95-4.05,6.17-2.52,14.14-3.87,20.27-7.17-.12-.46-.26-.9-.41-1.35a221.15,221.15,0,0,1-24.16,9C64.31,31.79,59.49,34.26,56,34l-1.59-.34c-8.07-3.26,4.51-9.28,5.3-4.13-.57-1.56-5.32-.44-4.2,2.54,2.71-.24,6.91-1,8.18-3.59-3.47-1.72-11-4.63-13.8-.18-1.26,2.05-.75,3.59.52,4.66-6.26.1-14.89,0-20.93,2.87.08.55.16,1.11.26,1.67C29.72,37.69,29.76,37.86,29.8,38Z"/><path class="cls-4" d="M40.16,10.51c-.79.24-2.09.54-3.58.92a31.75,31.75,0,0,0-3.85,5.8c2.15-.89,4.14-1.92,4.71-2.21A76.83,76.83,0,0,1,51,9.41c6.69-1.8,13.55-.9,20.21-1.93-2.2-1-5.68-.51-7.61-1.72,4-2.69,10.53-.17,16.11.37A31.69,31.69,0,0,0,74,2.79c-3.15,0-6.21.27-8.55.46C57.58,3.9,50.55,6.51,40.16,10.51Z"/><path class="cls-4" d="M71.36,32.55c2.18.05,4.39-.6,6.62-.32C73.3,36.14,64.4,36.49,58.52,37c-9.12.74-19,1.93-27.9,4.3l0,.07c10.25.2,21.54-3.93,31.79-2.79-1.17,2.48-5.31,2.87-7.59,4.58,4.67,2.17,13.69-3.9,18.15-5.67,6-2.38,13.64-4.24,19.77-7.43-.06-1-.15-1.9-.3-2.85C85.37,28.93,77.15,29.42,71.36,32.55Z"/><path class="cls-4" d="M74.83,19.65c-1.18,4-6,3.13-8.94,4.6,2.73.86,5.56-1.44,8.21-.93-.83,1.93-3.27,3-4.89,4.56,4.72-.59,9.07-3.05,13.15-5.35,2.06-1.16,4.93-2.48,7.55-4a30.17,30.17,0,0,0-1.66-3.13,71.31,71.31,0,0,0-8.11.49C76.06,16.55,72,17.51,68,18.55,61.62,20.22,55.36,20.5,49.09,22c1,.14,1.89.68,2.83.88C47.81,28,33.34,25.44,29.23,30c0,.33,0,.65,0,1C44.57,28.88,59.44,20.74,74.83,19.65Z"/><path class="cls-4" d="M77.26,55.33c-2.93-.23-10.4,3.22-12.1,5.36,4.07,1.84,19.35-5.93,20.73-10-3.58-.75-12.73,2.87-15.78,5.17.81.3,1.33,0,2.25-.09Z"/><path class="cls-5" d="M55.3.52a31.82,31.82,0,0,0-25.61,37c.15.84.35,1.65.56,2.46a19.44,19.44,0,0,0,3,2.22c11,6.71,23,4.11,32.61-3.53C73.08,33,78.37,24.3,78.11,14.87c-.17-6.31-2.65-10.41-6.53-13A31.62,31.62,0,0,0,55.3.52Z"/><path class="cls-6" d="M50.54,5.35c-12.79-.26-20,20.87-9.75,28.27C63.89,50.24,75.7-2.9,50.54,5.35Z"/><path class="cls-7" d="M92.3,26.13A31.68,31.68,0,0,0,83.76,9.59c.06.36.12.71.17,1.06a36.24,36.24,0,0,1-2.1,17.25C75.17,45.46,57,54.69,38.93,50.75a46.3,46.3,0,0,1-4.49-1.39A31.82,31.82,0,0,0,92.3,26.13Z"/><path class="cls-8" d="M92.3,26.13a31.57,31.57,0,0,0-2.88-8.6c-1,4-1.27,8.32-1.87,12.31-1.07,7.06-4,10.59-9.5,15.31-7,6-16.15,11.44-25.62,11.37-4.14,0-8.12-1.08-12.08-.49a31.84,31.84,0,0,0,10.53,6,78.72,78.72,0,0,0,9-.38C75.7,60,86.89,50.28,92.42,36.83A31.82,31.82,0,0,0,92.3,26.13Z"/><path class="cls-9" d="M77.86,4.86A32.42,32.42,0,0,1,81.1,7.19c15.32-2.26,26.72-.52,28.82,5.36,3.2,9-16.42,24.19-43.83,34S13.85,57,10.65,48c-2.12-5.93,5.72-14.57,19.18-22.58a32.53,32.53,0,0,1,1-3.55C10.15,32.72-2.52,45.23.42,53.46,4.37,64.52,35,63.7,68.74,51.63s58-30.81,54-41.87C119.75,1.36,101.35-.18,77.86,4.86Z"/><path class="cls-10" d="M65.69,45.85c26.2-9.44,44.89-23.92,41.74-32.33-1.93-5.18-11.68-6.85-25-5.18A33.52,33.52,0,0,1,85.07,11c6.64.06,11.24,1.61,12.39,4.7C100,22.56,84.85,34.31,63.59,42S23,50.32,20.46,43.49c-1.32-3.55,2.15-8.43,8.77-13.38.06-1,.16-2.05.32-3.06-12.1,7.44-19,15.29-17,20.67C15.69,56.13,39.48,55.3,65.69,45.85Z"/></g></g></g></svg>