<svg xmlns="http://www.w3.org/2000/svg" viewBox="0 0 56.5 53.35"><defs><style>.cls-1{isolation:isolate;}.cls-2{opacity:0.26;}.cls-3{fill:#fff;stroke:#fff;stroke-miterlimit:10;mix-blend-mode:color-dodge;}</style></defs><g class="cls-1"><g id="Camada_2" data-name="Camada 2"><g id="banner"><g class="cls-2"><path class="cls-3" d="M29.66,27C38.18,12.51,44.87.66,44.6.5S37.19,11.93,28.67,26.38,13.46,52.69,13.73,52.85,21.14,41.42,29.66,27Z"/><path class="cls-3" d="M27.81,25.68C20.06,12.74,14,2.08,14.36,1.89S21.25,12,29,25s13.78,23.6,13.45,23.79S35.57,38.63,27.81,25.68Z"/><path class="cls-3" d="M28.58,25.72c-.27-10-.17-18.15.21-18.16s.92,8.11,1.19,18.13.17,18.14-.21,18.15S28.85,35.74,28.58,25.72Z"/><path class="cls-3" d="M28.23,25.75C43.56,25.34,56,25.32,56,25.7s-12.41,1-27.73,1.44S.51,27.58.5,27.19,12.91,26.16,28.23,25.75Z"/><path class="cls-3" d="M30.12,26.05c8.36,5.52,15,10.28,14.73,10.62s-7.19-3.85-15.56-9.37S14.34,17,14.56,16.67,21.76,20.52,30.12,26.05Z"/></g><path class="cls-3" d="M21.62,27.15a7.46,7.46,0,1,1,7.5,7.38A7.44,7.44,0,0,1,21.62,27.15Z"/></g></g></g></svg>