<svg xmlns="http://www.w3.org/2000/svg" xmlns:xlink="http://www.w3.org/1999/xlink" viewBox="0 0 93.84 97.07"><defs><style>.cls-1{isolation:isolate;}.cls-12,.cls-2{opacity:0.22;mix-blend-mode:hard-light;}.cls-2{fill:url(#radial-gradient);}.cls-3{opacity:0.56;}.cls-11,.cls-4,.cls-7{fill:#fffb64;}.cls-5{fill:#fec20c;}.cls-10,.cls-6,.cls-8,.cls-9{fill:#eb9206;}.cls-6{opacity:0.38;}.cls-7{opacity:0.41;}.cls-9{mix-blend-mode:overlay;}.cls-10{opacity:0.16;mix-blend-mode:multiply;}.cls-11{opacity:0.6;}.cls-12{fill:url(#radial-gradient-2);}</style><radialGradient id="radial-gradient" cx="-703.37" cy="-769.92" r="246.29" gradientTransform="translate(163.69 171.2) scale(0.17 0.16)" gradientUnits="userSpaceOnUse"><stop offset="0" stop-color="#fff"/><stop offset="0.1" stop-color="#ffe"/><stop offset="0.29" stop-color="#feffc1"/><stop offset="0.41" stop-color="#fdffa1"/><stop offset="0.52" stop-color="#fee879"/><stop offset="0.64" stop-color="#ffca45"/></radialGradient><radialGradient id="radial-gradient-2" cx="-698.78" cy="-796.99" r="193.49" gradientTransform="translate(160.61 179.51) scale(0.16 0.16)" xlink:href="#radial-gradient"/></defs><g class="cls-1"><g id="Camada_2" data-name="Camada 2"><g id="icons_planets"><ellipse class="cls-2" cx="46.44" cy="47.48" rx="41.06" ry="39.57"/><g class="cls-3"><path class="cls-4" d="M89.05,42.77a17.25,17.25,0,0,1-9.93,1.47,11.26,11.26,0,0,0,3.07-3.15c1-1.51,1.93-3,2.88-4.53-1.65,1-3.86.38-5.86.61l-.15,0c1.46-3.57,3.11-7.67,3.68-9.48-1.14,1.9-3.34,3.93-5.57,3.42A5.11,5.11,0,0,0,79,27.93c-1.53,1.17-3.44,1.16-5.23,1.46.62-3.13,1.94-7.34,6-7.3-3.19-3.36-8.28,0-11.72.91C71.37,18,75.17,12,69.42,7c4.44,4.92-10.13,11.75-11,12.38,0-.21,2.07-7.08-3-11.18.26,1.83.4,3.76-.6,5.45a11.26,11.26,0,0,0-4.14-7.54c1.17,2.61,1.32,9.28-3.16,9.41s-5.06-6.77-3-9.28c-2.21,2-5.37,5-4.59,8C33.06,13,32.42,4.89,35.51.08c.09-.1.09-.11,0,0-2.28,1.79-4.26,5.28-5.17,7.56-1.7,4.27.13,6.79,1.93,9.79-1.62-.19-3.46,0-4.81-.28-4-.78-5.08-2.91-5.9-6.45-1.78,7.85,3.08,13,6.93,15.9-3.24-.77-6-2.07-9.54-1.49-2.39.38-4.79,2.5-7.09,3.28,3-.29,8,.21,9.19,2-3.28-.69-7.82,2.12-10.28,4.17-2,1.65-3.1,4.29-6.09,4.49,2.51,1.86,6.73-.45,9.6-.28-.47.28-7.75,6.67-10,3.9.92,3.38,5.43,5.49,8,6.33C9.41,50,2.54,48,1,45.2c1.82,4.34,6.23,10,10.91,11.71C8.58,58.76,2.81,60.1,0,57.67c2.15,3.28,4.48,6,8.34,6.78s7.29-.2,8.62-2.22c-.88,4.73-5.35,7.37-11.4,8.3,5.47.5,8.66.7,12.21-2.18-.62,3.72-.84,4.47,0,8.35s1.45,8-.18,12c3.86-3.42,7.45-9.54,8-14.55-.3,4.2,4.68,7.37,3.23,11.56,1.44-1.24,3.57-5.54,3.65-5.66.76,1.53,1.62,3,1.68,4.66.07,2.1-1.12,3.57-1.88,5.55,2.24-1.21,4.51-2.28,5.95-4.53,1.18-1.86.48-6,2.74-6.81-.14,3.23.57,4.75,2.43,7.57S44.93,92,43.63,95c2.1-2.52,4.38-4.82,4.75-8.28.32-3-1.45-5.64,1.15-8.27-2.63,5,6.56,8.75,9.85,7.51-5.08-.09-2-9.15-1.77-9.43a13.93,13.93,0,0,0,3.32,4.63,26.73,26.73,0,0,0,8.21,5.28c-.41-2.38-1.93-4.5-2.1-7.07-.16-2.38.84-4.67.52-7,3.54,2.92,5.4,5,4.5,9.6,1.86-1.86,2.51-5.25,2.23-8.32-.17-1.83-2.51-5.18-1.08-6.69C73.22,71.2,84.1,75,87.7,74.8A23.45,23.45,0,0,1,79,68.45a20.22,20.22,0,0,1-2.37-4.36,20.39,20.39,0,0,0,6.22,3.2c-1.93-1.8-2.72-4.66-2.93-7.15,0-.29,0-.59-.09-.88,3.62.64,7.94,4.59,7.42,7.34.63-4.63-.12-8.51-3.73-12-.78-.77-1.32-1.27-1.79-1.73a5.56,5.56,0,0,0,2.37-1,15.88,15.88,0,0,0,2.62-2.49,12.1,12.1,0,0,1-6.53-1A17.47,17.47,0,0,0,89.05,42.77Zm-22.27-2.7c-8-.16-19.38-3.45-19.67,4.44-.12,3,2.08,5.92,3.53,8.44,1.92,3.36,2.94,7.54,4.06,11.29.24.79.43,1.57.59,2.35-4-2.69-9.24-1.34-14-2.7l-.9.62c-.07-5.56-4-10.45-5.2-16.11-1.7-8,4-15.18,4.24-23l-1.86-2.92a26.67,26.67,0,0,0,4.52,2.16l8.5,4.05c3.18-.64,6.07-3.61,7.71-7a5.5,5.5,0,0,0,1.33,1.65c1.46,6,1.57,11.43,5.8,13.92a11.07,11.07,0,0,0,3.72,1.2A13.47,13.47,0,0,0,66.78,40.07Z"/><path class="cls-4" d="M82.85,67.29h0S82.89,67.33,82.85,67.29Z"/></g><circle class="cls-5" cx="45.93" cy="48.44" r="31.67"/><path class="cls-6" d="M23,53.56c-.9-2.82-3.05,1.57-2.53,3.3-3.36-1.6-4.4,8.81,1.67,8.59-.8,2.34,1.58,6.21,4.36,5,.46,3,4.12,8,7.28,5.41.56,2.8,3.43,2.33,5.41,1.25.55,1.31,2,2.43,3.5,1.73s.73-2.19,2.13-2.78c-.26,1.92,3.87,2.57,4.21.79.59,2.17,4.45.86,5.35-.79,1.64,1.93,6.41-.41,8.21-1.31a12.49,12.49,0,0,0,6.43-8.66,3.27,3.27,0,0,0,2.35-1.6c.75-1.14.21-1.8.65-2.81,1.2-2.72,4-4.27,4.47-7.68a9.38,9.38,0,0,0-.36-4.18c-.3-.78-1.39-1.58-1.58-2.27-.62-2.33,2.26-5.93-.75-7.71,1.1-2.09.49-8.41-3.16-6.95.51-3-3-6.32-5.77-4.41C61.73,30.67,62.52,37,62.6,40.4a2.36,2.36,0,0,0-3.15-1.21c-1.09.62-1,2.24-1.28,3.28-1.43-3.42-5.23,1-6.1,2.56-1.42,2.53-2.74,7.29-1.8,10.17-1-1.26-2.08-2.43-3.94-2-2.34.61-2.78,3.25-4.5,4.45-2.58-3.29-5.64-.81-7.72,1-.54-4.86-5.47-1.42-7.09.41C27.78,56.19,26.22,54.91,23,53.56Z"/><path class="cls-7" d="M38.84,20c-3.75-.34-8.84,2.21-9.06,6.38-2.39-1.77-7.16,3.22-8.6,5.22A17.64,17.64,0,0,0,18.3,43.09c.58,9.34,10.06,12.26,17.73,9,4.31-1.83,10-7.55,7.43-12.69,1.63-.07,2.44-1.31,2.12-3,4.38,1.15,9.51-2.72,10.58-6.87C58.72,19.64,49.34,15,38.84,20Z"/><path class="cls-8" d="M38.85,75.46c3.81,0,5.13-1.59,7.6-3.69,3.9,7.39,18-.76,21.6-5,6.18-7.36,7.5-14.23,6.25-23.85a20,20,0,0,0-7.81-13.27c-.72,5.29,1.62,10.92,0,16.16-.92,2.92-2.22,4.31-4.75,2.89-1.38-.78-1.25-2.15-3.42-1.91-1.94.21-3.5,2.54-4.4,4.2-1.78,3.32-.41,15-5.79,14.91-1.7-2.09-5-4.37-7.85-3.29-2.57,1-4.7,4.47-8.17,3.92-4.15-.66-4.46-7.21-8.59-8.19-1-.23-1.88.75-2.65.57C18.27,58.28,25.9,75.49,38.85,75.46Z"/><path class="cls-9" d="M65,62.79c-5.19,1.11-3.58-6.11-.13-7.31,5-1.75,4.55,4.22,2.1,6.75Z"/><path class="cls-9" d="M69.81,43.94c-2.07-.59-2.64-4.8.23-4.18,0,1.85-.07,3.81,2.25,2.82,1,2.23,1.49,6.36-.23,8.54-3,3.78-5.78-1.7-3.38-4.93Z"/><path class="cls-9" d="M39.41,69.83c-1.29,2.74-3.9,4.23-6.35,2.14s-.35-5.12,2.13-3.39c2-3.29,10.83-3.41,6.75,1.53Z"/><path class="cls-7" d="M26.25,44.57c-9.68,0,.61-16,2.57-7.64,4.82,1.14,3-7.57,4.13-9.67,1.86-3.35,8.37-5.86,8.12-.07.7-1.14,3-2,2.47.21C47,24,54.13,25.12,51.54,31c-1.08,2.48-3.84,3.76-6.3,4.24-2.18.44-3.7-.41-5.67-.59.66,1.5.51,3.65-1.47,4C38,42.77,37.38,46.86,34,49.52c-1.44,1.14-3.66,2.58-5.61,2.4C24.56,51.58,25.64,48,26.25,44.57Z"/><path class="cls-7" d="M48.2,22.61c-1.08.54-3.58,1.18-4.43-.42s1.54-4.12,2.37-2.34c2.94-2,6.29,1.67,2.49,2.55Z"/><path class="cls-7" d="M28.36,31.27c1.5-2-.54-4-2.62-3.17-1.23.5-3.33,3.08-1.58,3.59-1.33.43-2.59,1.81-.76,2.32,1.34.38,3.52-1.2,4.54-1.9Z"/><path class="cls-7" d="M59.39,27.47c-3.24-2.63,2.82-5.8,1.89-2.19,3.39-3,3,5,1.29,6.83-3.65,4-8-.94-3.39-4Z"/><path class="cls-7" d="M19.7,53.86c.51-1.2-.08-4.41-1.68-5-2.38-.91-2.06,2.72-1.3,3.93-3.16.39,1.61,7.52,2.56,2.14Z"/><path class="cls-9" d="M53.9,24.94a5.62,5.62,0,0,0-1.58-5.35c-1.13-1.14-3.42-2.31-4.86-1.15-2.05-2-6-.66-6.93,1.8-.5-1.07-2.88-.73-3.87-.49a4.12,4.12,0,0,0-3.19,3C30.81,21,26.68,24,24.92,25.91a30,30,0,0,0-7,12.15c-1.43,5.06-1.59,9.66,2.44,13.6,4.68,4.6,11.21,4.84,17.37,3.51C43.22,54,48.8,47.72,49.92,42.33c2.68,1.3,4-2.6,3.43-4.57C57.7,37.35,62,25.26,53.9,24.94Z"/><path class="cls-10" d="M32.51,62.37c-.61-1.27-1.06-3.16-2.46-3.86s-3.75.34-2.45,2c-2.63-3.09-5.58,3-4.54,5.38-2.28,1,1.44,4.52,2.34,5,2.42,1.36,6.26,3.4,8.78,1.24.07,2.7,3.89,3.72,5.77,2.37-.25,3.14,4.15,3.48,5.8,1.58.19,2.9,9.16,1.19,10.79.73a20.11,20.11,0,0,0,7.14-4c1.59-1.27,4.17-3.48,4.32-5.65,2,.15,3.64-2.55,4.49-4a5.77,5.77,0,0,0,0-6.56c2.77-1.57,4.92-7.14,2.63-9.7,2.3-.89,1.26-7.34-1-7.81,2.64-1.75-1.33-7.91-3.15-9-4.85-2.86-9.51,1.59-10.55,6.24-.75,3.32-.54,6.77-1.39,10.08a15.61,15.61,0,0,1-7.85,10c-2.38,1.21-4.73-.11-7.05,1s-3.18,3-4,5.34C39.17,59,34.61,61.42,32.51,62.37Z"/><path class="cls-9" d="M61.71,41.61c-1.65.52-4.75-.12-5.91-1.57s-.64-5.36,1.82-4.95c-2.14-3.65-.83-10.49,3.68-11.9,4.07-1.28,6.47,4.31,5.73,7.64,3.51-1.93,3.82,6.56,1.51,8.47,3.77-.83,2.72,6.26,2,8A25.48,25.48,0,0,1,60.36,59.24c-5.13,2.89-13.56,2.26-15.93-4.12-1.66-4.48,2.11-8.67,6.53-6.83C50.44,45.38,54,43,56,45.56,56.57,42.6,60.45,43.63,61.71,41.61Z"/><path class="cls-9" d="M22.87,65.47c-1.56,1.47.69,2.68,1.48,3.69,1.12,1.42.91,3.07,2.49,4.18s3.18.74,4.69,1.92c1.75,1.38,2.84,2.6,5.28,2.09,1-.21.81-.93,2.1-.7.85.14,1.56,1.17,2.37,1.43,1.4.43,1.88-.33,3.21-.34s1.49.64,2.78,1.32c3.38,1.8,3.9-1.2,6.62-1.94,1.38-.38,1.74.35,3.08-.46,1-.59,1.12-1.22,2.1-1.5,1.42-.41,1.19.3,2.48-.83.84-.74,1.19-1.8,2.06-2.53s2.28-.92,3.32-1.68c1.38-1,1.89-2.67,2.7-4,1-1.59,3.72-2.85,4.17-4.84.21-1-.49-1.6-.28-2.55s1.44-1.56,1.89-2.44c.66-1.3,2.55-12.44-.19-11.88-1,.22-.94,4.7-1.07,5.37-.47,2.51-1.75,3.31-3,5.17-1,1.54-.31,3.32-1,4.91a56.67,56.67,0,0,1-3.6,5.56c-1.36,2.16-2.34,1.24-4.61,1.77-3.17.75-3.08,4.41-5.54,5.77-1.82,1-4.79.28-6.62-.18-2.74-.7-2.86.28-5.38,1.18-2.31.82-4-.38-5.94-1.25-1.54-.69-2.26-.55-4-.35-2.46.29-3-.25-4.74-2-1-1-1.68-1-2.91-1.73C25.4,67.7,25,65.39,22.87,65.47Z"/><path class="cls-4" d="M8.73,14c.33,3.4-.35,6.56,3.59,8,1.71.63,3,.25,4.64-.16s2.32-.21,4,.56c-.64-3.19-2.54-4.59-5.87-4.41C11.32,18.16,9.8,17.06,8.73,14Z"/><path class="cls-4" d="M62.14,14.38c-2.07-.52-2-4.65-1.53-6.17.73-2.13,2.4-3.08,3.87-4.72-1.85,2.1-.37,3.14.09,5.4C65.13,11.67,63.19,12.43,62.14,14.38Z"/><path class="cls-4" d="M84.93,53.22c2.51,2.26,9.39,3,8.88-2.24C91.8,55,86.88,50.06,84.93,53.22Z"/><path class="cls-4" d="M13.79,72C8.24,73.25,12,79.79,9.81,83,13.35,79.94,14.07,76.83,13.79,72Z"/><path class="cls-4" d="M77.33,26.41c1.56-4.1,6-1.38,8.63-3.5C84.66,25.63,80.65,28.58,77.33,26.41Z"/><path class="cls-4" d="M50.53,85.52c-3.25,4.56,4,7.44,3.37,11.55,0-2.13,1.38-4.39.58-6.43S51.67,87.59,50.53,85.52Z"/><path class="cls-4" d="M75.86,74.33c-1.39,4.15,4.63,6.13,6.29,8.85.08-2,1.11-4-.33-5.9S77.75,76.39,75.86,74.33Z"/><path class="cls-4" d="M12.32,30.43C9.69,26.49,4.94,32.54,2,33.18c1.67.44,3.72,1.37,5.54.65S10.36,29.82,12.32,30.43Z"/><path class="cls-4" d="M83.46,41.4C84.88,37.84,88.13,38.89,90,36,89.15,39.51,88.12,40.76,83.46,41.4Z"/><path class="cls-4" d="M47.57,2.28c0,2.22-3.51,11.13-.14,11.27C51,13.69,49,4,47.57,2.28Z"/><path class="cls-4" d="M39.41,87c-4.1,2.35-.53,6.73-2.5,9.75a8.41,8.41,0,0,0,2.5-9.19Z"/><path class="cls-4" d="M45.88,36.4c-.05-.34-.56-.23-.57.08,0,.92-.09,3.22-1.76,2.75a.27.27,0,0,0-.3.39c1.49,3.23-.85,7.47-3.23,9.65a16.56,16.56,0,0,1-7.22,3.85c-6,1.45-11.44-2.25-13.47-7.93a.05.05,0,0,0-.1,0A11.05,11.05,0,0,0,26,53.78c3.83,1.57,8.06.37,11.49-1.65,3.17-1.87,6.45-5,6.59-9,0-.56-.57-2.86-.22-3.28a7.93,7.93,0,0,0,1-.22C45.82,39.05,46,37.44,45.88,36.4Z"/><path class="cls-4" d="M46.35,17.74a8,8,0,0,0-5.11.67,7.49,7.49,0,0,1-3.48,1,6.91,6.91,0,0,0-2.67.4c-2.2.79-6.32,3.69-5.47,6.51a.08.08,0,0,0,.13,0c1-1,1.33-2.51,2.43-3.58a8,8,0,0,1,5.29-2.33,4.58,4.58,0,0,0,3.28-1c1.79-1.07,3.68-.87,5.6-1.4A.17.17,0,0,0,46.35,17.74Z"/><path class="cls-4" d="M49.12,19.9a.26.26,0,0,0-.18.43c.38.42,1.4.64.72,1.26a4.79,4.79,0,0,1-2.28.87,6.09,6.09,0,0,1-2.55.06c-.79-.2-.76-.66-.72-1.38a.06.06,0,0,0-.09-.05,1.07,1.07,0,0,0,.11,2,5.6,5.6,0,0,0,3.53.15c.91-.19,2.34-.53,2.83-1.43S50,19.92,49.12,19.9Z"/><path class="cls-4" d="M28.6,29.86s-.05-.05-.06,0c-.31,1.52-1.72,2.5-2.93,3.27a2.13,2.13,0,0,1-1.9.24c-.13,0-.51-.4-.65-.31-.52.32-.08.89.33,1,.76.3,1.35-.41,2-.65C26.77,33,28.79,31.54,28.6,29.86Z"/><path class="cls-4" d="M63.48,26c-.48-1-1.18-1.63-2-1.29a1.1,1.1,0,0,0-.56-.77,0,0,0,0,0-.07,0,4.62,4.62,0,0,1-.15,1.42c-.1.36.47.62.62.26.58-1.36,1.5.58,1.61.89a3.14,3.14,0,0,1,.15,1.14c0,1.36-.76,2.43-1.06,3.71a.15.15,0,0,0,.25.15A5.43,5.43,0,0,0,63.48,26Z"/><path class="cls-4" d="M33,40c-.12.14,0,.39.21.27.85-.61,2.09-1,2.3.5a3.37,3.37,0,0,1-.66,2.11,7.19,7.19,0,0,1-3.47,2.93c-1.31.44-2.87.16-3.35-1.3a2,2,0,0,1,1.67-2.84.41.41,0,0,0,.21-.76c-.63-.45.46-1.52,1-1.6.26,0,.72.33.91.21.37-.24.22-.76-.07-1a1.47,1.47,0,0,0-1.66.11c-.86.52-1.6,1.65-1.11,2.48a3.16,3.16,0,0,0-1.38,3.55c.57,2,2.53,2.35,4.31,1.65,2-.79,4.3-2.62,4.49-5S34.35,38.49,33,40Z"/><path class="cls-4" d="M46.5,28.05a1.38,1.38,0,0,0-2.28.76.27.27,0,0,0,.39.29c1.34-.7.85,2.33-.53,2.52-.9.13-1.85-.55-2.57-.9A4,4,0,0,1,39.33,29a.41.41,0,0,0-.37-.22,2.39,2.39,0,0,0-1.56.57c-.65-2.36-4,1.64-1.68,2.2a.12.12,0,0,0,.13-.17,1.27,1.27,0,0,1-.11-1.06c0-.14,1-1.55,1.06-.3,0,.23.3.48.53.3,1.32-1,1.23-.17,2,.45s1.53.55,2.24,1.06c1.37,1,2.26.91,3.72-.18C46.28,30.9,47.71,29.24,46.5,28.05Z"/><path class="cls-4" d="M27.24,34.54c-1.46-.31-2.73,1-3.43,2.11-1.15,1.77-3.88,7.78.26,8a.13.13,0,0,0,.08-.21c-.82-.8-1.51-1.41-1.38-2.66a8.64,8.64,0,0,1,.83-2.61,10.55,10.55,0,0,1,1.59-2.76c.43-.47,1.95-1.59,2.32-.45a.08.08,0,0,0,.11,0C28.45,35.5,28.05,34.7,27.24,34.54Z"/><path class="cls-4" d="M18.78,48.89c-1.61-1.28-3,1.29-2.35,2.67,0,0,.08,0,.08,0a3.55,3.55,0,0,1,.66-2.11c.85-.94,1.73.15,2,1a8,8,0,0,1-.13,4,.13.13,0,0,0,.21.12C20.51,53.3,20.19,50,18.78,48.89Z"/><path class="cls-4" d="M53,27.9c-.31-1.28-1.77-3.6-3.25-2.3a.06.06,0,0,0,0,.09c2,.12,2.73,2.44,2.37,4.08-.29,1.36-1.29,2.3-1.7,3.56a.19.19,0,0,0,.23.23C52.55,32.82,53.47,29.69,53,27.9Z"/><path class="cls-4" d="M54.94,22.23a.55.55,0,0,0-.38-.41.73.73,0,0,0-.64-.11.63.63,0,0,0-.55.51.19.19,0,0,1,0,.08,2.32,2.32,0,0,0-.29.73.8.8,0,0,0,.29.79.76.76,0,0,0,1.17-.05.61.61,0,0,0,.19-.2A1.8,1.8,0,0,0,54.94,22.23Z"/><path class="cls-4" d="M56.72,21.44a.54.54,0,0,0,0,1.08A.54.54,0,0,0,56.72,21.44Z"/><path class="cls-4" d="M22,37.14a.74.74,0,0,0-1.06-.44l-.11.07h0a2,2,0,0,0-1.39,1.14,2.26,2.26,0,0,0-.11,1.75.66.66,0,0,0,.76.57,1.62,1.62,0,0,0,.4.05C21.73,40.26,22.38,38.19,22,37.14Z"/><path class="cls-4" d="M20.27,35.37a.69.69,0,0,0,0,1.37A.69.69,0,0,0,20.27,35.37Z"/><path class="cls-4" d="M52,37.91a1.88,1.88,0,0,0-2.44-.1,5.27,5.27,0,0,0-2.17,1.31A4.08,4.08,0,0,0,46,42.21c0,.93.57,1.71,1.57,1.62s1.38-.87,1.81-1.62C51,43.24,53.68,39.5,52,37.91Z"/><path class="cls-4" d="M49.22,43.35a1,1,0,0,0-.48.32.75.75,0,0,0-.34.67.64.64,0,0,0,.74.59.72.72,0,0,0,.59-.46l.09-.09C50.18,43.94,49.86,43.15,49.22,43.35Z"/><path class="cls-4" d="M37.35,34.22a1.66,1.66,0,0,0-.17-.45.72.72,0,0,0-1-.26,2.18,2.18,0,0,0-1,2.13.76.76,0,0,0,0,.16.84.84,0,0,0,.44.73c.79.45,1.6-.32,1.83-1A1.85,1.85,0,0,0,37.35,34.22Z"/><path class="cls-4" d="M33.28,35l0,.13a.64.64,0,0,0,1.22,0l0-.13C34.85,33.89,33,33.89,33.28,35Z"/><path class="cls-4" d="M29.9,50a.12.12,0,0,0,.05-.05.59.59,0,0,0,0-1,.12.12,0,0,0-.05,0c.25.09-.19-.12-.24-.13a1,1,0,0,0-.3,0h-.08a.6.6,0,0,0-.47.66.59.59,0,0,0,.47.66h.08a.76.76,0,0,0,.3,0C29.75,50.06,30.13,49.87,29.9,50Z"/><path class="cls-4" d="M31.53,48.31a.56.56,0,0,0,0,1.11A.56.56,0,0,0,31.53,48.31Z"/><path class="cls-4" d="M32.1,50.88v0a.75.75,0,0,0-.73-.73c-.72-.07-1.7.13-1.7,1a1.09,1.09,0,0,0,0,.26,1.12,1.12,0,0,0,.72,1.09.55.55,0,0,0,.31,0,1.07,1.07,0,0,0,1.51-.92A1.45,1.45,0,0,0,32.1,50.88Z"/><path class="cls-4" d="M37.58,24.56a1,1,0,0,0-.81.08,1.2,1.2,0,0,0-.28,0,.88.88,0,0,0-.58.95.7.7,0,0,0,.69.69,1.93,1.93,0,0,0,.86-.14,1.67,1.67,0,0,0,.54-.58A.71.71,0,0,0,37.58,24.56Z"/><path class="cls-4" d="M39.83,21.34a.64.64,0,0,0,0,1.28A.64.64,0,0,0,39.83,21.34Z"/><path class="cls-4" d="M42,42.36A1.69,1.69,0,0,0,41.14,41a1.4,1.4,0,0,0-1.26,0,.45.45,0,0,0-.16,0c-.66.22-1,.95-1.22,1.55a3.63,3.63,0,0,0-.27,2.27,1.61,1.61,0,0,0,2.8.84A4.35,4.35,0,0,0,42,42.36Z"/><path class="cls-4" d="M40.57,38.91a1.33,1.33,0,0,0-1.18-.08,1.12,1.12,0,0,0-.38.37.71.71,0,0,0-.36,1.17c.69.87,1.73.3,2.18-.48A.73.73,0,0,0,40.57,38.91Z"/><path class="cls-11" d="M47.31,52.87A5.53,5.53,0,0,0,42.78,55c-.5.59-.63,1.42-1.09,2-1,1.22-1.52-.37-2.52-.75-1.44-.55-3.51.66-4.83,1.58-1.12-3.6-6.15-1.48-7.38,1.33a.07.07,0,0,0,.08.11c2.22-.68,5.32-4.56,6.59-.57a.45.45,0,0,0,.82.1,4.23,4.23,0,0,1,4.75-2c.84.28,1.38,1,2.18,1.32.14.06.33,0,.32-.18-.07-1.7,2.38-3.39,3.78-3.82a3.53,3.53,0,0,1,2.44.05c.7.3,1.13.93,1.8,1.28a.21.21,0,0,0,.3-.18C50,53.82,48.58,53,47.31,52.87Z"/><path class="cls-11" d="M69.7,32.21a2.84,2.84,0,0,0-2.6-2.07c-1.44,0-2.51,1.21-3.22,2.33a9.59,9.59,0,0,0-1.36,3.39c-.21,1.27.09,2.53-.13,3.77-1.8-1.43-4.3-.36-4.5,2.19a.1.1,0,0,0,.18,0c.94-1.76,2.59-3.14,4.24-1,.27.35.73,0,.77-.32.2-1.5-.12-3,.15-4.49s1.35-4.54,3.23-5,2.64,1.72,2.58,3.2-1,2.94-1.11,4.5a.47.47,0,0,0,.92.12C69.25,36.59,70.59,34.55,69.7,32.21Z"/><path class="cls-11" d="M63.15,49.33c-1.41-1.1-3.21-3-5.13-3.12-2.08-.08-3.56,1.82-4.34,3.52-1.38,3-1.17,6.38-1.84,9.55a18.1,18.1,0,0,1-1.27,3.85,3.43,3.43,0,0,1-2.79,2.22.27.27,0,0,0-.12.45c3.06,2.92,5.26-6.15,5.47-7.59.47-3.21.3-7.4,2.8-9.87,2.89-2.87,4.4,1.95,7.16,1.22C63.18,49.53,63.23,49.39,63.15,49.33Z"/><path class="cls-11" d="M39.2,64.54a4.87,4.87,0,0,0-3.75,3.57c-1.44-.33-3.31-.16-3.91,1.36s.15,3.33,1.82,3.36a.19.19,0,0,0,.09-.34,2.72,2.72,0,0,1-1-1.48c-.3-1.27.53-1.89,1.77-2a12.25,12.25,0,0,0,1.6-.08.36.36,0,0,0,.25-.44c-.23-1.37,1.64-2.52,2.72-2.9,1.46-.52,2.55-.36,3,1.21a.11.11,0,0,0,.22,0C42.76,64.91,40.69,64.16,39.2,64.54Z"/><path class="cls-11" d="M69,56.8c-.43-1.62-2.24-2.07-3.72-1.74-2,.44-3.24,2.24-3.85,4.06-.51,1.51-.65,3.5.9,4.44a3.3,3.3,0,0,0,4.1-1,.11.11,0,0,0-.15-.15,3.42,3.42,0,0,1-2.36.73A2.12,2.12,0,0,1,62,61.55c-.34-1.41.62-3.38,1.54-4.38,1.2-1.3,3.17-1.71,4.45-.36.08.07.47.74.72.51l.14-.13A.4.4,0,0,0,69,56.8Z"/><path class="cls-11" d="M68.78,39.22c-1.87,1.21-1.26,3.41,0,4.8-4,1.47-1.77,12.12,2.83,8,.12-.1,0-.27-.14-.24-2.34.41-3.6-.3-3.91-2.75-.2-1.59.17-4.32,2.24-4.26a.48.48,0,0,0,.25-.89,3.35,3.35,0,0,1-1.21-1.27q-1.14-2.3,1.7-2.73c.69.26,1.48,1.81,1.74,2.49a.07.07,0,0,0,.14,0C72.6,40.54,70.81,37.91,68.78,39.22Z"/><path class="cls-11" d="M57.61,60.71c-2.55-.87-4.36,2.32-4,4.54a1.87,1.87,0,0,0-1,2.12c-2.54.71-6.69,3.86-3.64,6.32,1.36,1.1,3.42.89,4.95.29C55,73.56,57,72.46,56.65,71a.23.23,0,0,0-.37-.1c-.75.65-1.12,1.43-2.07,1.93a5.41,5.41,0,0,1-3.82.55c-1.92-.64-1.84-2.53-.44-3.73a9,9,0,0,1,3.31-1.56.46.46,0,0,0,.27-.66L54,66a.41.41,0,0,0,.51-.5c-.54-1.74.85-5.34,3.28-4.09s.44,4.61-.58,6c0,.06,0,.12.1.1C59.79,66.31,60.83,61.8,57.61,60.71Z"/><path class="cls-11" d="M61.74,53.42a1.44,1.44,0,0,0-1.8-.85c.33-1.2.15-2.76-1.45-2.22s-2.91,3.31-1.14,4.26a.14.14,0,0,0,.19-.19,2.58,2.58,0,0,1,.64-3c1.34-1.15,1.3.71.81,1.56a.37.37,0,0,0,.57.45c1.88-1.61,2,2.15,1,3.16a4,4,0,0,1-2,1.06c-1.13.17-1.34-.52-1.71-1.41a.27.27,0,0,0-.51,0A1.63,1.63,0,0,0,58,58.4a4.77,4.77,0,0,0,3.26-1.74A3.37,3.37,0,0,0,61.74,53.42Z"/><path class="cls-11" d="M34.68,60.85a1.56,1.56,0,0,0-.57-.27.68.68,0,0,0-.35-.1,1.82,1.82,0,0,0-1,.27,3,3,0,0,0-1.45,1.71.78.78,0,0,0,.54.95,1.57,1.57,0,0,0,.3.05,2.08,2.08,0,0,0,1.75-.34,3.57,3.57,0,0,0,.8-.63.75.75,0,0,0,.21-.56v0A.8.8,0,0,0,34.68,60.85Z"/><path class="cls-11" d="M31.39,60.12a.71.71,0,0,0,0,1.41A.71.71,0,0,0,31.39,60.12Z"/><path class="cls-11" d="M65.53,44.06c.45-.87.61-2.12-.53-2.48a1.56,1.56,0,0,0-1.59.61,5.41,5.41,0,0,0-2,3.59.77.77,0,0,0,.47.72.75.75,0,0,0,1,.24l.31-.2.23-.09a.64.64,0,0,0,.34-.12,2.53,2.53,0,0,0,.47-.45,4.32,4.32,0,0,0,.54-.66A2.9,2.9,0,0,0,65.53,44.06Z"/><path class="cls-11" d="M61.55,41.67a1,1,0,0,0-.33,1.5.63.63,0,0,0,.77.1.78.78,0,0,0,.27-.24l.13-.14c.06-.08.1-.15.15-.23A.73.73,0,0,0,61.55,41.67Z"/><path class="cls-11" d="M26.28,62.35a1.58,1.58,0,0,0-.82-.76,2.75,2.75,0,0,0-.73-.59.79.79,0,0,0-1.14.47,1.89,1.89,0,0,0,.09,1.42,2.44,2.44,0,0,0,1.42,2.4.79.79,0,0,0,1.14-.46v0a1,1,0,0,0,.41-.55A2.76,2.76,0,0,0,26.28,62.35Z"/><path class="cls-11" d="M22.71,61.43a.53.53,0,0,0-.82.25,1.3,1.3,0,0,0,0,.59c.09.61,1,.63,1.25.17A.71.71,0,0,0,22.71,61.43Z"/><path class="cls-11" d="M26.44,56.08a1.76,1.76,0,0,0-1.89-1.39,2.29,2.29,0,0,0-1.89-1.92c-1.5-.17-2.16,1.28-2.08,2.57,0,.13.17.14.22,0,.34-.83.92-2.24,2.11-1.52.64.39.61,1.19.75,1.85.08.42.68.36.8,0,.2-.61.75.13.88.35a1.57,1.57,0,0,1,.12,1.37c-.27.77-.93.88-1.46,1.37a.3.3,0,0,0,.13.5C25.8,59.88,26.9,57.39,26.44,56.08Z"/><path class="cls-11" d="M54.75,44.5c-2.16-1.93-4.12,1-4.78,3.06-1-.49-2.73,0-3.69.45A4.18,4.18,0,0,0,44,53.28a.21.21,0,0,0,.41,0c.5-1.43.16-2.86,1.45-4,.64-.57,3.43-2,3.91-.63.15.42.88.54,1,0a4.65,4.65,0,0,1,1.8-3.35c.88-.51,2.12-.54,1.86.79-.14.76-1,1.21-1.62,1.45,0,0,0,0,0,.06C54.47,48.4,56.14,45.74,54.75,44.5Z"/><path class="cls-11" d="M43,67.86a.15.15,0,0,0-.17,0c-.34.25-.24.6-.3,1a1.44,1.44,0,0,1-.73,1.07,2.75,2.75,0,0,1-1.41.31c-.2,0-1,0-1.09-.27a0,0,0,0,0-.09,0c0,.55.17.76.75.91a3.22,3.22,0,0,0,2-.16,2.15,2.15,0,0,0,1.22-1.2C43.33,69.06,43.55,68.14,43,67.86Z"/><path class="cls-11" d="M45.71,57.82a2.94,2.94,0,0,0-2.39,1.79.79.79,0,0,0,.75,1h.1l.11.13c.86.85,2,.24,2.64-.66a2,2,0,0,0,.7-1C47.9,57.88,46.55,57.67,45.71,57.82Z"/><path class="cls-11" d="M43.62,61.2l-.11-.06a.61.61,0,1,0,0,1l.11,0A.54.54,0,0,0,43.62,61.2Z"/><path class="cls-11" d="M31,75.34A4.43,4.43,0,0,1,28.6,73.6a7.32,7.32,0,0,1-1.52-2.38.06.06,0,0,0-.11,0,4.76,4.76,0,0,0,2.08,4.06,3.21,3.21,0,0,0,2.22.79c.8-.11,1.36-1.4,1.91-.33,0,0,.08,0,.07,0C32.89,74.33,32,75.59,31,75.34Z"/><path class="cls-11" d="M44,75.61a2.22,2.22,0,0,0-.28.68c-.31,1,.06.95-1.11,1.55s-.94.36-1.72-.73a5.22,5.22,0,0,0-.49-.67.18.18,0,0,0-.25,0c-1.4,1.64-2.07.27-3.54-.13a1,1,0,0,0-1.27.41s0,0,0,0c.62-.84,2.48,1.16,3.23,1.24a1.51,1.51,0,0,0,1.16-.29c.71-.54.48-.85,1.16,0s1.09,1.57,2.17,1a3.72,3.72,0,0,0,1.39-2.93A.26.26,0,0,0,44,75.61Z"/><path class="cls-11" d="M68.32,67a.34.34,0,0,0-.68,0c-.2,1.61.22,2-2.18,3.21-.18.09-.42,0-.59.12a3,3,0,0,0-1.11.91c-.53.77-.61,1.78-1.12,2.57-1.07,1.62-2.52.86-4,1.22a3.44,3.44,0,0,0-1.14.72c-1,.71-1.1.79-2.76.49-.28-.05-.47-.27-.76-.27a3.14,3.14,0,0,0-1.44.37c-.18.09-.24.35-.4.44a2.23,2.23,0,0,1-2.29-.28.08.08,0,0,0-.11.09,1.88,1.88,0,0,0,1.71,1.67c.78,0,.81-.38,1.37-.71,1.42-.84,2.6.33,4-.29,1.19-.54,1.41-1.61,2.83-1.66,1.13,0,2,.18,2.88-.68s1-2,1.57-3c.76-1.31,2.44-.84,3.45-1.89A3.64,3.64,0,0,0,68.32,67Z"/><path class="cls-11" d="M74.41,58a.1.1,0,0,0-.15-.12,7.07,7.07,0,0,1-1.59.88.38.38,0,0,0-.27.47c.39,1,.51,4.15-1.19,4a.08.08,0,0,0,0,.13c.85.93,1.71.15,2-.82a5.63,5.63,0,0,0,.07-3.23A2.06,2.06,0,0,0,74.41,58Z"/><path class="cls-11" d="M74.74,48a.3.3,0,0,0-.45.26,1,1,0,0,0,.25.87c.62.93,1.36,1.18,1.43,2.53A10.54,10.54,0,0,1,74.81,57a.07.07,0,0,0,.12.07C76.69,54.66,78,49.87,74.74,48Z"/><path class="cls-11" d="M71,10.77a.17.17,0,0,0-.34,0,3.62,3.62,0,0,0,0,.47c-.27.1-.58,1.34-.75,1.65A8.46,8.46,0,0,1,67.07,16c-.9.58-1.92,1-2.82,1.56-1.07.7-3,2.35-1.32,3.49.22.15.43-.14.33-.34-1-2.1,2.89-3.22,4.2-4C69.43,15.45,71.24,13.19,71,10.77Z"/><path class="cls-11" d="M70.07,14.79a24,24,0,0,0-1.31,3c-.49,1.33-1.3,2.4-1.9,3.65a.16.16,0,0,0,.21.21c2.21-1.25,2.42-4.71,3-6.88C70.11,14.79,70.08,14.77,70.07,14.79Z"/><path class="cls-11" d="M76.1,21.45a8.08,8.08,0,0,0-4.68,1.15c-1.07.56-2.9,1.74-2.62,3.17a.34.34,0,0,0,.61.08,6.36,6.36,0,0,1,3-2.61,15.69,15.69,0,0,1,3.74-1A.41.41,0,0,0,76.1,21.45Z"/><path class="cls-11" d="M75.7,21.93a5.83,5.83,0,0,0-2.77,2.49,7.66,7.66,0,0,0-1.45,3.75c0,.12.17.22.26.11a18.31,18.31,0,0,0,1.48-3.09A9.81,9.81,0,0,1,75.76,22S75.75,21.91,75.7,21.93Z"/><path class="cls-11" d="M38.44,15.91A6.73,6.73,0,0,0,37,15a10.6,10.6,0,0,1-2.32-1.9A9.14,9.14,0,0,1,32,7.81c0-.19-.3-.33-.4-.11-1.42,3.14.48,6.59,2.17,9.22,0,0,0,0,0,0-1.33-2.4-2.49-5.08-2.09-7.81a10,10,0,0,0,2.15,4.17c.94,1.15,2.81,3.27,4.49,3A.23.23,0,0,0,38.44,15.91Z"/><path class="cls-11" d="M42.56,13a11.19,11.19,0,0,1-.49-2.81.13.13,0,0,0-.24-.07,11.17,11.17,0,0,0-1.31,3c-.23.87-.59,2.07-.1,2.89a.13.13,0,0,0,.23,0,24.6,24.6,0,0,0,.59-3c.15-.59.3-1.18.48-1.76,0,1.54.44,3.36,1.73,4.13a.09.09,0,0,0,.12-.1C43.3,14.42,42.81,13.75,42.56,13Z"/><path class="cls-11" d="M52.89,10.29c-.57,2-1,3.89-2.66,5.34,0,0,0,0,0,0,1.85-.88,2.59-3.49,2.7-5.37A0,0,0,0,0,52.89,10.29Z"/><path class="cls-11" d="M56.58,12.41a.12.12,0,0,0-.23,0A8.87,8.87,0,0,1,54,16.47a11.8,11.8,0,0,0-1.1-6.17s0,0,0,0a34.19,34.19,0,0,1,.44,7,.3.3,0,0,0,.5.21c1-1.11,2.18-2.31,2.56-3.77.41-1.63,0-.32.13.42A17.71,17.71,0,0,0,57,17.24a.18.18,0,0,0,.34,0C57.7,15.65,56.83,14,56.58,12.41Z"/><path class="cls-11" d="M29.89,19.78c-1.12-.48-2.33-.52-3.44-1.05a21.45,21.45,0,0,1-3.39-2.09.22.22,0,0,0-.32.24,16.5,16.5,0,0,0,3.48,4.77.14.14,0,0,0,.22-.16,46,46,0,0,0-2.71-3.89A13.17,13.17,0,0,0,29.84,20C29.93,20,30,19.82,29.89,19.78Z"/><path class="cls-11" d="M21.11,26.16a12.51,12.51,0,0,0-3,.35A3.61,3.61,0,0,0,16,27.59s0,.08.06.07c.82-.3,1.6-.64,2.43-.9a18.26,18.26,0,0,1,2.63-.52C21.17,26.23,21.15,26.17,21.11,26.16Z"/><path class="cls-11" d="M20.45,28.38A15,15,0,0,0,18,27.74s0,0,0,0a10.36,10.36,0,0,0,2.4.78C20.49,28.55,20.52,28.42,20.45,28.38Z"/><path class="cls-11" d="M16.48,31.79c-1.74-.39-3.12,1.06-4.12,2.27-1.44,1.74-2.69,3.8-4.94,4.52-.26.11-.25.56.08.53h.08a3.43,3.43,0,0,0,1.3-.42c1.44-.35,2.9-.4,4.4-.61.24,0,.15-.36,0-.38a10.58,10.58,0,0,0-3.22.14,10.29,10.29,0,0,0,1.25-1.49c1.49-2.12,2.64-3.7,5.22-4.47A0,0,0,0,0,16.48,31.79Z"/><path class="cls-11" d="M13.31,40.78c-2,1.6-3.64,4.3-6.59,3.46-.27-.08-.45.33-.2.46,1.59.86,2.88,2.57,4.56,3.18.12,0,.24-.11.17-.22a10.91,10.91,0,0,0-3.41-2.78c2.32-.11,4-2.41,5.59-4C13.51,40.82,13.39,40.72,13.31,40.78Z"/><path class="cls-11" d="M9.53,51.54A7.49,7.49,0,0,0,13,49.87a0,0,0,0,0,0-.06A26.51,26.51,0,0,0,10,50.6a6.07,6.07,0,0,1-3.68-.46c-.39-.18-1,.23-.66.67,1.56,2.24,4.17,4.88,6.82,5.75a.1.1,0,0,0,.11-.15,14.62,14.62,0,0,0-2.86-2.69,21.35,21.35,0,0,1-2.27-2.19A4.72,4.72,0,0,0,9.53,51.54Z"/><path class="cls-11" d="M12.67,62.42c-2.41-.17-5-.36-7-1.82,2.41-.22,5.34-.75,6.92-2.52a.1.1,0,0,0-.1-.17c-1.26.35-2.33,1.15-3.6,1.51a19.22,19.22,0,0,1-4.22.47.4.4,0,0,0-.2.73c2.42,1.43,5.34,3.18,8.21,2C12.79,62.56,12.78,62.42,12.67,62.42Z"/><path class="cls-11" d="M17,67.21a14.51,14.51,0,0,1-2.44,1.27c.87-1.28,2.18-2.25,2.61-3.82a.13.13,0,0,0-.23-.1,45.08,45.08,0,0,0-2.82,4,.15.15,0,0,0,.13.22,4.23,4.23,0,0,0,2.87-1.46A.1.1,0,0,0,17,67.21Z"/><path class="cls-11" d="M20.08,76.56a14.84,14.84,0,0,1-.92-6.69c0-.16-.22-.31-.3-.12a7.81,7.81,0,0,0-.27,5.12,27.83,27.83,0,0,0,2,6,.12.12,0,0,0,.21,0A8.82,8.82,0,0,0,20.08,76.56Z"/><path class="cls-11" d="M22.64,71.59a.14.14,0,0,0-.25.11c.52,2,.09,3.71-.41,5.7a.12.12,0,0,0,.22.09A5.54,5.54,0,0,0,22.64,71.59Z"/><path class="cls-11" d="M30.58,78.08c-.61.86-.43,2-.84,3a16.51,16.51,0,0,0-2.14-3.76s0,0,0,0a18.89,18.89,0,0,1,2,4.22.18.18,0,0,0,.33,0,5.93,5.93,0,0,0,.91-3.44A.11.11,0,0,0,30.58,78.08Z"/><path class="cls-11" d="M35.88,83.47a9.54,9.54,0,0,0-2.18-3.85c-.06-.06-.17,0-.14.08.41,1.3,1.32,2.38,1.67,3.69.42,1.54-.22,2.82-.39,4.31,0,.24.33.26.4.06A7.76,7.76,0,0,0,35.88,83.47Z"/><path class="cls-11" d="M37.92,83.26A8.24,8.24,0,0,0,37,85a13.12,13.12,0,0,1-1.24,2s0,.06,0,0a7.26,7.26,0,0,0,2.35-3.65C38.14,83.27,38,83.16,37.92,83.26Z"/><path class="cls-11" d="M46.94,85.57c0-.08-.13-.07-.15,0-.28,1.16-.44,2.37-.75,3.52a6.33,6.33,0,0,0-.42-2.33c-.71-1.73-2.15-2.67-2.38-4.69,0,0-.06,0-.06,0a6.53,6.53,0,0,0,1,3.19A12.4,12.4,0,0,1,45.32,91a.27.27,0,0,0,.53.07C46.62,89.21,47.33,87.63,46.94,85.57Z"/><path class="cls-11" d="M56.41,84.9c-1.28-.77-.79-2.62-.83-3.81,0-.12-.18-.19-.24-.07a4,4,0,0,0,.2,3.6,9,9,0,0,1-2.49-1.27c-1-.73-1.55-1.84-2.49-2.57,0,0-.08,0-.08,0,0,1.2,1.17,2.26,2.05,3a10,10,0,0,0,3.63,1.73A.32.32,0,0,0,56.41,84.9Z"/><path class="cls-11" d="M67.09,84.57c-1.65-2.33-1.25-5.21-1.11-7.84a.25.25,0,0,0-.47-.13c-.75,1.06-.5,2.84-.33,4a12.07,12.07,0,0,0,.76,2.8c-.76-.69-1.57-1.34-2.31-2.05-1.11-1.07-2-2.33-3.09-3.41a0,0,0,0,0,0,0c.86,2.81,4,5.24,6.24,6.93C66.94,85.08,67.24,84.78,67.09,84.57Z"/><path class="cls-11" d="M73,72.33a.07.07,0,0,0-.13,0,10.85,10.85,0,0,1-.38,4.2c-.34-2.14-2.07-4.53-4-5.07,0,0,0,0,0,.05,1.92,1.14,3.84,3.68,3.77,6,0,.2.28.22.34,0C73.08,76,73.77,74,73,72.33Z"/><path class="cls-11" d="M77.22,67.94c0-.1-.22,0-.21.06a4.2,4.2,0,0,0,.7,2.07c.11.2.6.7.75,1L78,70.81a10.43,10.43,0,0,1-3.83-4.65s-.1,0-.08,0a7.41,7.41,0,0,0,1.65,3.27,5.92,5.92,0,0,0,3,2.15.1.1,0,0,0,.11-.14C78.24,70.32,77.75,69.12,77.22,67.94Z"/><path class="cls-11" d="M79,62.51a15.8,15.8,0,0,0-.34-2.29.16.16,0,0,0-.3,0,7.05,7.05,0,0,0,.27,3.64c-.37-.38-.74-.77-1.12-1.15a2.69,2.69,0,0,0-1.81-1c-.07,0-.11.09-.06.13.55.6,1.22,1.08,1.77,1.69a8.28,8.28,0,0,0,1.66,1.58.31.31,0,0,0,.46-.35A22,22,0,0,1,79,62.51Z"/><path class="cls-11" d="M82.52,55.57a15.59,15.59,0,0,0-3.07-4.25.11.11,0,0,0-.17.13c1.25,2.83,3.72,5.18,4.33,8.3-1.44-1.28-3.49-2.51-5.37-2.07,0,0,0,.08,0,.09A12.17,12.17,0,0,1,83.8,60.7a.29.29,0,0,0,.47-.27A15.07,15.07,0,0,0,82.52,55.57Z"/><path class="cls-11" d="M83.13,44.76c-.95.17-1.88.39-2.85.49a6.22,6.22,0,0,0-2.06.33s0,.07,0,.09c1.19.53,3,.18,4.41-.26a7.08,7.08,0,0,1-1.8,1.35c-.73.41-1.52.48-2.24.84a.16.16,0,0,0,0,.27c.71.5,1.82-.11,2.43-.51a16.86,16.86,0,0,0,2.32-2.23C83.51,45,83.33,44.73,83.13,44.76Z"/><path class="cls-11" d="M84,50.63c-.49-.28-1.21-.79-1.79-.63a.13.13,0,0,0-.06.22,3.45,3.45,0,0,0,1.21.67,2,2,0,0,1-1.33,0,9.2,9.2,0,0,1-1.46-.47s-.09,0,0,.08a4.4,4.4,0,0,0,1.89,1A1.81,1.81,0,0,0,84,51,.23.23,0,0,0,84,50.63Z"/><path class="cls-11" d="M81.94,37.61c-1.56.73-3.62.54-4.63,2.19a.11.11,0,0,0,.15.15,27.35,27.35,0,0,1,4.06-1.82c-.44.62-.78,1.29-1.16,1.95a9.91,9.91,0,0,1-2,2.44c-.18.16,0,.39.21.36,2.14-.29,2.87-3.38,3.61-5A.19.19,0,0,0,81.94,37.61Z"/><path class="cls-11" d="M80.21,31.7c-.6.36-1.08.86-1.67,1.25a8.31,8.31,0,0,1-2.13.95,0,0,0,0,0,0,.09,3.43,3.43,0,0,0,2-.59,7.56,7.56,0,0,0,.85-.64c.17-.14.37-.39.56-.58a10,10,0,0,0-1,2,10.47,10.47,0,0,0-1.43,2.54.11.11,0,0,0,.18.1,9.3,9.3,0,0,0,1.5-2.3,27.16,27.16,0,0,1,1.16-2.76A.05.05,0,0,0,80.21,31.7Z"/><path class="cls-11" d="M76.42,29.24c-1,.44-2.35.56-3,1.59a0,0,0,0,0,0,.05,13.93,13.93,0,0,1,2.4-.91c-.3.34-.64.63-1,1a3,3,0,0,0-1,1.41c0,.12.08.28.23.22a4,4,0,0,0,1.43-1.3c.44-.54.87-1.12,1.26-1.69C76.93,29.35,76.63,29.15,76.42,29.24Z"/><ellipse class="cls-12" cx="45.8" cy="48.25" rx="31.8" ry="31.86"/></g></g></g></svg>