<svg xmlns="http://www.w3.org/2000/svg" viewBox="0 0 132.82 64.93"><defs><style>.cls-1{isolation:isolate;}.cls-2{fill:#31ade0;}.cls-3,.cls-4,.cls-5{fill:#60bfee;}.cls-3,.cls-4{opacity:0.76;}.cls-3,.cls-5{mix-blend-mode:screen;}.cls-4,.cls-6{mix-blend-mode:multiply;}.cls-5{opacity:0.47;}.cls-6{fill:#1a7aa0;opacity:0.42;}.cls-7{fill:#6cd4f4;}.cls-8{fill:#b3edff;opacity:0.51;}.cls-9{fill:#7de0ff;opacity:0.62;}</style></defs><g class="cls-1"><g id="Camada_2" data-name="Camada 2"><g id="icons_planets"><ellipse class="cls-2" cx="66.19" cy="32.46" rx="31.75" ry="32.58" transform="translate(-7.36 27.46) rotate(-22.23)"/><path class="cls-3" d="M48.92,59.41a31.84,31.84,0,0,0,8.82,4.18,40,40,0,0,0,4.55-.52c2.55-.44,14.81-4.12,14.1-7.53a19,19,0,0,1-3,.89c5.41-4.13,17.22-6.7,19.42-14-.84.32-2,.26-2.83.49,2.18-2.59,5.31-4.9,8-7.47A34.93,34.93,0,0,0,98,31C91.33,37.71,83.5,43.82,75,47.12c2.5-2.82,15.06-8.3,13.23-13.43C80.23,37.13,74.07,45,66.9,49.85a83,83,0,0,1-14.38,8.33A27.38,27.38,0,0,1,48.92,59.41Z"/><path class="cls-4" d="M35,25.19a33,33,0,0,0,1.35,18.14c3.1-3.41,5.41-8.67,8.81-11.4,1.67-1.34,15.53-9,14.53-11.4-1.36-3.19-10.88,4.14-13,3A52,52,0,0,1,64.32,13.06a69.24,69.24,0,0,1,9.8-2.59c2.45-.44,5.42,0,7.64-1.37a6.92,6.92,0,0,0,2.88-2.75,31.75,31.75,0,0,0-5.88-3.47H78.7c-7.45.69-15.31,4.76-21.94,7.88C48.07,14.86,40.45,19.37,35,25.19Z"/><path class="cls-4" d="M49.57,48.17c6.74-1.33,14.71-5.42,20.11-9.58C73,36.07,79.07,32.1,79.9,27.9c-2.62,1.32-8.88,7.2-11.43,5.71,2.26-3.54,7.09-5.72,10.54-8,1.42-.93,8.33-3.57,8-5.95-.58-3.67-16.83,5.82-18.2,6.58C59.76,31.26,49,36.87,49.57,48.17Z"/><path class="cls-4" d="M44.74,51.3c1-1,5.63-7.6,2.54-8.56-2.81-.86-9.6,9.56-4.16,10.24Z"/><path class="cls-4" d="M87,26.81C89.41,26.62,95.7,24,95.85,21c-3-1.31-7.77,2.44-9.5,4.67Z"/><path class="cls-3" d="M46.87,24.21c2.44.24,4.54-1.24,6.62-2.29.65-.33,5.5-2.8,5.64-1.17,0,.17.27.26.33.08.68-1.8-2-1.12-2.8-.86-3.41,1.11-6.26,3.31-9.8,4.07A.09.09,0,0,0,46.87,24.21Z"/><path class="cls-3" d="M45.16,16.66c-2.45,1.86-5.19,3.53-7.26,5.85a0,0,0,1,0,.05,0c2.27-2.28,5.3-3.91,7.89-5.79a59.73,59.73,0,0,1,8.38-5.11C60.93,8.26,67.9,6,74.91,3.42a.18.18,0,0,0-.1-.34C67.6,4.43,60.44,7.9,53.93,11.19A57.64,57.64,0,0,0,45.16,16.66Z"/><path class="cls-3" d="M43.69,44.66a19.5,19.5,0,0,0-1.75,2.55c-.66,1.23-.49,2.56-1.06,3.79,0,0,0,0,0,0a2.94,2.94,0,0,0,.52-1.17,9.16,9.16,0,0,1,1.51-3.53c1-1.44,2.41-3.83,4.47-3.28.24.06.3-.29.08-.37C45.83,42.13,44.63,43.46,43.69,44.66Z"/><path class="cls-3" d="M55.22,35.14C51.3,38.54,49.73,43,49.7,48.22c0,0,0,0,0,0,.43-2.6.71-5.27,1.86-7.66a16.48,16.48,0,0,1,5.16-5.81,110.16,110.16,0,0,1,11.85-7.87c1.14-.67,16.77-10.43,18.27-7.64a.35.35,0,0,0,.63-.3c-1.46-3.65-14.46,4.54-16.21,5.52C65.74,27.59,60.08,30.93,55.22,35.14Z"/><path class="cls-3" d="M86.44,26s0,0,0,0c-.58-1.2,6.1-4.24,6.9-5,.2-.19-.09-.44-.29-.34C92.27,21,85.24,25.16,86.44,26Z"/><path class="cls-3" d="M68.57,33.71C73,36,76.52,29.5,80,28.11c.25-.1.21-.56-.1-.52-1.53.2-2.6,1.45-3.66,2.49-2,1.9-4.7,4.08-7.59,3.42A.11.11,0,0,0,68.57,33.71Z"/><path class="cls-3" d="M78.77,39.72c-3.16,2.58-5.94,5.52-9.24,8-3,2.24-6.05,4.36-9.22,6.36-2.75,1.73-5.67,4.65-9,5,0,0-.06.08,0,.08,2.3.23,4.18-1.15,6-2.36,3.35-2.22,6.81-4.22,10.07-6.57a84.92,84.92,0,0,0,9.29-7.4,75.5,75.5,0,0,1,11.63-8.55.44.44,0,0,0-.47-.74A101.84,101.84,0,0,0,78.77,39.72Z"/><path class="cls-3" d="M97.15,30.79a53,53,0,0,1-9.92,9.81c-3.63,2.6-7.58,4.25-11.49,6.3,0,0,0,.06,0,.05,8.88-1.27,16.59-9,22-15.58C98.13,31,97.5,30.37,97.15,30.79Z"/><path class="cls-3" d="M73.35,56.75c.43.28,1-.06,1.41-.27s1.79-1.11,1.78-.54a0,0,0,0,0,.06,0c.13-.16.18-.18.21-.39a.14.14,0,0,0-.14-.17,3.15,3.15,0,0,0-1.63.47,6.86,6.86,0,0,1-1,.45,3.75,3.75,0,0,0-.75.19C73.24,56.56,73.28,56.7,73.35,56.75Z"/><path class="cls-3" d="M90.23,43a.14.14,0,0,0,.1.2c.35.09.72-.24,1-.39s.86-.37,1.19-.17c0,0,0,0,0,0s-.18-.25-.4-.32a1.14,1.14,0,0,0-.66,0C91.11,42.47,90.44,42.68,90.23,43Z"/><path class="cls-3" d="M88.32,42.33c-2.25,1.61-4.89,2.53-6.7,4.73a.35.35,0,0,0,.18.56,3.28,3.28,0,0,0,2-.14c.47-.15.92-.49,1.39-.61a1,1,0,0,1,1.13-.2c.7,0,.69.2,0,.64-.81,1.57-3.9,2.49-5.39,3s-3.3.91-5,1.37C68.89,53.62,63.45,59,56.35,61c-.05,0,0,.09,0,.08,7.09-1.55,12.44-6.66,19.31-8.62,2.65-.76,5.42-1.24,7.91-2.46,1.39-.68,4-2.05,4.29-3.81a.36.36,0,0,0-.18-.39c-.93-.46-1.83,0-2.7.38-.45.22-.91.43-1.37.63-1.21.26-1.33.1-.37-.49.65-.91,2.13-1.48,3.06-2,4-2.34,6.76-5.84,10.13-9,.18-.17-.1-.51-.3-.35C93.25,37.1,91.25,40.24,88.32,42.33Z"/><path class="cls-3" d="M80.29,40.62c-.05.15,0,.35.21.34,1.58-.13,2.58-1.43,3.49-2.63.17-.22-.16-.53-.33-.3a6.93,6.93,0,0,1-2,2.14c-2,.88.45-1.35.8-1.66.68-.61,3.9-3.18,4.15-2,.5,2.35-5.62,5.27-7.2,6.14s-10.91,5.46-8.7,7c1,.71,3.93-.71,4.94-1.08.46-.17,3.93-1.55,3.88-.84-.07,1-3,1.21-3.86,1.43-3.55.93-6.81,2.92-9.94,4.77-3.82,2.25-7.5,5.9-12.08,6.31,0,0,0,0,0,0,3.48.11,6.16-2.09,9-3.84,3.88-2.4,8.2-5.15,12.58-6.46.56-.16,7.9-1.88,4.63-3.18-1.48-.58-4.06,1.12-5.41,1.57-1.79.61-4.84,1.5-1.68-1a39.77,39.77,0,0,1,4.92-3c3.06-1.76,9.87-4.22,9.59-8.75a.31.31,0,0,0-.4-.29C84.37,35.94,81.16,38.1,80.29,40.62Z"/><path class="cls-3" d="M58.57,62.1c-.06,0-.06.1,0,.11,2.52.57,5-.24,7.44-.76,1.92-.41,6.14-1.11,7.09-3.31,1.09-2.49-3.6-1.52-4.69-1.16-.9.3-6,2-4.37,3.72,1.43,1.46,5.95-1.25,6.77-2.5a.25.25,0,0,0-.17-.35,3.47,3.47,0,0,0-3.26.9.2.2,0,0,0,.21.33c.91-.55,3.24-1.07,1.33.05-.75.43-2.14,1.34-3.06,1.27s-1.66-.07-.77-1.35a3.1,3.1,0,0,1,1.08-.61,16.33,16.33,0,0,1,2.71-1.09c.75-.21,2.11-.71,2.86-.35,2.51,1.21-2.78,3.26-4,3.6C64.88,61.35,61.51,62.35,58.57,62.1Z"/><path class="cls-3" d="M66.81,13.4a.29.29,0,0,0,.15.46c1.9.35-.47,1.22-1.08,1.48a32.68,32.68,0,0,1-3.61.84,17.52,17.52,0,0,0-5.22,2.48A.22.22,0,0,0,57,19c1.55,1.29,4-.35,5.46.62,3.42,2.28-10.17,10.64-11.71,11.76-2.74,2-14,9.08-11.54,14.07,0,0,0,0,0,0C37.35,40.56,48.12,33.81,51,31.72,54.81,29,61.45,26.16,63.44,21.45c.72-1.71-.16-2.2-1.83-2.3-.76,0-1.57.13-2.34,0-2.68-.38.27-1.48,1.69-2,2.67-.94,5.64-1,8-2.58a.3.3,0,0,0,0-.47c.32.35-1.11-1.23-1.24-.83.13-.94,3-1.21,3.5-1.26a34.34,34.34,0,0,1,5.27,0c3.08.13,6.59,0,7.55-3.48.09-.3-.37-.4-.47-.1C81.54,15.12,70.59,8.58,66.81,13.4Z"/><path class="cls-3" d="M57.31,3.75c-.76,1.46.17,2.37-1.62,3.73-1.13.86-3,.91-4.29,1.24-2.38.6-4.66,1.22-6,3.39a.3.3,0,0,0,.12.39c1.31.87,2.45-.08,3.74-.51,1.92-.65.39.14-.56.59s-2,.84-3,1.26c-1.81.76-6,2.08-5.55,4.76a.32.32,0,0,0,.38.28c1.08-.31,1.14-.37.18.25a22,22,0,0,1-2,1,6.4,6.4,0,0,0-2.61,2,.23.23,0,0,0,.34.31c1.8-1.85,4.5-2.21,6.21-4.18a.31.31,0,0,0-.31-.49c-2.82.8-.5-1.31.59-2A28.89,28.89,0,0,1,46.79,14c1.5-.62,3.36-1.16,4.53-2.36a.31.31,0,0,0-.17-.5,3.18,3.18,0,0,0-1.78.13,10.93,10.93,0,0,1-1.79.78l1-1.9c.45-.17.91-.33,1.37-.46,2-.64,5.17-.64,6.68-2.3a5.49,5.49,0,0,0,.84-1.84c.69-1.64-.84-.65,2.12-2.05,1.93-.91,1.83-1,3.48-.51,3.12.87,4.69.29,7.67-1a0,0,0,0,0,0,0c-2,.52-3.89,1.5-6,1.05-1.29-.27-2.49-1-3.83-1A3.69,3.69,0,0,0,57.31,3.75Z"/><path class="cls-3" d="M90.37,16.15c1.3,2.77-.72,4.31-2.75,5.91-1.25,1-2.83,1.64-4,2.66-1.48,1.26-.35,2.8-1,4.64-1.47,3.88-5.2,5-7.78,7.62-.84.87-.69,1-.71,2a.56.56,0,0,0,.25.16c.66.24.67.93.06,2.07-.38.84-2.1,1.77-2.93,2.24-2.47,1.38-5,1.49-7.68,2.09-3.31.74-5.11,3.32-7.47,5.55-1,1-8.37,7.19-9.27,3h0c.48,4.22,7.44-1,8.64-2,2.31-2,4.2-4.91,7.19-5.92,2.26-.75,4.68-.57,6.92-1.45,1.75-.68,5.65-2.44,5.67-4.87,0-1-.76-.65-.73-1.55,0-1.61,2.62-2.47,3.8-3.41,2.24-1.77,4.73-4.7,5.26-7.65,0-.23-.29-.45-.28-.62.16-1.8.6-1.63,1.82-2.39a29.3,29.3,0,0,0,4.49-3.43c.65-.62,2.34-2,2.3-3.09,0-1.34-3.48-2.59-.93-4.29a.2.2,0,0,0-.22-.33C89.25,14.05,89.68,14.67,90.37,16.15Z"/><path class="cls-3" d="M85.09,30.62c-1.08.82-1.84,2.09-2.91,3-.9.75-1.94,1.29-2.86,2-.52.39-1.54,1-1.62,1.72-.14,1.12.43,1.23,1.34,1,1.14-.25,2.76-2,3.62-2.69,1.94-1.57,3.74-3.31,6.08-4.28a.06.06,0,0,0,0-.12c-3,.72-5.38,3-7.78,4.93-.69.55-2.9,2.22-1.75.14.56-1,2.41-1.69,3.27-2.41,1.81-1.52,3-3.39,5.38-4.08a32,32,0,0,0,4.12-1c1.64-.7,3.42-1.82,3.63-3.75,0,0,0,0,0,0C94.58,30,88.07,28.37,85.09,30.62Z"/><path class="cls-3" d="M77.17,13.64c-1.44,0-2.58-.09-3.32,1.28a.28.28,0,0,0,.26.41,16.51,16.51,0,0,0,2.53-.14c.28,0,1.48-.25,1.66-.09l-1.14,2.18-.78,0c-1.67.42-3.8-.36-5.57-.09-4.72.73,0,2.74-1.46,5.33-.66,1.15-2.93,2.1-4.07,2.71-1.76.93-3.61,1.7-5.43,2.53a27.4,27.4,0,0,0-6.94,4.53c-2.66,2.37-5,5.11-7.42,7.74-.49.53-2.33,3.14-3,3.07-.31-.47-.63-.93-1-1.4l1-.9a10.55,10.55,0,0,1,2.08-1.21s0,0,0,0c-1.71.7-4.17,2-4.09,4.16a.14.14,0,0,0,.12.11c2.88.24,5.48-3.89,7.18-5.68a65.81,65.81,0,0,1,6.74-6.62,36.67,36.67,0,0,1,7.89-4.38c2.11-1,7.65-2.85,8.26-5.66.26-1.18-.38-.85-.69-1.73-1-2.84,2.36-2.16,3.94-2.08,1.37.08,6,.72,6.17-1.85.08-1.58-1.77-1.35-2.86-1.3a12.73,12.73,0,0,1-2.29.2c-1.92-.3,2-.51,2.53-.54,1.83-.1,3.25,0,5-.69,1.43-.58,4.51-2.34,4-4.44a.3.3,0,0,0-.35-.19c-.51.09-.33.07-.88.54-.24.21,0,.64.28.44s-.35,1.18-.41,1.28c-.66,1-2.5,1.77-3.65,2.14A11.91,11.91,0,0,1,77.17,13.64Z"/><path class="cls-3" d="M69.19,29.55c-3.06,1.78-6.43,2.77-9.37,4.8-.17.12-.15.47.1.5a9.13,9.13,0,0,0,2.55-.24c1.6-.25,3,.18,1.66,2.08-.64.88-2.19,1.2-3.18,1.52-1.7.56-5.87,1.16-6.4,3.43C54.23,43,55.18,43,56.32,43c3.56-.16,6.09-2.75,8.9-4.58,0,0,0,0,0,0-1.91,1.16-3.63,2.79-5.74,3.58-.77.29-2.41.92-3.16.68-3.75-1.2,4.46-3.7,5.57-4.1s5.94-3.12,3.28-4.62c-.8-.45-4.09.87-4.42.44.08.1,8.14-3.89,9.28-4.59,3.07-1.89,5.43-4.72,8.55-6.55a28.9,28.9,0,0,1,3.13-1.73c1.47-.62,2.34-.37.86,1a8.14,8.14,0,0,1-3.17,1.17c-.29.07-.14.5.14.45C81.61,23.7,83.61,23,84.63,21a.34.34,0,0,0-.14-.43c-2.55-1.14-6.71,2.18-8.53,3.58C73.67,25.94,71.7,28.08,69.19,29.55Z"/><path class="cls-3" d="M41.85,22.5c.09.6,1,.58,1.17,1,.5,1.38-4.38,3.93-5.18,4.88a.22.22,0,0,0,0,.31c2.18,1.54,4.56.62,6.72-.47,1.64-.83,3.23-1.78,4.82-2.68.59-.34,5.36-3.64,5.54-1.47.09,1.06-7.9,5.17-8.86,5.79a22.61,22.61,0,0,0-5.45,4.28C39.11,36,38.23,38.39,37,40.43c0,.06.06.14.11.08,1.42-1.92,2.27-4.27,3.82-6.09,2-2.35,4.85-3.77,7.38-5.45,2-1.33,5.9-2.64,7.07-4.76.53-1,.36-1.42-.67-1.55-.79-.11-1.84.62-2.52.95-2,1-3.95,2.19-5.92,3.28-1.44.8-3.46,2.32-5.21,2.19-1.2-.09-1.77-1-1-2,.26-.33,1-.55,1.34-.77.65-.4,1.77-.87,2.12-1.64.67-1.46-1.3-1.68-.61-3,.39-.72,2.51-1.5,3.23-1.94,1.18-.72,2.35-1.47,3.53-2.2,2.48-1.54,5-2.91,7.58-4.35,4.9-2.77,9.3-5.28,14.78-6.79A12.25,12.25,0,0,1,78.38,6c2.42.57.29,2-1,2.18a15.44,15.44,0,0,1-3.67-.36c-4.27-.47-8.29,1.32-11.76,3.64a.16.16,0,0,0,.17.26C66.44,9.16,70.37,8,75.42,8.53c1.27.14,4.35.78,5.2-.71,2-3.57-7.68-2.3-8.82-2-9.07,2.55-17,7.93-24.94,12.9C46,19.3,41.62,20.89,41.85,22.5Z"/><path class="cls-3" d="M42.21,49.22a.2.2,0,0,0,.19.23c1.7.06,3.46-3.29,3.67-4.73a.17.17,0,0,0-.22-.2,3.5,3.5,0,0,0-.43.17c.47-.53,1.21-1.23,1.59-.47s-.46,1.81-.76,2.33-2.78,4.62-3.87,4.07c0,0-.06.05,0,.06,1.4.17,2.76-1.94,3.45-2.89s2.25-2.8,1.42-3.95C45.88,42,42.46,48.14,42.21,49.22ZM45.66,45c0,.17-.25.63-.34.82a10.64,10.64,0,0,1-.91,1.53,8.11,8.11,0,0,1-.83,1,2.79,2.79,0,0,1-.74.59c-.26.13-.17.26-.21.13-.11-.36.76-1.55.93-1.82a16.75,16.75,0,0,1,1.15-1.73.11.11,0,0,0,.11,0l.89-.7Z"/><path class="cls-3" d="M97.15,36.92c-1.08,1.41-2.6,2.3-3.71,3.69a.26.26,0,0,0,.13.41c.56.14.88-.12,1.38,0,.78.14.46-1.13.63.39.11.93-.58,1.66-1.1,2.34-1,1.37-2.35,2.5-3.26,4a.31.31,0,0,0,.13.39c1.26.7-3.78,4-4.37,4.28-2.69,1.45-5.76,1.81-8.33,3.53a.26.26,0,0,0,0,.39c.69.81.87.41,1.62.76,1.52.72,1.39.86-.17,2.05A21.75,21.75,0,0,1,76.87,61c-1.18.62-2.34,1.27-3.53,1.87a16.15,16.15,0,0,1-2.46,1.06,6.94,6.94,0,0,1-1.5.34c-.63-1.69.05-2.27,2-1.75.09,0,.13-.12,0-.14a4.25,4.25,0,0,0-4.11,1.42.14.14,0,0,0,0,.2c1.8,1.31,4.16.16,5.89-.66,3.29-1.57,7.08-3.1,9.31-6.11a.24.24,0,0,0-.07-.36c-.79-.5-2.68.06-2.67-1.08,0-.61,6.26-2.25,7-2.64,1.51-.76,4.43-2.2,5.16-3.85a8.29,8.29,0,0,0,.24-1.16c0-.13-.32-.3-.3-.36.13-.63.93-1.28,1.33-1.74,1.31-1.54,3.61-3.58,3-5.9a.27.27,0,0,0-.39-.15,1,1,0,0,1-1,.23c-1.09,0-.72-.49,1.11-1.37a7.46,7.46,0,0,0,1.44-1.63C97.57,37,97.3,36.72,97.15,36.92Z"/><path class="cls-4" d="M74.69,55.51h0C74.47,55.44,74.37,55.41,74.69,55.51Z"/><path class="cls-4" d="M74.68,55.51c.28.09.78.24.71.17.69-.27.75-.06.17.63a1.62,1.62,0,0,1-.86,1.13c-1.53,1.57-3.94,2.41-5.87,3.21a29.49,29.49,0,0,1-10.62,2.68s-.05.07,0,.08c2.49.59,5.1-.15,7.47-.89a32.76,32.76,0,0,0,8.57-3.69c.76-.52,3.65-2.19,3-3.65-.46-1.11-1.63-.35-2.53-.36C74.33,54.81,74.34,55.38,74.68,55.51Z"/><path class="cls-4" d="M91.68,41.77a.45.45,0,0,0,.2.59c3.27,1.43-5.17,7-6.46,7.6-2.62,1.25-5.46,2-7.66,4,0,0,0,.07,0,.06,4.85-2.65,12.51-4,15.47-9.39a2.63,2.63,0,0,0,.24-2.46c-.13-.56-.49.19-.43-.66,0-.56,1-1.24,1.29-1.56,1-.91,2.05-1.69,3-2.58.29-.27-.13-.72-.44-.53A16.84,16.84,0,0,0,91.68,41.77Z"/><path class="cls-4" d="M88,33.66c3.82,3.69-10.2,11.52-12.64,13.24a.07.07,0,0,0,.08.11,61.73,61.73,0,0,0,10.64-7c1.18-1,2.63-2.32,3.12-3.9a10,10,0,0,0-.28-2.8c.26-.22-.11-.6-.38-.45l-.5.29A.36.36,0,0,0,88,33.66Z"/><path class="cls-4" d="M79.71,28.14c.07,2.84-2.34,4.78-4.2,6.5a46.6,46.6,0,0,1-7.87,5.9C62,43.91,55.92,45.46,50,48c0,0,0,0,0,0,7.14-.81,14.65-4.46,20.55-8.45,3.37-2.29,10.22-6.65,9.92-11.5A.37.37,0,0,0,79.71,28.14Z"/><path class="cls-4" d="M59.1,19.91c1.78,2.24-10.47,8.61-11.27,9.08A20.59,20.59,0,0,0,41.3,35.2c-1.74,2.46-2.81,5.63-5,7.64,0,0,0,.13.08.1a6.93,6.93,0,0,0,2.47-2.6,56.45,56.45,0,0,1,4.14-6c3.36-4.06,8-5.45,12.14-8.47,1.08-.8,7-5,4.49-6.46C59.26,19.21,58.86,19.61,59.1,19.91Z"/><path class="cls-4" d="M46.78,23.38s0,.06,0,0c5.58-5.35,12.08-8.21,19.34-10.51a69.16,69.16,0,0,1,11.66-2.32,11,11,0,0,0,6.41-3.21c.37-.35-.23-.9-.61-.55C80.32,10,76.56,9.65,72.37,10.44A79,79,0,0,0,61.2,13.73C55.83,15.59,50,18.45,46.78,23.38Z"/><path class="cls-4" d="M61.79,49.57a5.06,5.06,0,0,0-4.15,2.3c-1,1.4-1.68,2.92-3,4a6.93,6.93,0,0,1-7.7,1s0,0,0,0a6.85,6.85,0,0,0,8-.73A11,11,0,0,0,57,53.48c1.28-1.94,2.3-3.26,4.8-3.5a20.18,20.18,0,0,0,2.33-.22C67,49.1,67,46.43,69.37,45.67c3.16-1,5.53-1.78,7.2-5,.07-.13-.12-.22-.2-.1a9.8,9.8,0,0,1-5.52,4.5c-.87.23-2.16,0-2.95.52-.44.29-.37.63-.6.84l-.38,1A3.82,3.82,0,0,1,64.1,49.3,12.89,12.89,0,0,1,61.79,49.57Z"/><path class="cls-4" d="M83.77,13.63c.74,1.18-.31,2.47-1.18,3a8.9,8.9,0,0,1-1.83.84c-1,.32-2.18.22-3.17.63-1.22.5-.76.57-1.09,1.33-.74,1.71-.19,1.59-1.68,2.26-.6.27-1.23.46-1.84.71a24.81,24.81,0,0,0-2.44,1.17c-3.22,1.69-6.36,3-9.28,5.2-3.78,2.89-9.62,6.05-11.34,10.84-1,2.71-.1,5.9-1.36,8.51-.87,1.83-3,2.89-3.29,5a.17.17,0,0,0,.17.21,3.25,3.25,0,0,0,2.27-.81c.06,0,0-.13-.06-.1-1.46-.24-1.76-.68-.91-1.33l.5-.54a11.55,11.55,0,0,0,1.4-1.64,8.4,8.4,0,0,0,1-3.51c.26-2.17,0-4.38,1-6.38A15.35,15.35,0,0,1,55.39,34c3.66-2.84,7.3-6,11.5-8,1.66-.79,3.29-1.67,5-2.45,1.36-.63,3-.93,4.25-1.77a3.85,3.85,0,0,0,1.24-1.39c.21-.28-.12-.43,0-.64a3.93,3.93,0,0,1,2.38-1.39c1.51-.45,4.08-.94,4.87-2.57.27-.55,0-1,.2-1.51s-.36-.24,0-.67,1.46-.29,1.83-.38c1.28-.32,2.91-.68,2.55-2.32-.07-.32-.6-.23-.54.09.28,1.66-3.67,1.88-4.63,2.21A.31.31,0,0,0,83.77,13.63Z"/><path class="cls-5" d="M50.23,4.08C35,12.77,29.79,32.53,38.6,48.21c.38.66.77,1.29,1.18,1.92a14.53,14.53,0,0,0,3.16,1.48,25.9,25.9,0,0,0,23.7-4.47c6-5,10.48-14.32,11.29-22.13A30.42,30.42,0,0,0,74.75,7.59,18.14,18.14,0,0,0,67.12,0,30.88,30.88,0,0,0,50.23,4.08Z"/><path class="cls-6" d="M93.77,16.72A32.81,32.81,0,0,0,78.7,2.85a1.64,1.64,0,0,1,.14.22C85.78,14.51,85.68,30,77.23,40.26A51.52,51.52,0,0,1,62.34,52.43a30.9,30.9,0,0,1-17.82,3.44,31.61,31.61,0,0,0,37.62,5C97.38,52.15,102.58,32.4,93.77,16.72Z"/><path class="cls-6" d="M93.77,16.72a32.78,32.78,0,0,0-4.28-5.95c.09.52.2,1,.27,1.38C92,22.92,92.27,33.26,86.09,42.47c-1.78,2.63-3.16,5.42-5.42,7.69A36.77,36.77,0,0,1,72.83,56,51.5,51.5,0,0,1,65,59.33a32.51,32.51,0,0,1-12.17,2.35,32.22,32.22,0,0,0,7.64,2.6,48.26,48.26,0,0,0,8.77-1.16,20,20,0,0,0,8.07-3.91c3.27-2.54,6.76-5,9.5-8.13a85.61,85.61,0,0,0,6.05-7.4c2.88-4.2,3.7-8.18,4-13.32.09-1.9.17-3.78.15-5.65A33.45,33.45,0,0,0,93.77,16.72Z"/><path class="cls-7" d="M91.43,13.13a34,34,0,0,1,2,3c11.21-3.2,18.83-4.19,19.67-2.14,1.46,3.57-18.25,15-44,25.53S21.21,55.67,19.75,52.1c-.83-2.05,5.3-6.68,15.54-12.25a35.52,35.52,0,0,1-.66-3.51C12.82,47-1.39,56.47.11,60.13c2.07,5.07,33.43-3,70.05-17.92S134.79,11,132.72,5.93C131.22,2.27,114.43,5.44,91.43,13.13Z"/><path class="cls-5" d="M51.38,8.45c-3.46-1.22-8.34,5-9.66,7.46C38.36,22.19,37.13,30.78,42,37c2.23,2.88,6.25,2.87,9.46,2.07a18.8,18.8,0,0,0,11.82-8.57c2.69-4.62,4.2-9.27,2.92-14.71-.57-2.44-1.37-4.77-3.61-6.11C59.82,8,55.79,7.8,51.38,8.45Z"/><path class="cls-5" d="M44.86,17c-2,2.06-4,8.52.67,8.66C51.56,25.81,50,14.8,44.86,17Z"/><path class="cls-8" d="M92.47,14.61c.29.44.57.88.84,1.34,16.34-5.52,27.7-8.08,28.53-6C123.12,13,99.17,25.77,68.35,38.36S11.52,58.64,10.24,55.52c-.84-2.06,9.24-8.27,25-15.87-.12-.52-.24-1-.34-1.54C17.14,46.79,5.72,54.21,6.83,56.91c1.61,4,29.44-3.67,62.14-17s57.91-27.41,56.29-31.37C124.16,5.83,111,8.47,92.47,14.61Z"/><path class="cls-9" d="M93.86,16.89c.46.83.89,1.68,1.27,2.53,1.66-.18,2.68-.05,2.88.44.83,2-12.66,9.47-30.13,16.61s-32.3,11.28-33.13,9.24c-.2-.48.41-1.26,1.66-2.26-.33-.9-.62-1.8-.87-2.71-9.24,4.9-14.76,8.82-14.11,10.42,1.18,2.89,22.26-3,47.09-13.13s44-20.72,42.81-23.62C110.67,12.81,103.94,13.9,93.86,16.89Z"/></g></g></g></svg>