<svg xmlns="http://www.w3.org/2000/svg" viewBox="0 0 67.06 67.06"><defs><style>.cls-1{isolation:isolate;}.cls-2{fill:#d4803a;}.cls-3{fill:#552805;opacity:0.49;}.cls-10,.cls-12,.cls-4{fill:#542b24;}.cls-4{opacity:0.56;}.cls-5,.cls-6,.cls-8{fill:#c6bdba;}.cls-5,.cls-7{opacity:0.57;}.cls-11,.cls-5,.cls-6{mix-blend-mode:screen;}.cls-6{opacity:0.76;}.cls-7{mix-blend-mode:overlay;}.cls-9{opacity:0.34;}.cls-11{opacity:0.31;}.cls-12{opacity:0.33;mix-blend-mode:multiply;}</style></defs><g class="cls-1"><g id="Camada_2" data-name="Camada 2"><g id="icons_planets"><circle class="cls-2" cx="33.53" cy="33.53" r="33.53"/><path class="cls-3" d="M2.67,20.41c1,0,2.21.24,3-.34-1.15,5.42,3.56,8.86,8.44,9.56,3.08.43,7-1.65,8.11-4.51.5-1.27,1.39-3.54.73-4.8.5,1.3,2.3,1.56,2.16-.23.41.85,1.36,1.27,2,.58.76,1.67.44,3.27,1.09,4.73.42.93,2,2.28,2.64,1a2.82,2.82,0,0,1,.5,0c.4,1.44,3.21,3.13,3.52.78,5.15.53,3-6.82,1.55-9.06,1.48.9,4.87.78,3.76-1.83,2.76,2.07,2.26-2.75,1.23-4.11C44.75,11,47.8,9.77,48.46,5.76a6.53,6.53,0,0,0,0-2.25A33.52,33.52,0,0,0,2.67,20.41Z"/><path class="cls-3" d="M31.37,33.87c-.23-1.24-.59-3-2.07-3.32s-2.26.95-1.46,2.33c-.92-.23-1.61-1.18-2.57-1.55a5.91,5.91,0,0,0-3.69-.21c-3.76,1.57-4.17,8.24-.63,10.09-4,1.11,2.48,10.5,6.21,6.73.21,3.54,6.5,2.56,6.5-1.37,1.27,2.75,2.65-.32,2.52-2,3.15.2,6.51.46,7.61-3.37a5.75,5.75,0,0,0-1.45-5.52C39.41,32.71,36,33.37,31.37,33.87Z"/><path class="cls-4" d="M13.53,22c1.65-4.5-5.09-7.22-4.16-2.14-2.28-3.51-5.75,1.94-3,2.37-2.15,2.51-5,8.38-2.09,11.45C8,37.54,10.45,30,11.21,27.76c.7.87,1.72,1,2-.2,1.71.39,4.24,1,4-2C16.92,22.85,14.06,23.06,13.53,22Z"/><path class="cls-4" d="M31,42.5c-.18-2.23-3.58-2.36-2.9-.61-2.44-.38-2.34,3.87-.84,4.94C29,48,31.69,47.05,31,44.68c2.27.3,2.48-2.3,0-1.8Z"/><path class="cls-4" d="M52.48,25.61c2.67-.75,1.5-5.6.77-7.28-.54-1.22-1.7-3.4-3.35-2.49-1.14.64-1.16,2.66-.71,3.61-3.13-1.45-5.32.56-5.36,4.19,0,1.69,3,7.32,4.38,4.1.3,1.19,1.19,2.69,2.69,2.31C52.73,29.58,52.27,27.08,52.48,25.61Z"/><path class="cls-4" d="M33.67,10.27C33.48,7.05,38.62,7,36.82,11c1.91-1.28,2.4,2.15,2,3.34-.57,1.87-3,3.09-4.8,3.07a5.21,5.21,0,0,1-4.61-3C28.74,12.89,29,9.66,31,11.92c-.49-2.08.73-3.67,1.91-.89Z"/><path class="cls-4" d="M32.71,3.93c.39,2.46-1,1.19-1.91,2.31s.48,1.7,1.69,1.56a8.38,8.38,0,0,1,.07,1.11c.68-.51.45-1.19.73-1.95.15-.4.7-1.26.77-1.6a4,4,0,0,0-1.92-3.92Z"/><path class="cls-4" d="M18.71,5.66c-1.29,0-.92,1-1.58,1.54a4.89,4.89,0,0,1-2.07,1c-2.33.88-1.24,2.23-2.54,3.31-.48.4-5.14,1.51-2.83,2.65s4.57-3.3,5.22-4.59a1.7,1.7,0,0,0,2.68-1.35c1.91.77,5-1,5.64-2.9.39-1.15.34-2.18-1-2.59C20.37,2.09,19.38,4.21,18.71,5.66Z"/><path class="cls-4" d="M44.61,54.2a3.35,3.35,0,0,0,1.49-3.41c-.55-1.85-2.56-1.93-2.88.14-1.83-1.44-3.44-.84-4.56,1.31-2.22,4.27,2.84,3.59,5.18,1.58Z"/><path class="cls-3" d="M47.87,55.55c-3-2.79-9.5.75-10,4.42C36.9,67.39,49.66,63.84,47.87,55.55Z"/><path class="cls-3" d="M66.25,26.22A33.39,33.39,0,0,0,60,13c-3,.94-3.71,6-2.76,9.2,1.12,3.87,2.18,8.6-1.61,11.48-1.78,1.35-4.5,1.06-6,2.72-1.16,1.31-1.08,3.47-.65,5.1-2.12-.41-3.66,1.11-2.91,3.28a2.39,2.39,0,0,0-2.5,2.51c-3.61-3.23-6.77,2.27-8.22,5-2-.44-3.06-1.54-4.73.24s-1.47,5.61-5.06,4.33S23.7,51.18,21.69,49c-2.21-2.43-3.93-.78-6.25-.34-.91-2.27.86-4.34.8-6.63,0-1.59-2-4.16-3.3-2.18.76-1.15,0-3.19-1.43-2.18,0-1.41-1.32-1.31-2.41-1.35-2.28-.08-3.23.42-3.76,1.18.85-1.69.22-3.9-1.36-1.64-.36.5-.15,2.6-1.25,1.93-.86-.53,0-2.26,0-3,0-2.41-2.61-5.89-2.56-1.81,0,3.42,2,9.39,6.07,9.41,1.3,2.16-.51,4.19-.15,6.52.42,2.7,2.59,3.54,5,3.28-.08,2.12.48,1.82,1.8,2.85,1.53,1.19,1.36,2.89,2.87,4.41s1.4,1,3.06.81c.87-.07.74-1.08,1.92.19.77.82-.08,2,.76,2.71a1.94,1.94,0,0,0,3-1.18c1,.24,3.31,4.12,4.07,1.29,1.52,1.36,3.35,2.56,3.82-.17,1.34,1.58,2.56.8,3.16-.83.78-2.16-.77-4.25-.87-6.36-.21-4.37,2.28-1.2,4.56-1.91-.2-2.25,2.31-.86,3.3-2.43a10.44,10.44,0,0,0,7.63,1c1.47-.4,6.7-3.33,4.72-5.19a2.85,2.85,0,0,0,3.57-4.44c2.44-.38,3.41-.81,4.65-3.31a19.41,19.41,0,0,0,2-7.41c0-1.89-.76-3.65-.75-5.53A2.86,2.86,0,0,0,66.25,26.22Z"/><path class="cls-5" d="M39.24,38.85c.73,1.94,2.88.1,2.41-1.53-.39-1.32-4.07-3.17-3.6-1.17-.1-2-2.86-1.45-3.47,0-1.06,2.55.88,4.21,3.31,4Z"/><path class="cls-6" d="M64.64,45.17c-.23-.57.39-1.71.09-2.5-.19-.49-.93-.64-1.18-1.13s.22-1.25,0-1.71c-.42-1.07-3.27-4.11-5-4.12,2.11-1.15,2.63-4.17,1.64-6.35-.07-1.34-.24-2.74,1.14-2.66-.06-.58.25-1,.31-1.47,1.15,1.48,2.73-.37,2-1.65a1.05,1.05,0,0,0,1.69-.74,33.24,33.24,0,0,0-1.94-4.59c-.29.36-.35,1,0,2.17-1-1.92-2.15.95-2.07,2.07-.11-.19-.3-.41-.39-.55-1.49,1.19-1.53,3.37-1.56,5.18a1.47,1.47,0,0,0-.82.36,3.51,3.51,0,0,0-.73-.35c.87-.81,1.72-3.77-.16-4.57A2.09,2.09,0,0,0,59,21c.48-2.37-2.58-4.77-3.68-7.24a4.28,4.28,0,0,0-1.72-4.17C52.06,8.62,50.69,9,51,11c.3,1.74,2.47,2.64,2.91,4.21.38,1.38-1,3.33,1.54,4-1.48,1.51-.72,3.55.61,4.81-.72,1.56-4.25,7.16-1,8.11-.94.1-1.2,1.85-.44,3-.63.08-1.25.21-1.71.25-1.07.09-2.23-1.24-2.76.56-.28.94.7,2,1.43,2.38-1.39.46-.36,2.45-.7,3.65-.7-.39-1.26-1.05-2-1a4.23,4.23,0,0,0-1.83-2c3.12-.43,1.25-7.75-1.85-6.11.93-1.06-.18-2.84-1.53-2.89.75-.87-.13-2.52-1.18-2.91-1.64-.6-1.58.69-2.68,1.56-3.43,2.7-1-4.78-1.38-6.15s-5.58-5.48-5.16-3.26c.23,1.2,2.72,1.89,3.3,3,.79,1.52-1,4.14.08,4.85-1.61.94-1.57,4,.6,4.06-1.16,1.9.54,2.28,1.89,2.33.49,0,1-.73,1.6-.45s0,1.31.38,1.55c1.41,1,2.44,0,2.68,2,.17,1.38-.86,4,2.26,3.43-.83,1-1,2.53.18,3.15-.86-.07-1.5.62-1.1,2-.81,0-3.75,1.25-4.14,2-2-1.74-3.94,1.69-5.32,4,.36-1.61-3.59-4.12-3.62-1-1.25-.36-3.34.75-2.68,2.27-1.79-1-3.72-3-6-1.55-1.69,1-1.26,3.23.24,4.25a2.78,2.78,0,0,0-1.22,1.42,4.73,4.73,0,0,0-2.91-1c.17-4.55-13.42-3.72-11.56-8.63,1-2.71,2.65.54,3.46.94a2,2,0,0,0,2.23-.33c1.92-2-1.49-3.84-1.83-2.35.28-1.8-2.89-5.18-3.61-2.94.39-1.25-1.52-2.17-2.54-1.34.17-1.31-1.06-1.36-1.87-.72A2.45,2.45,0,0,0,1,37.25c.08-1.29.69-2.42-.22-3.58A2.49,2.49,0,0,0,0,33c0,.19,0,.37,0,.56A33.4,33.4,0,0,0,2,44.8l.38-.22a1.83,1.83,0,0,0-.18.78c.11.29.23.57.34.86a1.65,1.65,0,0,0,1.62.32C3.2,49.35,6,52.13,8.71,51.92,8.37,54.67,13,57,15,55.21a2.45,2.45,0,0,0,.42,1c-.46.74-.27,1.9-1,2.77a2.2,2.2,0,0,1-1.76.82c.51.4,1,.8,1.58,1.17a4.14,4.14,0,0,1,2-.63c.83,0,2,.88,2-1.06A7.42,7.42,0,0,0,16.93,57a3.78,3.78,0,0,0,1.73-.41,1.69,1.69,0,0,0,2.52,1.11A2,2,0,0,0,23.27,60a5.25,5.25,0,0,0,4.17,2.42c3.33-.21-.07-5-3.29-3.34a2.24,2.24,0,0,0-.28-1.19c.65-.1,1.32-.68,1.59-2,1.19,1.45,3.15.59,3.65-1.16,2.43.43,2.06-2.7,4.12-2.71-1.84,1.29-3.25,8.71.74,7.49,2.52-.77-.42-8.61,3-6.17.31-1.17.37-3,1.37-3.82.41-.33.94.11,1.11,0s.71-.44,1.2-.77.8-1.14,1.64-1.35,1.07.24,1.74.21c.9,0,2.13-.65,2.92.4s-.46,3.31,2,3.24c3.77-.1.83-5,2.6-5.89a5.06,5.06,0,0,0,.59.28c.08-2.26.81-1,1.92-1.88,1.5-1.23.86-3.17-.16-4.59,1.8,1.24,1.72-1.34,3.37-1,0,1.28.79,2.18,2.12,1.93-.21,1.84.65,1.69,1.35,2.86.81,1.34.34,2.45,2.51,2.75a4.46,4.46,0,0,0,.66,2c.36-.75.68-1.52,1-2.3A1,1,0,0,1,64.64,45.17ZM47.05,43.23l.34,0h.1a2.07,2.07,0,0,0,.32.58A2.84,2.84,0,0,0,47.05,43.23Zm10.42-6.89c0-.09-.07-.16-.1-.23l.32-.07A1.11,1.11,0,0,0,57.47,36.34Z"/><path class="cls-5" d="M25.61,25.13h0a.49.49,0,0,0-.48.06,3.22,3.22,0,0,0-.32.32s0,0,0,0a3.4,3.4,0,0,0-1,2.18c-.07.33-.12.66-.16,1s.39.34.53.15a3.09,3.09,0,0,0,.25-.42.38.38,0,0,0,.24-.16,5.34,5.34,0,0,0,.65-1.14c.3-.48.57-1,.83-1.49A.36.36,0,0,0,25.61,25.13Z"/><path class="cls-5" d="M25.86,34.78c-.22-.54-.92-1-1.5-.61a4.75,4.75,0,0,0-.62.56,2.37,2.37,0,0,0-1.32,2,1.21,1.21,0,0,0,.5,1.09,1,1,0,0,0,.08.11.63.63,0,0,0,.84.16,2,2,0,0,0,.82-.2,1.1,1.1,0,0,0,.14-.09A1.48,1.48,0,0,0,26,36.38,2,2,0,0,0,26,36,2.49,2.49,0,0,0,25.86,34.78Z"/><path class="cls-5" d="M22.7,32.79h0a0,0,0,0,0,0,0,.43.43,0,0,0-.11-.12.38.38,0,0,0-.1,0h-.21l-.08,0a.34.34,0,0,0-.12.12s0,0,0,0h0a.33.33,0,0,0,0,.33l0,.17a.3.3,0,0,0,.35.33.29.29,0,0,0,.35-.33l0-.17A.31.31,0,0,0,22.7,32.79Z"/><path class="cls-5" d="M36.15,3.7c-.08-1.32-1.71-2-2.46-2.85,0,0,0,0,0,0,.52.78,1.4,1.26,1.87,2.05.79,1.31-.53,1.87-1.11,2.8a1.81,1.81,0,0,0-.27.89c-.09.67-.45,1.19-.59,1.9a.12.12,0,0,0,.22.09,13.11,13.11,0,0,1,.94-1.35.2.2,0,0,0,0-.25C34.13,5.86,36.22,4.88,36.15,3.7Z"/><path class="cls-5" d="M26.33,3.36c-.24,0-.15.36.05.39,1.27.15,2.66,1.1,2.41,2.41a6,6,0,0,1-1.32,2.13,5.42,5.42,0,0,1-6.58,1.53.34.34,0,0,0-.42.23c-.42,1.25-.25,2.61-2.41,2.3a.4.4,0,0,0-.5.38c-.11,2.39-2,.31-2.71.47a6,6,0,0,0-2.38,1.19,5.73,5.73,0,0,1-1.64,1.09A1.77,1.77,0,0,1,8.5,13.21a6.2,6.2,0,0,1,2.17-2.73,0,0,0,0,0,0-.05c-1.89.83-5.26,5.49-1.57,6.13a4.08,4.08,0,0,0,2.7-.71c1.73-1,1.88-1.6,4-1.47a3.32,3.32,0,0,0,2.11-.18c.44-.26.44-.74.9-1s1.08.11,1.6-.45.26-1.66.62-1.92,2.7.27,3.42.14a6.39,6.39,0,0,0,3.18-1.87C29.64,7.06,30.79,2.55,26.33,3.36Z"/><path class="cls-5" d="M27.5,13.05a.19.19,0,0,0-.32.19,14.32,14.32,0,0,1,1.17,2.31c.24.94-.39,2.62-1.5,2.2-.17-.06-.27-.35-.45-.41a6.93,6.93,0,0,0-.82-.25c-.45-.1-.62,1.09-.83-.14a.29.29,0,0,0-.55,0c-.68.71-1.13.75-1.35.11a3.47,3.47,0,0,1-.37-1,.29.29,0,0,0-.55,0,15.19,15.19,0,0,1-1.52,5.22c-2.05,3.29-4-2.31-2.63-4.26,0,0,0-.08-.06-.05-1.34,1.33-1.24,5.54,1,5.94s3.19-3.47,3.56-5.71c.59,1.11,1.58,1.87,2.16.76.12.1.31.06.69.14.1,0,.45-.17.71-.13.56.08.47.37.87.51s.35.2.79.15C30.59,18.22,28.43,14.25,27.5,13.05Z"/><path class="cls-5" d="M19.46,29.93a.21.21,0,0,0-.38.1c0,.66-.6,3.81-1.81,2.5a.34.34,0,0,0-.58.15c-.06.31-.26,2-1.16,1.27-.28-.21-.17-1.14-.15-1.42s-.53-.42-.61-.09c-.27,1.06-1.4,2.94-2.78,2.62-2.14-.48-.37-3.51.07-4.42a.07.07,0,0,0-.13-.07c-.84,1.29-2.56,4.16-.14,5,1.22.41,2.34-.58,3-1.68a1.26,1.26,0,0,0,.94,1.1c.9.17,1.3-.8,1.5-1.58C18.77,34.18,20.2,31.27,19.46,29.93Z"/><path class="cls-5" d="M12.76,25a.27.27,0,0,0-.45.26c.26.77-.21,1.7-1.07.87a.38.38,0,0,0-.59.08c-.39.79-1.24,1.61-1.91.57S9,25,9.93,24.66a.36.36,0,0,0,0-.68,1.34,1.34,0,0,1,.62-2.57c1.15.11,2.16,2,1,2.77a.11.11,0,0,0,.11.18c1.66-.9.18-3.45-1.39-3.41a1.89,1.89,0,0,0-1.16,3.3c-1.12.61-1.82,1.82-.95,3.07s2.22.74,2.92-.32a1.35,1.35,0,0,0,1.65,0A1.28,1.28,0,0,0,12.76,25Z"/><path class="cls-5" d="M36.72,13.19a1.44,1.44,0,0,0,.53-2c-.68-1.08-2-.42-2.34.53-.12.3.31.49.52.3s.9-.94,1.17-.32-.7,1.12-1.16,1.26-.29.85.21.77a1.34,1.34,0,0,1,.68,2.55c-.76.27-2.64.11-2.55-1a.38.38,0,0,0-.27-.36,1.16,1.16,0,0,1,0-2.31s0-.08,0-.08c-2.2-.33-2.26,2.47-.45,3,.15,1.63,3,2,4.1,1.19A2.11,2.11,0,0,0,36.72,13.19Z"/><path class="cls-5" d="M52.33,19.55a1.75,1.75,0,0,0-2.26-.05,2.14,2.14,0,0,0-.81,1.26,1.06,1.06,0,0,0-.5.14A3.26,3.26,0,0,0,47.51,23a2.33,2.33,0,0,0,.76,2.23c.77.5,1.09-.27,1.21-.91,0-.08-.1-.14-.14-.06-.35.75-.68.52-.91-.07a1.73,1.73,0,0,1-.1-1.12,3.09,3.09,0,0,1,.41-.86,1.44,1.44,0,0,1,.34-.43c.1,0,.14,0,.16,0l.06.3c.13.59,1,.34.9-.25-.3-1.41,1.42-2.48,1.86-.72.33,1.35-.61,2.17-1.22,3.22a.35.35,0,0,0,.38.5C53.3,24.46,53.71,20.8,52.33,19.55Z"/><path class="cls-5" d="M37.72,36.21a1.71,1.71,0,0,0-1.94.67,1.18,1.18,0,0,0,.49,1.53,1.45,1.45,0,0,0,1.8-.3.49.49,0,0,0,.11-.18.31.31,0,0,0,.46-.11A1.25,1.25,0,0,0,37.72,36.21Z"/><path class="cls-5" d="M17.24,50a1,1,0,0,0-.51-.42H16.6l-.09-.09a.15.15,0,0,0-.26.11c0,.07,0,.14,0,.21a.35.35,0,0,0,0,.18.7.7,0,0,0,.22.58.54.54,0,0,0,.66,0,.36.36,0,0,0,.15-.23A.43.43,0,0,0,17.24,50Z"/><path class="cls-5" d="M19.82,49.49a.3.3,0,0,0-.35-.3.3.3,0,0,0-.34.3.63.63,0,0,0,.22.71.28.28,0,0,0,.25,0A.65.65,0,0,0,19.82,49.49Z"/><path class="cls-5" d="M20.14,52a2.3,2.3,0,0,0-.43-.25l-.29-.28a.57.57,0,0,0-.51-.13.77.77,0,0,0-.26,0,.44.44,0,0,0-.19.71l.05.05a.51.51,0,0,0,.09.18,1.58,1.58,0,0,0,.58.41h0l.13.08a.57.57,0,0,0,.28.06.64.64,0,0,0,.64-.1C20.51,52.5,20.35,52.15,20.14,52Z"/><path class="cls-5" d="M60,51.42c-.35-1.92-2.89-2.54-4.37-1.64a.23.23,0,0,0,.23.4q4.26-1.57,1,3.74a3.84,3.84,0,0,1-2.29-.84c-.24-.17-.45.14-.36.35q-1,4-2.64,2.21a.28.28,0,0,0-.45.12c-.43,1.71-2.37-.29-2.77-.73a.27.27,0,0,0-.43.33c2.28,3.48-1.83,7.19-5,8-4.89,1.28-6.32-3.33-4.18-6.87,0,0,0-.07,0,0-3.37,4.3,0,9.21,5.24,7.11,2.34-.93,5.14-3.16,5.31-5.89a4.06,4.06,0,0,0-.1-1.23,2.43,2.43,0,0,0,1.52.6c.57,0,.64-.63,1.14-.59,1,.08,1.2,1.36,2.44.78,1.05-.48.84-1.55,1-2.42A2.43,2.43,0,0,0,55,54c.42.15,1.21.35,1.1.33C57.89,54.68,60.37,53.57,60,51.42Z"/><path class="cls-5" d="M49.41,7.15c-.26,0-.34.42-.07.47.95.15.93,1.25.51,2a2.48,2.48,0,0,1-2.64.92.34.34,0,0,0-.41.41c.07.36.66,2.68-.65,2-.21-.11-.56,0-.52.3.06.47.36,3.31-1.1,2.17a.33.33,0,0,0-.54.32,6.43,6.43,0,0,1-1.42,4.35c-.54.73-2.4,2.9-3.12.38,0,0-.05,0,0,0,.23,1.46,1.14,1.73,2.39,1,1.63-1,2.6-3.36,2.79-5.25,1.47.81,1.85-.91,1.77-2.42.64.22,1,.05,1.33-.78.13-.38-.3-1.38-.13-1.67a9.06,9.06,0,0,0,1.23-.16C50.46,10.61,52.13,7.22,49.41,7.15Z"/><path class="cls-5" d="M41.36,40.14c-.07-.24-.38-.16-.41.06-.15,1.24-1.34,3.85-2.58,1.29a.28.28,0,0,0-.51.07c-.42,1.43-2.68,1.5-2.23-.27a.25.25,0,0,0-.31-.31c-3.73,1-4.9-4.06-2.4-6.14,0,0,0,0,0,0-3.13,2.07-1.57,7.26,2.18,6.73-.21,1.84,2.17,2.18,3.08.69C39.5,44.12,41.92,42.38,41.36,40.14Z"/><path class="cls-5" d="M27.39,46.58c-.61.51-3.13.54-2-.46a.25.25,0,0,0-.18-.42c-1.67-.17-2.83-1.31-2.31-3,.38-1.28,1.67-2.24,2.63-.86.1.15.36,0,.25-.15-1-1.55-2.58-.84-3.2.64-.81,1.93.36,3.41,2.16,3.81-.89,1.33,2.12,2,3,.71C27.84,46.62,27.55,46.45,27.39,46.58Z"/><path class="cls-5" d="M46.34,57.42c-1.24-1.15-3.43.77-4,1.84a.28.28,0,0,0,.17.4,1.85,1.85,0,0,0,2.29-.94.21.21,0,0,0-.33-.25,2,2,0,0,1-1.45.75c.67-.89,2.32-2.28,3.09-1.28,1.11,1.44-1.6,2.56-2.54,2.79-1.59.39-3.69-.38-2.42-2.27,1.16-1.72,3.31-2.26,5.2-2.7,0,0,0,0,0,0-2.07-.2-5.71,1.31-6,3.67-.3,2.16,2.59,2.11,4,1.65S48,59,46.34,57.42Z"/><path class="cls-5" d="M9.59,39a1.1,1.1,0,0,0,.07-.69c-.11-.26-.41-.42-.62-.58a.27.27,0,0,0-.39.16,1.8,1.8,0,0,0-.05,1,.78.78,0,0,0,0,.22.84.84,0,0,0,.46.48.49.49,0,0,0,.24,0,.43.43,0,0,0,.27,0C10,39.5,9.78,39.14,9.59,39Z"/><path class="cls-5" d="M14,41.8l-.06.06a.06.06,0,0,0-.08,0,2.47,2.47,0,0,0-.08.6.2.2,0,0,0,.36.09l.11-.24a.28.28,0,0,0,.15-.23V42A.27.27,0,0,0,14,41.8Z"/><path class="cls-5" d="M5.59,43.54a1.35,1.35,0,0,0-1-.79.4.4,0,0,0-.51.38,1.71,1.71,0,0,0,.09.6v0a2.29,2.29,0,0,0,.62,1.1.38.38,0,0,0,.59-.08A1.58,1.58,0,0,0,5.59,43.54Z"/><g class="cls-7"><path class="cls-8" d="M2.32,21.29a8.6,8.6,0,0,0,4.89,7,9.2,9.2,0,0,0,11.53-2.82c.59,1.23,1,2.34,2.49,2.44,2.34.15,1.93-1.63,2.81-3,3.05,10.77,18.58,4.24,15.79-5.78,2.07.78,4.42-2.56,3.26-4.41,1.61.73,1.93-1.27,1.59-2.48,1-.09,2.33-1.14,2.1-2.17,1.67.34,2.85-1,3.21-2.51A5.76,5.76,0,0,0,49.36,4a33.53,33.53,0,0,0-47,17.32Z"/></g><g class="cls-7"><path class="cls-8" d="M23.7,3.74c-2-1.15-7.15,3-8.82,4.23C11.67,10.35,8.55,14.5,8,18.6a5.11,5.11,0,0,0,5.13,5.68c3.69-.05,8.27-5.59,8.32-9,1.5,1.3,3.8,3.07,4.79,0,4.47,3.57,9.08-6.81,6.5-7.36,2.43,1.21,5.53-2.93,5-5.14C36.47-2.15,25.3,2,23.7,3.74Z"/></g><g class="cls-9"><path class="cls-10" d="M33.53,67.06A33.52,33.52,0,0,0,55.24,8c.42,1.21,4.84,8.16,1.65,21.08C53.05,44.61,36.25,53.43,17.56,48.45,6,45.38,1.19,38.9.24,37.48A33.53,33.53,0,0,0,33.53,67.06Z"/></g><g class="cls-9"><path class="cls-10" d="M65.29,22.78a33.72,33.72,0,0,0-1.4,4.38C63,30,62,32.74,61.07,35.55c-2,6.22-6.38,12.68-12.43,15.51-3.35,1.56-6.44,4-10,5.09-3,.94-6.3,1.21-9.4,2-4.58,1.1-7.75,2.65-12.55,1.77a23.74,23.74,0,0,1-6.4-2.17,33.15,33.15,0,0,0,5.63,4.37c1,.36,2,.69,2.93,1a28.79,28.79,0,0,0,15.57.28c7.67-1.93,17-6.34,22.74-11.91a36.07,36.07,0,0,0,9.19-14.85A25.8,25.8,0,0,0,67.05,34c0-.17,0-.34,0-.51A33.56,33.56,0,0,0,65.29,22.78Z"/></g><g class="cls-11"><path class="cls-8" d="M28.11,12.18C30.36,11.7,32.05,9,32.61,7c.86-3.14-.56-4.27-3.54-4.18a6.9,6.9,0,0,0-3.46.69C24.69,4,24,5.22,23.08,5.62s-2.44,0-3.6.66c-1.5.79-1.51,1.44-2.14,3-5.72-2.78-11.26,8.2-7.71,12.45,2.29,2.75,7.58,1.21,10.21-.33,2.46-1.43,4.66-5.48,5-8.17C25.87,14.15,29,15.66,28.11,12.18Z"/></g><g class="cls-11"><path class="cls-8" d="M24.08,12.38c2.29.31,5.27-2.45,2.68-4s-5.82.77-7.27,2.72c-2.85-1.78-6.39,1-6.54,4.25a2.87,2.87,0,0,0,2.59,3.19c2.7.4,4.59-2.33,6.62-3.63Z"/></g><path class="cls-12" d="M27.34,33.41c-1.69-2.74-6.15-3.15-7.87-.26-1.16,1.94-1.26,6.74,1.44,7.55,0,0,0,0,0,0-1.76-1.37-2.24-4.21-1.54-6.29,1.22-3.62,5.34-2.86,7.43-.56C27.07,34.09,27.53,33.73,27.34,33.41Z"/><path class="cls-12" d="M29.12,30.82a1.48,1.48,0,0,0-1.33.53,1.21,1.21,0,0,0,.37,1.5c.05.06.13,0,.1-.07-.17-.37-.45-1-.12-1.31a1.31,1.31,0,0,1,1.15-.22,2,2,0,0,1,1.19.67,3.12,3.12,0,0,1,.45,1.6.16.16,0,0,0,.29,0C31.92,32.2,30.37,30.87,29.12,30.82Z"/><path class="cls-12" d="M31.07,34.59a0,0,0,0,0,0,.09c3.53,0,9.18-1.53,11.15,2.36.1.19.36.08.38-.1C43.1,32.44,33.36,33.73,31.07,34.59Z"/><path class="cls-12" d="M48.78,19.93c.06,0,0-.11,0-.14-1.5-1-4.14.23-4.78,1.76-.9,2.18.47,5.78,2.6,6.77.19.08.48-.12.33-.33-1.28-1.72-3.25-3.76-2.26-6.14C45.48,19.93,47.3,20.61,48.78,19.93Z"/><path class="cls-12" d="M50.9,16.1a1.35,1.35,0,0,0-1.22,2.24,0,0,0,0,0,0,0,1.62,1.62,0,0,1,.1-1.47,1.26,1.26,0,0,1,1.76.06c.66.58.82,1.52,1.36,2.2.11.14.3,0,.27-.16C53,17.77,52.28,16.21,50.9,16.1Z"/><path class="cls-12" d="M35.5,8c-1.76.24-1.59,1.75-2.42,2.79-.24-.58-.49-1.25-1.23-1.09s-1.11,1.07-1.18,1.86c-.36-.35-.82-.61-1.27-.26-.9.69,0,2.3.51,2.89,0,0,.07,0,.05,0a7.25,7.25,0,0,1-.49-1.27c.43-1.26.83-1.44,1.22-.55a.25.25,0,0,0,.45-.13c0-.46.06-2.36,1.34-1.4a4.24,4.24,0,0,1,.28.62.28.28,0,0,0,.44.06,2.75,2.75,0,0,0,.74-1.15c.21-.5.35-1.37,1-1.53l1.68.42c0,.26.09.52.14.78s.38.16.4,0C37.27,8.86,36.73,7.87,35.5,8Z"/><path class="cls-12" d="M11.58,16.89c-1.67-.56-2.15,1-2.33,2.38a2.29,2.29,0,0,0-3-.13,1.69,1.69,0,0,0,1.1,3.07.14.14,0,0,0,.07-.27c-3.25-2.14,1-4,1.73-2.06a.2.2,0,0,0,.39-.05c.07-1.17.2-3.32,2-2.64a3.45,3.45,0,0,1,1.89,4s0,.06.05,0C14.51,19.79,13,17.38,11.58,16.89Z"/><path class="cls-12" d="M5.5,24.39s0-.08-.06-.05c-1.51,1.78-4,7.73-.67,9,.1,0,.14-.09.09-.16C2.93,30.73,3.76,26.85,5.5,24.39Z"/><path class="cls-12" d="M22.45,3.92c-.52-.91-1.19-1-2.09-.46-.68.42-.89,1.06-1.36,1.64s-.56.46-1,.84c-.83.72-1.26,1.62-2.38,2.07-.6.24-1.08.12-1.55.61-1.35,1.39.15,2-2.47,3.39a7.09,7.09,0,0,0-2.2,1.18.18.18,0,0,0,.17.3l.62-.09c.06,0,.06-.12,0-.13A20.34,20.34,0,0,0,13,11.87c.57-.48.61-1,.92-1.63,1-2.15,1.2-1.2,2.65-2,.81-.45,1.33-2,2.4-1.92a.27.27,0,0,0,.25-.19c.13-.66,1.61-3.69,2.83-2C22.23,4.38,22.6,4.17,22.45,3.92Z"/><path class="cls-12" d="M32.37,1.57a.26.26,0,0,0-.18.31,26.48,26.48,0,0,1,.5,2.63c.09.49.21.58-.18.91s-.41.19-.8.27a1.47,1.47,0,0,0-.58.19c-.63.4-.91,1.63.15,1.43,0,0,0,0,0,0-.17-.8.06-1.17.66-1.13a4,4,0,0,0,.5,0A1.37,1.37,0,0,0,32.8,6a.8.8,0,0,0,.49-.62,5.55,5.55,0,0,0-.23-1.61A16.82,16.82,0,0,0,32.76,2c.73.11.91,1.81,1.26,2.22a.19.19,0,0,0,.31-.09C34.54,3.27,33.5,1.2,32.37,1.57Z"/><path class="cls-12" d="M45,49.73c-1.13-.46-1.59.57-2.18,1.29a2.08,2.08,0,0,0-2-.65,3.78,3.78,0,0,0-1.74,1.83c-.33.58-1.32,2.92.28,2.46a.07.07,0,0,0,0-.14c-1-.31-.07-1.75.26-2.26a4.31,4.31,0,0,1,.54-.73c.82-.87,1.72-.65,2.52.12a.31.31,0,0,0,.42,0c.22-.2.48-.75.71-.9l1.37-.06.17.43a2.88,2.88,0,0,1,0,1c0,.27.34.31.46.13A1.76,1.76,0,0,0,45,49.73Z"/><path class="cls-12" d="M29.5,40.35a1.26,1.26,0,0,0-1.68,1.23c-.78-.12-1.3.51-1.48,1.4s-.36,2.55.43,3.13A.19.19,0,0,0,27,46c.14-.66-.52-4.39,1-3.6a.37.37,0,0,0,.54-.41c-.17-.67.27-1.24,1-.94a1.41,1.41,0,0,1,.78,1,7,7,0,0,1,.35,1.18c0,.05.09,0,.1,0A2.39,2.39,0,0,0,29.5,40.35Z"/><path class="cls-12" d="M32.45,43.34a1.22,1.22,0,0,0-.77-.37c-.26,0-.68.13-.74.42a.09.09,0,0,0,.11.11c.21,0,.34-.17.56-.14a.75.75,0,0,1,.46.21c.07.07.2.22.17.33s-.27.16-.38.19a.23.23,0,0,0-.16.16.19.19,0,0,0,0,.13.24.24,0,0,0,.22.17A.69.69,0,0,0,32.45,43.34Z"/><path class="cls-12" d="M45.36,55.39c-1.31.35-2.81.32-4,1.15a4.93,4.93,0,0,0-1.87,2.89.19.19,0,0,0,.31.18c.82-.75,1.08-1.89,2-2.59,1.07-.83,2.49-.74,3.57-1.51C45.47,55.47,45.44,55.36,45.36,55.39Z"/><path class="cls-12" d="M45.19,56.77a3.29,3.29,0,0,0-2.57.73c-.57.48-1.28,1.59-.79,2.32a.1.1,0,0,0,.18,0,4.14,4.14,0,0,0,.33-1,2.4,2.4,0,0,1,.69-1,5.64,5.64,0,0,1,2.16-1S45.21,56.77,45.19,56.77Z"/><path class="cls-12" d="M46,57.84s0,0,0,0c.35.92-.55,1.51-1.27,1.84-.38.18-.77.33-1.16.47-.23.08-.56.15-.7.37a.19.19,0,0,0,.07.27c.32.15.75-.1,1-.22a7,7,0,0,0,1.49-.84C46,59.3,46.74,58.47,46,57.84Z"/><path class="cls-12" d="M44.63,55c-1.58-1-4.14.47-5.33,1.52s-2.48,3.42-.82,4.84c.08.07.25,0,.2-.12-1.41-3.72,2.83-5.94,5.93-6.16A0,0,0,0,0,44.63,55Z"/><path class="cls-12" d="M32.45,52.74c-.75.44-2,3.07-3,2.24a.3.3,0,0,0-.5.13c-.33,1.14-.91,2.13-2.34,1.63a4.76,4.76,0,0,1-1.38-.92s0,0,0,0c.58,1,1.16,1.77,2.44,1.53a2.32,2.32,0,0,0,1.76-1.74c1.35.54,3-1.57,3.24-2.73A.14.14,0,0,0,32.45,52.74Z"/><path class="cls-12" d="M39.44,50.28c-.3-.79-.86-.88-1.54-.31a2.87,2.87,0,0,0-.84,1.89c0,.2-.15,1.53-.47,1.61-.12,0-.34-.43-.53-.36-.68.28-1,.42-.86,1.37a7,7,0,0,1,.35,1.73A3.13,3.13,0,0,1,35.09,58c-.68,1.2-2.09,2.6-3.4,1.2a0,0,0,0,0-.07.06c1.32,2.41,3.91-.24,4.47-1.93a4.87,4.87,0,0,0,0-2.37c-.17-2.07.06-.45.59-.68a1.52,1.52,0,0,0,.66-.35,2,2,0,0,0,.28-.84l.06-.48a1.8,1.8,0,0,1,1.22-2C39,50.82,39.57,50.62,39.44,50.28Z"/><path class="cls-12" d="M59.55,13.32a2.33,2.33,0,0,0-1.11.72,5.77,5.77,0,0,0-.92,1.28c-.14.28-.41.77-.19,1.07a.16.16,0,0,0,.24,0,2.37,2.37,0,0,0,.31-.73,5,5,0,0,1,.67-1.08,3.57,3.57,0,0,1,.81-.79c.21-.14.53-.13.71-.27l0,0C60.06,13.3,59.72,13.29,59.55,13.32Z"/><path class="cls-12" d="M15.21,39.85a1.62,1.62,0,0,0-1.65-.6c0-1.4-.81-2.67-2.12-1.94-.79-1.73-4-1-5.69-.1.16-.84.31-1.93-.37-2.22-1-.44-1.25,1.6-1.45,2h0a8.32,8.32,0,0,1,.72-1c.83-.36.41,1.18.31,1.76,0,.25.23.56.49.37,1-.7,5.1-2.16,5.44-.19,0,.29.41.31.59.16,1.32-.08,1.75.48,1.28,1.66a.36.36,0,0,0,.6.35C15,40.65,15.5,41.6,15,43c-.13.43-.28.86-.44,1.29s.34.47.5.21C15.8,43.2,16.36,41.09,15.21,39.85Z"/><path class="cls-5" d="M39.19,11.74c-.17-1-.78-1.73-1.79-1.19-.19.1-.11.44.11.42,2.43-.2.49,4.6-.22,5.36-1.21,1.3-2.88,1.15-4.44.7a5.13,5.13,0,0,1-3.26-2.76s-.1,0-.08.05A5.22,5.22,0,0,0,34,17.75a3.8,3.8,0,0,0,4.12-1.61A6.24,6.24,0,0,0,39.19,11.74Z"/><path class="cls-5" d="M15.49,22.94c-.19-.08-.31.24-.14.34,3.58,2,1.3,7.72-2.22,4.69a.23.23,0,0,0-.36.05l-1.43.28a.23.23,0,0,0-.41.06,12.07,12.07,0,0,1-1.81,4.46c-2.59,3.61-6.23,1.06-6.72-2.31,0,0,0,0,0,0C2.48,33,4.52,36.16,7.4,35c1.45-.61,2.38-2.19,3-3.54.22-.47.48-2.13.83-2.36,0,0,.69.24.6.28a4.74,4.74,0,0,1,1.45-.64c1.11,0,1.87.74,3.17.22C19.71,27.59,17.94,24,15.49,22.94Z"/><path class="cls-5" d="M26.54,48.42c-3.16,2.12-5.54-1.87-6.77-4.2h0c.75,2.81,3.71,7,7.05,4.63C27.06,48.67,26.82,48.24,26.54,48.42Z"/><path class="cls-5" d="M36.56,44.68c0-.11-.18-.1-.21,0a9.92,9.92,0,0,1-.5,2.42,1.12,1.12,0,0,1-2,.07s-.07,0-.08,0c-.15,1,1.31,1.11,1.92.7C36.63,47.29,36.76,45.63,36.56,44.68Z"/><path class="cls-5" d="M34.67,49.43c-1-1.76-2.75-.74-3,.86-1.1-.08-3.07.58-2.19,1.91,0,0,0,0,0,0,0-1.27,1.15-1.8,2.3-1.41a.24.24,0,0,0,.3-.23,1.57,1.57,0,0,1,.68-1.48c.64-.33,1.14.09,1.58.54A.15.15,0,0,0,34.67,49.43Z"/><path class="cls-5" d="M44.21,38.74c0-.1-.15-.06-.16,0-.2,1.56-.24,3.08-1.29,4.37a5.13,5.13,0,0,1-4.38,1.73,0,0,0,0,0,0,.08C42,45.89,44.68,42,44.21,38.74Z"/><path class="cls-5" d="M54.67,22c0-.07-.15-.07-.16,0-.17,1,0,2.46-.85,3.24-.37.35-1,.33-1.31.75-.46.64-.28,1.4-.35,2.12a5.81,5.81,0,0,1-.2,1.09l-1.73,1.08c-1,.06-1.54-1.35-1.87-2a0,0,0,0,0-.09,0c.16,2.24,3.34,3.71,4.08,1,.23-.81-.09-2,.26-2.72s1-.64,1.46-1.09A4.12,4.12,0,0,0,54.67,22Z"/><path class="cls-5" d="M23.7,5c-.48,2.19-3.13,4.87-5.57,3.48a.15.15,0,0,0-.22.09L15,10.16c-.07,0-.15,0-.17.1-.44,1.26-2.91,5.57-5.2,3.72,0,0-.08,0,0,0,.9,1.05,2.51.22,3.43-.46s1.29-2.16,2.2-2.68c.58-.33,1.16-.11,1.78-.48s.76-1.2,1.5-1.42,1.48.23,2.4-.16a4.85,4.85,0,0,0,3-3.84C23.89,4.88,23.72,4.86,23.7,5Z"/><path class="cls-5" d="M26.62,21.11c-.69.15-1,.45-1.71-.3a.2.2,0,0,0-.31,0c-.17.49-.57.63-1.2.43a.2.2,0,0,0-.38.1c.84,3.7-2.77,7.49-6.23,8,0,0,0,0,0,0,3.33.53,6.52-3.59,6.74-6.59a5.14,5.14,0,0,0,0-.68.66.66,0,0,0,.54,0c.21-.08.29-.35.46-.44.65-.34.12-.07.66-.07a5.5,5.5,0,0,0,1.53-.12C27,21.43,26.86,21.06,26.62,21.11Z"/><path class="cls-5" d="M34.7,27.37c-.48.68-1.31,1.45-2.24,1-.37-.18-.57-.62-.82-.93a1.53,1.53,0,0,0-.8-.66.21.21,0,0,0-.23.1c-.48,1-1.69-.34-2-.8,0,0-.09,0-.07,0a2.39,2.39,0,0,0,1.34,1.46,1.35,1.35,0,0,0,.72,0c.08,0,.17-.23.23-.22.31,0,.45.47.59.68.46.66.89,1.16,1.78,1.08A1.82,1.82,0,0,0,35,27.44C35,27.29,34.78,27.26,34.7,27.37Z"/><path class="cls-5" d="M47.92,8.36c-.87,1.42-4.16,3.92-6,3.6-.17,0-.38.11-.31.3A6.9,6.9,0,0,1,42.08,15c0,.24-.54,2.61-1.08,1.76a.25.25,0,0,0-.43.25c.91,1.77-2.72,1.41-3.48,1.54a.14.14,0,0,0,0,.26c1.24.17,2.22.56,3.34-.24a1.52,1.52,0,0,0,.75-1c1,.28,1.42-2.88,1.35-3.61-.05-.43-.3-1.24-.16-1.47,0,0,1.77-.68,2-.79,1.55-.88,3.25-1.49,3.91-3.25C48.3,8.3,48,8.2,47.92,8.36Z"/><path class="cls-5" d="M32.38,22.08a.61.61,0,0,0-.83-.22,1.25,1.25,0,0,0-.67.84.54.54,0,0,0-.05.11.39.39,0,0,0,0,.28,1.75,1.75,0,0,0,0,.56.57.57,0,0,0,.71.4A1.43,1.43,0,0,0,32.38,22.08Z"/><path class="cls-5" d="M34.15,24.28a.19.19,0,0,0,0,.37A.19.19,0,0,0,34.15,24.28Z"/><path class="cls-5" d="M45.08,6.18a5,5,0,0,0-3.24-3.54C40.38,2.35,39,4,39.22,5.37c0,0,0,0,0,0a2.41,2.41,0,0,1,1.06-2.21c1.14-.76,2.1-.26,2.95.51A5,5,0,0,1,44.82,5.9,3.47,3.47,0,0,1,44.41,9a2,2,0,0,1-3.22.42A3.85,3.85,0,0,1,40.2,7c-.05-1,.58-3.85,2.41-2,.54.53,1,2.83.08,3.3-.63.35-1.48-.83-1.18-1.37.57-1,.69,0,.81.32a.09.09,0,1,0,.17,0c-.1-.48-.31-1.72-1-1.09s-.2,2.23.42,2.55C43.63,9.54,44,4.4,41.77,4c-1.11-.2-1.61,1.3-1.78,2.13a4.1,4.1,0,0,0,1,3.51,2.09,2.09,0,0,0,2.82.25A3.44,3.44,0,0,0,45.08,6.18Z"/></g></g></g></svg>